<?xml version="1.0" encoding="iso-8859-1"?>
<!-- Generator: Adobe Illustrator 26.0.3, SVG Export Plug-In . SVG Version: 6.00 Build 0)  -->
<svg version="1.1" id="&#x421;&#x43B;&#x43E;&#x439;_1"
	 xmlns="http://www.w3.org/2000/svg" xmlns:xlink="http://www.w3.org/1999/xlink" x="0px" y="0px" viewBox="0 0 1564 800"
	 style="enable-background:new 0 0 1564 800;" xml:space="preserve">
<path style="fill:#293646;" d="M458,576c-7.694,23.082-26.423,0.435-41.25,8.995s-28.526,12.592-30.597,9.005
	c-2.071-3.587,9.982-11.506,24.847-20C432,562,461,567,458,576z"/>
<path style="fill:#293646;" d="M253,661c-11.493,7.82-7.262-12.04-16.964-13.288c-9.701-1.249-17.321-4.163-17.019-6.511
	S226.304,636.708,236,638C249.697,639.825,257.481,657.951,253,661z"/>
<path style="fill:#293646;" d="M278.768,579.621c-12.97,14.831-17.348-6.608-32.526-1.475c-15.179,5.133-28.143,7.344-28.956,4.939
	c-0.813-2.405,8.474-8.965,23.668-14.054C262.417,561.842,283.825,573.838,278.768,579.621z"/>
<path style="fill:#293646;" d="M240.738,733.771c-8.071-4.734,1.543-8.68-2.2-15.306s-5.925-12.478-4.875-13.071
	c1.05-0.593,4.935,3.158,8.658,9.795C247.581,724.564,243.885,735.617,240.738,733.771z"/>
<path style="fill:#050506;" d="M51.361,517.745c-2.792,25.621,3.838,34.936,3.838,34.936s0.397-0.513,1.078-1.433
	c0.047,1.14,0.162,1.752,0.162,1.752s0.839-0.146,2.284-0.439c4.771,4.901,15.552,14.766,35.081,31.795
	c8.23,7.176,8.894,25.81,6.051,48.03c-2.196,1.064-3.22,2.221-3.22,2.221s0.917,1.53,2.394,3.7
	c-2.918,19.407-8.119,40.914-13.105,59.67c-0.354,0.569-0.499,0.918-0.499,0.918s0.074,0.057,0.212,0.16
	c-1.574,5.9-3.122,11.517-4.563,16.693c-3.007,10.797-14.444,11.571-28.451,7.93c5.717-4.713,7.652-8.8,5.657-11.793
	c-0.673-1.009-1.567-2.419-2.89-3.727c4.748-2.213,8.572-4.805,9.539-7.649c3.019-8.883,2.216-13.962-2.226-14.718
	c-4.442-0.757-13.661-2.78-24.236,9.765c-5.596,6.638-7.346,11.93-7.755,15.442c-1.357,1.334-2.196,2.603-2.691,3.535
	c-4.252-1.925-8.45-3.953-12.464-5.963c6.394-4.291,8.897-8.216,7.296-11.318c-1.603-3.107-4.673-9.862-16.624-7.471
	c-7.4,1.481-11.344,4.773-13.277,7.066c-0.835-0.426-1.619-0.819-2.346-1.175c6.337-8.925,19.736-29.387,18.295-40.995
	c-1.88-15.145-5.137-22.108-9.354-20.247c-4.216,1.861-13.194,5.053-15.986,30.674c-0.688,6.317-0.802,11.638-0.586,16.077
	c-2.447-9.01-6.359-19.377-11.993-23.043c-10.715-6.973-17.13-8.651-18.581-4.957s-5.024,11.146,9.387,26.752
	c12.415,13.445,21.546,15.896,23.84,16.317c0.945,2.623,1.77,3.789,1.77,3.789s0.67-0.867,1.772-2.376
	c0.694,0.432,1.458,0.89,2.283,1.373c-0.082,0.161-0.121,0.254-0.121,0.254s11.589,8.864,19.431,10.013
	c26.666,13.485,64.012,30.866,63.66,32.677c-2.098,10.796,5.903,24.614,16.564,40.781c-0.577,1.258-0.963,2.391-1.217,3.385
	c-3.054,2.439-4.019,4.763-4.019,4.763s9.357,7.155,16.944,9.442c12.887,19.657,25.882,41.92,28.821,65.873
	c6.503,53-31.743,122.241-31.743,122.241l13.172,19.953l25.925-49.104l5.101-102.206l9.148-20.23l19.395-90.149
	c5.76,4.233,15.472,10.832,19.421,10.335c5.782-0.728,7.858-2.468,6.066-4.99c-1.43-2.012-3.959-5.821-10.622-8.437
	c0.075-0.083,0.154-0.163,0.217-0.255c3.01-4.4,3.393-7.801,1.164-9.821c-2.229-2.021-6.782-6.492-14.371-2.49
	c-0.352,0.186-0.67,0.379-0.988,0.572l-7.148-37.603c5.606,0.393,14.55,0.355,16.829-3.566c3.385-5.825,3.941-9.769,1.665-11.408
	c-2.194-1.579-6.58-5.102-14.258,0.636c0.343-1.932,0.251-3.673-0.57-4.947c-3.65-5.663-6.911-7.95-9.405-6.667
	c-2.494,1.283-7.927,3.714-5.705,14.082s8.09,13.128,8.09,13.128s0.39-0.545,0.994-1.462c0.599,0.062,1.293,0.125,2.055,0.182
	l-1.618,19.327l-36.416-34.765c0.86-4.077-0.154-6.549-3.034-7.242c-2.012-0.484-5.014-1.302-8.873-0.885
	c0.683-2.567,0.347-4.396-1.024-5.383c-2.276-1.639-6.911-5.373-15.136,1.318c-0.067,0.055-0.123,0.109-0.189,0.164l4.511-21.425
	c3.735,4.412,8.166,8.367,11.587,7.581c7.276-1.672,10.858-4.479,10.402-8.062c-0.153-1.203-0.326-2.864-0.929-4.624
	c5.236,0.132,9.815-0.486,11.947-2.602c6.658-6.61,8.201-11.515,4.56-14.17c-1.684-1.229-4.166-3.154-7.835-4.223
	c1.462-2.196,1.75-4.074,0.816-5.54c-1.55-2.434-4.577-7.771-14.288-4.497c-5.517,1.86-8.516,4.687-10.08,6.785l3.089-14.672
	c9.476-3.865,28.533-12.785,26.989-21.495c-2.047-11.553-6.366-17.845-12.391-18.248c-6.025-0.403-18.823-1.811-23.788,15.285
	c-0.574,1.977-0.955,3.846-1.192,5.614c-12.589-9.617-31.598-23.958-41.264-30.359c11.047-2.489,35.686-9.275,39.733-20.991
	c5.245-15.186,5.066-24.23-0.394-26.199c-4.498-1.622-12.932-5.207-24.339,5.06c0.03-0.853,0.004-1.675-0.093-2.454
	c-1.88-15.145-5.137-22.108-9.354-20.247C63.13,488.932,54.153,492.124,51.361,517.745z M97.699,772.116
	c0.364,0.021,0.735,0.04,1.118,0.055c-0.239,0.237-0.472,0.472-0.7,0.706L97.699,772.116z M165.167,742.031
	c-2.997,26.951-20.403,79.428-28.105,101.737l-24.832-45.202c4.71-3.656,6.439-6.989,5.042-9.696
	c-0.539-1.043-1.245-2.498-2.395-3.88c5.053-1.871,9.233-4.179,10.583-6.927c4.217-8.585,4.095-13.662-0.254-14.709
	c-2.012-0.484-5.014-1.302-8.873-0.886c0.683-2.567,0.347-4.396-1.024-5.383c-2.276-1.639-6.911-5.373-15.136,1.318
	c-3.064,2.493-4.956,4.955-6.126,7.065l-11.001-20.026l1.77-8.405c7.587,5.249,19.195,11.837,25.352,8.089
	c9.638-5.866,13.736-11.311,11.932-15.699c-1.804-4.388-5.142-13.92-22.28-10.857c-4.912,0.878-8.837,2.318-11.942,3.924
	l4.042-19.198c5.748,3.532,13.808,7.502,17.699,4.896c6.418-4.299,8.93-8.232,7.326-11.339c-0.539-1.043-1.245-2.498-2.395-3.88
	c5.053-1.871,9.233-4.179,10.583-6.927c0.683-1.39,1.24-2.679,1.696-3.883C127.96,696.717,168.719,710.088,165.167,742.031z
	 M98.491,680.156c-0.787,0.779-1.514,1.542-2.178,2.284l0.5-2.374C97.348,680.102,97.909,680.133,98.491,680.156z M114.702,621.648
	c-2.519,1.154-4.607,2.354-6.337,3.55l1.295-6.151C110.679,619.627,112.513,620.631,114.702,621.648z"/>
<path style="fill:#293646;" d="M1395.093,623.936c15.795,11.228-5.812,20.23-2.738,33.515c3.074,13.285,2.961,24.658-0.253,25.402
	c-3.214,0.744-6.444-10.279-9.459-23.578C1378.383,640.488,1388.934,619.558,1395.093,623.936z"/>
<path style="fill:#293646;" d="M1522.981,513.721c6.431,14.564-14.887,4.27-19.34,11.492c-4.453,7.222-3.776,16.554-6.642,14.787
	s-6.305-13.104-1.799-20.293C1501.566,509.551,1520.474,508.043,1522.981,513.721z"/>
<path style="fill:#13121E;" d="M419.105,572.923c-26.993,8.732-33.364,19.586-33.364,19.586s0.694,0.167,1.925,0.438
	c-1.124,0.561-1.687,0.952-1.687,0.952s0.524,0.777,1.47,2.096c-2.775,7-7.83,22.27-16.142,49.555
	c-3.503,11.499-21.921,20.555-45.521,27.705c-2.057-1.726-3.681-2.234-3.681-2.234s-1.124,1.61-2.638,4.071
	c-20.809,5.808-44.753,10.266-65.839,13.704c-0.73-0.099-1.147-0.088-1.147-0.088s-0.024,0.1-0.065,0.285
	c-6.635,1.075-12.974,2.05-18.823,2.932c-12.199,1.841-18.127-9.299-20.776-25.008c7.308,3.62,12.285,3.724,14.393,0.372
	c0.711-1.13,1.725-2.663,2.442-4.581c4.361,3.772,8.687,6.447,11.978,6.138c10.283-0.967,15.022-4.061,13.782-8.864
	c-1.24-4.803-3.358-14.974-20.722-19.948c-9.188-2.632-15.291-2.008-19.003-0.837c-1.951-0.763-3.604-1.033-4.762-1.111
	c0.019-5.138,0.166-10.268,0.377-15.205c7.19,4.491,12.259,5.237,14.654,2.233c2.399-3.009,7.803-9.135,0.019-20.063
	c-4.819-6.767-9.902-9.246-13.076-10.155c0.051-1.03,0.094-1.995,0.124-2.886c11.818,2.347,38.405,6.592,49.417-0.082
	c14.367-8.708,19.894-15.115,16.126-18.512c-3.768-3.397-11.017-10.978-38.01-2.246c-6.655,2.153-12.052,4.434-16.414,6.651
	c7.949-6.515,16.601-15.113,17.746-22.422c2.179-13.903,0.977-21.103-3.387-20.896c-4.364,0.207-13.458-0.028-22.646,21.475
	c-7.915,18.524-6.265,28.8-5.656,31.294c-2.209,2.13-3.008,3.484-3.008,3.484s1.172,0.283,3.185,0.711
	c-0.121,0.892-0.238,1.865-0.351,2.912c-0.198-0.01-0.309-0.007-0.309-0.007s-3.685,15.633-1.309,24.027
	c-1.539,32.858-2.182,78.198-4.16,78.66c-11.789,2.754-22.066,17.012-33.506,35.001c-1.523-0.013-2.835,0.11-3.948,0.302
	c-3.825-1.97-6.595-1.893-6.595-1.893s-2.974,12.62-1.855,21.272c-13.943,21.795-30.455,44.874-53.192,58.611
	c-50.311,30.396-137.083,23.156-137.083,23.156l-14.112,22.215l60.998,3.931l104.962-40.896l24.44,0.08l99.288-21.11
	c-1.659,7.693-3.914,20.419-1.636,24.162c3.334,5.48,6.017,6.782,7.744,3.846c1.378-2.342,4.065-6.598,3.692-14.468
	c0.117,0.039,0.233,0.081,0.354,0.103c5.775,1.042,9.363-0.104,10.39-3.253c1.026-3.149,3.468-9.736-3.97-15.556
	c-0.345-0.27-0.682-0.502-1.02-0.735l34.553-24.111c2.129,5.808,6.194,14.776,11.159,15.299c7.375,0.778,11.588-0.44,12.209-3.465
	c0.599-2.915,2.162-8.907-7.059-14.036c2.095-0.525,3.803-1.402,4.712-2.8c4.045-6.216,4.874-10.522,2.462-12.45
	c-2.412-1.928-7.3-6.291-16.714,0.61c-9.414,6.901-9.545,14.037-9.545,14.037s0.723,0.147,1.916,0.34
	c0.208,0.63,0.456,1.355,0.742,2.146l-20.142,7.077l18.524-52.233c4.483-0.972,6.509-3.103,5.908-6.308
	c-0.42-2.239-0.949-5.623-3.106-9.312c2.886-0.47,4.572-1.631,4.946-3.452c0.621-3.024,2.286-9.361-8.14-14.611
	c-0.085-0.043-0.165-0.075-0.25-0.116l23.553-5.116c-2.75,5.738-4.728,11.97-2.398,15.053c4.956,6.556,9.388,8.89,12.782,6.819
	c1.14-0.696,2.73-1.617,4.227-3.015c2.225,5.319,4.907,9.641,7.993,10.829c9.638,3.712,15.259,3.053,16.287-1.8
	c0.476-2.245,1.292-5.605,0.714-9.772c2.864,0.479,4.88-0.077,5.933-1.674c1.747-2.653,5.745-8.096-1.916-16.377
	c-4.352-4.704-8.543-6.443-11.354-7.071l16.129-3.503c8.149,7.778,25.69,22.904,33.744,17.432
	c10.683-7.258,15.059-14.429,12.751-20.663s-6.656-19.723-26.065-17.013c-2.245,0.313-4.294,0.773-6.176,1.331
	c3.992-16.976,9.838-42.527,11.916-55.119c7.475,9.976,25.385,31.67,38.976,30.459c17.616-1.569,26.62-5.821,26.139-12.192
	c-0.396-5.248-0.592-15.334-16.042-22.17c0.871-0.354,1.684-0.75,2.423-1.198c14.367-8.708,19.894-15.115,16.126-18.512
	C453.347,571.771,446.098,564.191,419.105,572.923z M184.456,734.006c0.143,0.375,0.291,0.757,0.448,1.148
	c-0.346-0.134-0.687-0.261-1.024-0.385L184.456,734.006z M245.054,788.231c-28.422,9.125-88.972,15.269-114.849,17.578
	l34.224-45.297c5.794,3.085,9.92,3.321,12.01,0.699c0.806-1.011,1.949-2.375,2.819-4.153c4.155,4.234,8.355,7.393,11.724,7.512
	c10.523,0.371,15.568-2.038,14.66-6.878c-0.42-2.239-0.95-5.623-3.106-9.312c2.886-0.47,4.572-1.631,4.946-3.452
	c0.621-3.024,2.286-9.361-8.14-14.611c-3.884-1.955-7.209-2.747-9.855-2.972l15.162-20.068l9.239-2.007
	c-1.856,9.985-3.247,24.611,3.29,29.109c10.232,7.041,17.547,8.705,21.142,4.917c3.595-3.788,11.667-11.433,0.874-27.269
	c-3.093-4.539-6.307-7.833-9.319-10.228l21.105-4.584c-0.96,7.364-1.319,17.248,3.051,19.983c7.208,4.511,12.289,5.263,14.688,2.254
	c0.806-1.011,1.949-2.375,2.819-4.153c4.155,4.234,8.355,7.393,11.724,7.512c1.704,0.06,3.249,0.039,4.664-0.045
	C273.819,730.452,278.741,777.416,245.054,788.231z M277.185,693.394c-1.137-0.44-2.231-0.827-3.275-1.16l2.609-0.567
	C276.725,692.221,276.947,692.799,277.185,693.394z M343.256,683.334c-2.293-2.011-4.439-3.568-6.419-4.767l6.762-1.469
	C343.474,678.382,343.292,680.676,343.256,683.334z"/>
<path style="fill:#13121E;" d="M1420.128,485.687c3.624,28.138,13.123,36.395,13.123,36.395s0.292-0.651,0.784-1.811
	c0.345,1.208,0.626,1.833,0.626,1.833s0.86-0.372,2.33-1.06c6.37,4.014,20.453,11.788,45.746,24.971
	c10.659,5.556,16.178,25.325,18.87,49.837c-2.075,1.705-2.873,3.208-2.873,3.208s1.376,1.4,3.517,3.341
	c1.886,21.521,1.869,45.878,1.374,67.236c-0.232,0.7-0.297,1.111-0.297,1.111s0.094,0.042,0.268,0.116
	c-0.162,6.72-0.369,13.13-0.576,19.041c-0.432,12.33-12.471,16.11-28.4,15.828c4.901-6.518,5.918-11.392,3.01-14.08
	c-0.98-0.906-2.301-2.185-4.055-3.242c4.509-3.593,7.933-7.354,8.234-10.647c0.938-10.285-1.231-15.513-6.181-15.176
	c-4.949,0.337-15.336,0.55-23.415,16.704c-4.275,8.548-4.783,14.662-4.314,18.526c-1.108,1.778-1.678,3.352-1.967,4.477
	c-5.047-0.962-10.063-2.05-14.877-3.164c5.735-6.242,7.401-11.088,4.887-13.994c-2.517-2.911-7.546-9.348-19.718-3.705
	c-7.537,3.494-10.908,8.035-12.385,10.988c-1.003-0.24-1.944-0.459-2.814-0.652c4.478-11.186,13.536-36.54,8.999-48.591
	c-5.92-15.722-11.203-22.332-15.234-19.253c-4.032,3.08-12.815,8.812-9.191,36.95c0.893,6.937,2.145,12.661,3.522,17.356
	c-4.943-9.011-11.806-19.095-18.78-21.564c-13.266-4.697-20.564-4.838-21.163-0.51c-0.599,4.328-2.5,13.224,16.949,26.206
	c16.755,11.184,27.159,11.45,29.722,11.309c1.688,2.563,2.872,3.597,2.872,3.597s0.494-1.1,1.283-3
	c0.854,0.283,1.79,0.576,2.798,0.88c-0.046,0.193-0.064,0.303-0.064,0.303s14.689,6.494,23.377,5.701
	c32.016,7.549,76.466,16.512,76.557,18.541c0.541,12.094,12.669,24.816,28.249,39.366c-0.292,1.495-0.413,2.807-0.429,3.936
	c-2.639,3.398-3.072,6.135-3.072,6.135s11.859,5.242,20.569,5.731c18.863,17.71,38.515,38.181,47.841,63.055
	c20.636,55.039-2.424,139.004-2.424,139.004l19.244,17.953l15.071-59.237l-20.916-110.689l4.569-24.009l-2.509-101.476
	c7.257,3.044,19.352,7.599,23.45,6.048c6-2.271,7.772-4.669,5.203-6.905c-2.049-1.784-5.739-5.208-13.544-6.288
	c0.06-0.108,0.123-0.214,0.167-0.329c2.085-5.485,1.618-9.223-1.289-10.81c-2.907-1.587-8.933-5.198-16.021,1.044
	c-0.329,0.29-0.619,0.579-0.91,0.867l-17.353-38.395c6.101-1.026,15.662-3.374,17.089-8.159c2.12-7.107,1.696-11.471-1.162-12.638
	c-2.755-1.124-8.358-3.762-15.094,4.36c-0.131-2.156-0.679-3.996-1.886-5.147c-5.367-5.118-9.448-6.724-11.785-4.708
	c-2.338,2.016-7.525,6.02-2.471,16.541c5.054,10.521,12.045,11.961,12.045,11.961s0.277-0.684,0.687-1.821
	c0.657-0.089,1.416-0.199,2.246-0.335l3.256,21.1l-47.941-27.805c-0.131-4.585-1.854-6.968-5.115-6.966
	c-2.278,0.001-5.702-0.1-9.724,1.342c0.069-2.923-0.763-4.794-2.485-5.496c-2.859-1.166-8.782-3.967-15.857,5.317
	c-0.058,0.076-0.104,0.149-0.16,0.224l-0.701-24.091c5.135,3.757,10.897,6.847,14.356,5.123c7.355-3.667,10.463-7.595,9.051-11.311
	c-0.474-1.248-1.088-2.981-2.187-4.709c5.638-1.21,10.378-3.052,12.113-5.867c5.42-8.792,5.805-14.438,1.223-16.341
	c-2.12-0.88-5.272-2.3-9.474-2.497c0.998-2.727,0.821-4.811-0.556-6.139c-2.287-2.205-6.903-7.135-16.45-1.126
	c-5.424,3.414-7.903,7.214-9.036,9.862l-0.48-16.498c9.143-6.581,27.234-21.044,23.335-29.966
	c-5.172-11.835-11.417-17.454-17.968-16.331c-6.551,1.123-20.61,2.919-21.512,22.495c-0.104,2.264-0.029,4.363,0.173,6.315
	c-15.954-7.043-39.996-17.484-51.992-21.84c11.179-5.514,35.795-19.134,37.102-32.717c1.694-17.604-0.832-27.237-7.182-27.934
	c-5.232-0.575-15.182-2.235-24.74,11.696c-0.188-0.921-0.428-1.793-0.732-2.602c-5.92-15.722-11.203-22.332-15.234-19.253
	C1425.287,451.816,1416.504,457.549,1420.128,485.687z M1535.357,745.937c0.395-0.072,0.797-0.147,1.211-0.229
	c-0.195,0.316-0.383,0.627-0.567,0.936L1535.357,745.937z M1599.792,696.333c3.748,29.615-1.337,90.263-3.822,116.124
	l-38.238-41.964c4.097-5.128,5.087-9.141,2.894-11.677c-0.846-0.978-1.977-2.352-3.564-3.534c4.925-3.306,8.802-6.855,9.538-10.144
	c2.298-10.275,0.857-15.677-4.067-15.674c-2.278,0.001-5.701-0.1-9.724,1.342c0.069-2.923-0.763-4.794-2.485-5.496
	c-2.859-1.166-8.782-3.967-15.857,5.317c-2.636,3.458-4.024,6.581-4.732,9.141l-16.94-18.591l-0.275-9.451
	c9.474,3.659,23.595,7.713,29.217,2.114c8.801-8.764,11.78-15.649,8.717-19.879c-3.063-4.23-9.095-13.569-26.644-5.87
	c-5.03,2.207-8.858,4.761-11.766,7.281l-0.628-21.588c7.062,2.296,16.712,4.465,20.203,0.672c5.758-6.257,7.432-11.113,4.914-14.024
	c-0.846-0.978-1.977-2.352-3.564-3.534c4.925-3.306,8.802-6.855,9.538-10.144c0.372-1.664,0.636-3.187,0.813-4.593
	C1548.283,657.442,1595.351,661.232,1599.792,696.333z M1512.474,647.325c-0.641,1.037-1.223,2.041-1.742,3.007l-0.078-2.669
	C1511.236,647.562,1511.845,647.45,1512.474,647.325z M1514.724,580.53c-2.398,1.884-4.323,3.708-5.865,5.434l-0.201-6.917
	C1509.896,579.406,1512.118,580.007,1514.724,580.53z"/>
<path style="fill:#13121E;" d="M539.06,702.559c-12.625,4.907-15.362,10.256-15.362,10.256s0.335,0.061,0.929,0.156
	c-0.52,0.298-0.778,0.5-0.778,0.5s0.271,0.356,0.758,0.958c-1.13,3.413-3.117,10.831-6.326,24.065
	c-1.352,5.577-9.881,10.402-20.932,14.462c-1.028-0.766-1.816-0.963-1.816-0.963s-0.491,0.798-1.145,2.013
	c-9.758,3.342-21.047,6.128-31.002,8.349c-0.351-0.027-0.549-0.01-0.549-0.01s-0.009,0.049-0.023,0.138
	c-3.133,0.696-6.127,1.335-8.89,1.917c-5.764,1.214-8.896-3.932-10.593-11.346c3.583,1.524,5.958,1.436,6.87-0.22
	c0.308-0.558,0.749-1.317,1.038-2.251c2.182,1.678,4.318,2.833,5.879,2.595c4.874-0.745,7.048-2.35,6.324-4.605
	s-2.014-7.044-10.427-8.936c-4.452-1.001-7.344-0.535-9.081,0.126c-0.951-0.31-1.746-0.393-2.3-0.398
	c-0.133-2.449-0.204-4.899-0.24-7.258c3.551,1.942,5.987,2.158,7.046,0.66c1.06-1.501,3.467-4.57-0.545-9.563
	c-2.484-3.092-4.975-4.134-6.513-4.479c-0.004-0.492-0.01-0.954-0.021-1.379c5.698,0.792,18.487,2.082,23.551-1.403
	c6.607-4.547,9.065-7.753,7.175-9.268c-1.89-1.515-5.554-4.928-18.179-0.021c-3.113,1.21-5.622,2.446-7.64,3.623
	c3.609-3.325,7.495-7.661,7.839-11.177c0.655-6.687-0.117-10.085-2.191-9.866c-2.074,0.219-6.415,0.358-10.201,10.861
	c-3.261,9.048-2.191,13.9-1.832,15.072c-0.994,1.076-1.338,1.744-1.338,1.744s0.567,0.103,1.537,0.251
	c-0.033,0.428-0.062,0.896-0.087,1.398c-0.095,0.001-0.148,0.005-0.148,0.005s-1.325,7.553,0.039,11.488
	c0.174,15.703,1.119,37.332,0.189,37.606c-5.543,1.638-10.048,8.718-15.004,17.607c-0.726,0.036-1.348,0.13-1.873,0.253
	c-1.877-0.833-3.195-0.72-3.195-0.72s-1.069,6.097-0.297,10.19c-6.044,10.773-13.277,22.229-23.735,29.404
	c-23.14,15.877-64.699,14.82-64.699,14.82l-6.113,10.978l29.182,0.19l48.899-22.39l11.651-0.636l46.741-12.802
	c-0.578,3.712-1.302,9.84-0.113,11.562c1.741,2.52,3.055,3.066,3.797,1.619c0.592-1.154,1.755-3.257,1.361-6.998
	c0.057,0.015,0.113,0.032,0.172,0.039c2.781,0.337,4.46-0.308,4.862-1.837c0.402-1.529,1.384-4.736-2.322-7.305
	c-0.172-0.119-0.339-0.22-0.506-0.322l15.804-12.446c1.175,2.71,3.36,6.871,5.741,6.984c3.537,0.167,5.511-0.53,5.723-1.988
	c0.205-1.406,0.785-4.305-3.752-6.495c0.984-0.308,1.774-0.773,2.169-1.465c1.756-3.074,2.033-5.15,0.83-6.002
	c-1.203-0.852-3.653-2.797-7.949,0.752s-4.162,6.954-4.162,6.954s0.349,0.05,0.922,0.109c0.116,0.294,0.255,0.633,0.413,1.003
	l-9.405,3.929l7.387-25.407c2.11-0.587,3.017-1.659,2.642-3.17c-0.262-1.056-0.608-2.654-1.737-4.352
	c1.363-0.303,2.134-0.904,2.262-1.782c0.213-1.459,0.831-4.525-4.283-6.739c-0.042-0.018-0.081-0.031-0.122-0.049l11.085-3.088
	c-1.152,2.811-1.923,5.836-0.727,7.241c2.543,2.988,4.72,3.978,6.28,2.897c0.524-0.363,1.257-0.846,1.931-1.554
	c1.207,2.474,2.605,4.46,4.108,4.941c4.696,1.503,7.357,1.034,7.713-1.307c0.165-1.083,0.461-2.707,0.071-4.677
	c1.378,0.149,2.324-0.171,2.781-0.962c0.759-1.313,2.515-4.017-1.365-7.753c-2.204-2.122-4.25-2.835-5.607-3.057l7.591-2.115
	c4.099,3.482,12.877,10.208,16.564,7.377c4.891-3.754,6.779-7.293,5.507-10.201s-3.717-9.217-12.893-7.389
	c-1.061,0.211-2.025,0.487-2.907,0.805c1.434-8.201,3.515-20.541,4.158-26.6c3.838,4.548,12.973,14.394,19.418,13.442
	c8.353-1.234,12.527-3.509,12.122-6.532c-0.334-2.49-0.706-7.292-8.258-10.124c0.405-0.193,0.782-0.404,1.122-0.638
	c6.607-4.547,9.065-7.753,7.175-9.268C555.349,701.065,551.685,697.652,539.06,702.559z M431.666,785.813
	c0.078,0.175,0.16,0.353,0.245,0.535c-0.169-0.054-0.335-0.106-0.499-0.155L431.666,785.813z M462.045,809.985
	c-13.295,5.134-41.985,9.734-54.255,11.548l15.062-22.535c2.846,1.311,4.82,1.309,5.743,0.002c0.356-0.504,0.863-1.186,1.229-2.057
	c2.097,1.903,4.186,3.293,5.795,3.257c5.026-0.114,7.364-1.401,6.798-3.683c-0.262-1.056-0.608-2.654-1.737-4.352
	c1.363-0.304,2.134-0.903,2.262-1.782c0.213-1.459,0.831-4.525-4.283-6.739c-1.905-0.825-3.512-1.11-4.779-1.145l6.673-9.983
	l4.348-1.212c-0.609,4.81-0.868,11.82,2.371,13.783c5.071,3.073,8.604,3.664,10.213,1.76s5.245-5.771-0.336-13.021
	c-1.6-2.078-3.222-3.559-4.724-4.618l9.933-2.767c-0.254,3.536-0.152,8.257,2.006,9.44c3.56,1.951,6.003,2.169,7.063,0.669
	c0.356-0.504,0.863-1.186,1.229-2.057c2.097,1.903,4.186,3.293,5.795,3.257c0.814-0.018,1.55-0.071,2.222-0.15
	C474.161,781.653,477.803,803.901,462.045,809.985z M474.742,763.897c-0.554-0.178-1.086-0.333-1.593-0.462l1.228-0.342
	C474.49,763.35,474.612,763.62,474.742,763.897z M505.956,757.278c-1.148-0.895-2.214-1.578-3.191-2.095l3.182-0.887
	C505.923,754.912,505.9,756.01,505.956,757.278z"/>
</svg>
