<?xml version="1.0" encoding="iso-8859-1"?>
<!-- Generator: Adobe Illustrator 26.0.3, SVG Export Plug-In . SVG Version: 6.00 Build 0)  -->
<svg version="1.1" xmlns="http://www.w3.org/2000/svg" xmlns:xlink="http://www.w3.org/1999/xlink" x="0px" y="0px"
	 viewBox="0 0 1564 800" style="enable-background:new 0 0 1564 800;" xml:space="preserve">
<g id="&#x421;&#x43B;&#x43E;&#x439;_1">
	
		<radialGradient id="SVGID_1_" cx="855.515" cy="503.2895" r="2781.5769" fx="839.2859" fy="962.8455" gradientTransform="matrix(-1 -0.0052 4.754206e-04 -0.0916 1710.7791 553.8106)" gradientUnits="userSpaceOnUse">
		<stop  offset="0.1444" style="stop-color:#000000"/>
		<stop  offset="0.1535" style="stop-color:#000000"/>
		<stop  offset="0.2697" style="stop-color:#000000"/>
		<stop  offset="0.711" style="stop-color:#464776"/>
		<stop  offset="0.9301" style="stop-color:#6668AC"/>
	</radialGradient>
	<rect x="-295.71" y="498" style="opacity:0.7;fill:url(#SVGID_1_);" width="2247.301" height="135.175"/>
	<g>
		<path style="fill:#282844;" d="M538.196,605.062c3.573,0.231,6.925,0.071,9.878-0.404c3.989,1.844,9.231,3.148,14.926,3.514
			c6.63,0.427,12.493-0.508,16.4-2.324c0.017,0.001,0.033,0.003,0.05,0.004c12.015,0.781,15.653-0.169,15.389-5.551
			c-0.263-5.374-7.931-6.781-15.456-9.799c-7.757-3.11-6.052-4.362-10.955-5.622c-3.252-1.053-7.728-2.447-11.722-2.725
			c-5.246-0.365-10.055,2.798-13.792,3.907c-7.49-4.265-11.668,2.83-13.584,2.632c-12.306-1.27-14.028,4.098-13.823,9.56
			C515.714,603.727,525.913,604.268,538.196,605.062z"/>
		<path style="fill:#282844;" d="M568.172,605.811c3.529,0.229,6.838,0.069,9.752-0.403c3.947,1.832,9.129,3.127,14.754,3.49
			c6.549,0.423,12.334-0.507,16.183-2.313c0.017,0.001,0.033,0.003,0.05,0.004c11.868,0.775,15.456-0.171,15.172-5.52
			c-0.284-5.341-7.862-6.738-15.307-9.737c-7.674-3.09-5.996-4.334-10.843-5.586c-3.216-1.046-7.642-2.431-11.587-2.706
			c-5.182-0.362-9.916,2.783-13.6,3.886c-7.415-4.237-11.508,2.815-13.4,2.619c-12.156-1.26-13.831,4.075-13.604,9.504
			C545.969,604.487,556.041,605.024,568.172,605.811z"/>
		<path style="fill:#282844;" d="M612.79,601.152c3.461,0.23,6.703,0.075,9.556-0.389c3.881,1.816,8.97,3.102,14.487,3.467
			c6.423,0.425,12.088-0.489,15.85-2.271c0.016,0.001,0.032,0.003,0.049,0.004c11.641,0.778,15.153-0.154,14.838-5.445
			c-0.314-5.283-7.754-6.673-15.073-9.646c-7.544-3.064-5.908-4.293-10.668-5.535c-3.16-1.037-7.509-2.412-11.378-2.688
			c-5.082-0.363-9.702,2.744-13.306,3.831c-7.297-4.198-11.261,2.773-13.118,2.577c-11.924-1.258-13.529,4.017-13.27,9.386
			C591.018,599.82,600.894,600.361,612.79,601.152z"/>
		<path style="fill:#282844;" d="M641.814,601.913c3.419,0.228,6.62,0.074,9.436-0.388c3.841,1.804,8.873,3.082,14.323,3.443
			c6.346,0.421,11.937-0.488,15.644-2.26c0.016,0.001,0.032,0.003,0.048,0.004c11.501,0.771,14.965-0.155,14.631-5.415
			c-0.334-5.252-7.688-6.632-14.931-9.585c-7.465-3.044-5.854-4.266-10.561-5.5c-3.126-1.031-7.427-2.396-11.249-2.669
			c-5.021-0.359-9.57,2.729-13.124,3.81c-7.226-4.171-11.109,2.758-12.943,2.564c-11.781-1.248-13.343,3.995-13.062,9.332
			C620.307,600.593,630.062,601.129,641.814,601.913z"/>
		<path style="fill:#282844;" d="M405.94,601.63c5.349,0.156,10.371-0.196,14.799-0.945c5.927,2.266,13.733,3.766,22.224,4.009
			c9.874,0.283,18.617-1.194,24.458-3.746c0.025,0.001,0.049,0.002,0.074,0.003c17.82,0.527,23.227-0.873,22.928-7.927
			c-0.299-7.041-11.637-8.582-22.752-12.246c-11.471-3.782-8.913-5.493-16.181-6.958c-4.821-1.258-11.461-2.919-17.41-3.13
			c-7.821-0.278-15.069,4.073-20.679,5.68c-11.124-5.331-17.537,4.192-20.407,4.007c-18.46-1.191-21.171,5.976-20.987,13.194
			C372.193,600.804,387.523,601.095,405.94,601.63z"/>
		<path style="fill:#282844;" d="M450.716,601.366c5.251,0.154,10.178-0.194,14.519-0.936c5.832,2.245,13.504,3.732,21.841,3.973
			c9.694,0.281,18.267-1.182,23.985-3.71c0.024,0.001,0.049,0.002,0.073,0.003c17.497,0.523,22.797-0.863,22.458-7.853
			c-0.339-6.976-11.481-8.503-22.416-12.134c-11.285-3.747-8.786-5.442-15.93-6.894c-4.741-1.246-11.27-2.892-17.111-3.101
			c-7.679-0.276-14.765,4.036-20.261,5.628c-10.953-5.281-17.185,4.153-20.002,3.97c-18.124-1.18-20.737,5.919-20.508,13.07
			C417.592,600.546,432.638,600.835,450.716,601.366z"/>
	</g>
	<g>
		
			<linearGradient id="SVGID_00000050653635902703190150000018067317843372236205_" gradientUnits="userSpaceOnUse" x1="534.581" y1="515.3435" x2="533.1923" y2="803.4072">
			<stop  offset="0" style="stop-color:#6668AC"/>
			<stop  offset="0.0856" style="stop-color:#55568F"/>
			<stop  offset="0.2701" style="stop-color:#292A45"/>
			<stop  offset="0.4295" style="stop-color:#000000"/>
		</linearGradient>
		
			<ellipse style="fill:url(#SVGID_00000050653635902703190150000018067317843372236205_);" cx="533.717" cy="694.535" rx="609.961" ry="109.226"/>
	</g>
	<g>
		
			<linearGradient id="SVGID_00000085965068944845136110000014890628076333429121_" gradientUnits="userSpaceOnUse" x1="507.581" y1="520.3435" x2="506.1924" y2="808.4072">
			<stop  offset="0" style="stop-color:#6668AC"/>
			<stop  offset="0.0856" style="stop-color:#55568F"/>
			<stop  offset="0.2701" style="stop-color:#292A45"/>
			<stop  offset="0.4295" style="stop-color:#000000"/>
		</linearGradient>
		
			<ellipse style="fill:url(#SVGID_00000085965068944845136110000014890628076333429121_);" cx="506.717" cy="699.535" rx="609.961" ry="109.226"/>
	</g>
	<g>
		
			<linearGradient id="SVGID_00000106840977086378718570000001548121613341442713_" gradientUnits="userSpaceOnUse" x1="-22.2597" y1="525.4728" x2="-23.5588" y2="794.9539">
			<stop  offset="0.0663" style="stop-color:#6668AC"/>
			<stop  offset="0.1387" style="stop-color:#55568F"/>
			<stop  offset="0.2947" style="stop-color:#292A45"/>
			<stop  offset="0.4295" style="stop-color:#000000"/>
		</linearGradient>
		<path style="fill:url(#SVGID_00000106840977086378718570000001548121613341442713_);" d="M564.61,695.417
			c0,55.153-263.117,99.864-587.689,99.864s-587.689-44.711-587.689-99.864c0-55.153,264.098-125.079,587.689-99.864
			C308.843,621.417,564.61,640.264,564.61,695.417z"/>
	</g>
	
		<linearGradient id="SVGID_00000022524373579916146350000004211695420778482051_" gradientUnits="userSpaceOnUse" x1="-553.6395" y1="224.6462" x2="-558.8666" y2="171.7492" gradientTransform="matrix(-1.3606 0.0318 -0.0184 -0.7887 790.5323 779.7917)">
		<stop  offset="0" style="stop-color:#6668AC"/>
		<stop  offset="0.0457" style="stop-color:#575892"/>
		<stop  offset="0.1249" style="stop-color:#40416B"/>
		<stop  offset="0.2099" style="stop-color:#2C2D4A"/>
		<stop  offset="0.3005" style="stop-color:#1C1C2F"/>
		<stop  offset="0.3988" style="stop-color:#0F101A"/>
		<stop  offset="0.5084" style="stop-color:#07070B"/>
		<stop  offset="0.6387" style="stop-color:#020203"/>
		<stop  offset="0.8423" style="stop-color:#000000"/>
	</linearGradient>
	<path style="opacity:0.63;fill:url(#SVGID_00000022524373579916146350000004211695420778482051_);" d="M1503.008,619.119
		c8.392-0.196,16.301-0.9,23.3-1.981c9.298,1.969,21.615,3.013,35.099,2.698c15.737-0.368,29.789-2.514,39.269-5.604
		c0.04-0.001,0.08-0.001,0.12-0.002c28.755-0.672,37.592-2.532,37.417-10.003c-0.175-7.472-18.527-8.284-36.357-11.363
		c-18.334-3.166-14.16-5.171-25.788-6.183c-7.687-0.973-18.257-2.234-27.744-2.012c-12.437,0.291-24.052,5.413-32.962,7.513
		c-17.4-4.782-27.675,5.658-32.163,5.67c-28.751,0.073-33.069,7.712-32.894,15.184
		C1450.479,620.508,1474.253,619.791,1503.008,619.119z"/>
	
		<linearGradient id="SVGID_00000145754904525278929960000004143580743097871034_" gradientUnits="userSpaceOnUse" x1="1030.6154" y1="254.4401" x2="1031.6508" y2="198.3057" gradientTransform="matrix(-0.9994 0.0359 -0.0283 -0.7884 976.5258 789.2178)">
		<stop  offset="0" style="stop-color:#6668AC"/>
		<stop  offset="0.0427" style="stop-color:#585994"/>
		<stop  offset="0.1231" style="stop-color:#40426D"/>
		<stop  offset="0.2091" style="stop-color:#2C2D4B"/>
		<stop  offset="0.3006" style="stop-color:#1C1D30"/>
		<stop  offset="0.3993" style="stop-color:#10101A"/>
		<stop  offset="0.5089" style="stop-color:#07070B"/>
		<stop  offset="0.6378" style="stop-color:#020203"/>
		<stop  offset="0.8343" style="stop-color:#000000"/>
	</linearGradient>
	<path style="fill:url(#SVGID_00000145754904525278929960000004143580743097871034_);" d="M-92.112,663.431
		c6.51-0.234,12.636-1.003,18.048-2.166c7.257,2.049,16.839,3.113,27.299,2.737c12.209-0.439,23.074-2.75,30.372-6.043
		c0.031-0.001,0.062-0.001,0.093-0.003c22.308-0.802,29.132-2.794,28.848-10.683c-0.284-7.889-14.546-8.688-28.448-11.882
		c-14.295-3.284-11.094-5.415-20.141-6.446c-5.986-1.003-14.216-2.301-21.576-2.036c-9.649,0.347-18.564,5.793-25.439,8.039
		c-13.602-4.994-21.371,6.063-24.855,6.09c-22.317,0.169-25.517,8.249-25.234,16.138
		C-132.861,665.065-114.42,664.233-92.112,663.431z"/>
	
		<linearGradient id="SVGID_00000000205268686385624200000014547992476283884416_" gradientUnits="userSpaceOnUse" x1="563.0234" y1="251.3656" x2="564.0588" y2="195.2311" gradientTransform="matrix(1.771 -0.0636 -0.0283 -0.7884 -1186.9763 866.9694)">
		<stop  offset="0" style="stop-color:#6668AC"/>
		<stop  offset="0.0427" style="stop-color:#585994"/>
		<stop  offset="0.1231" style="stop-color:#40426D"/>
		<stop  offset="0.2091" style="stop-color:#2C2D4B"/>
		<stop  offset="0.3006" style="stop-color:#1C1D30"/>
		<stop  offset="0.3993" style="stop-color:#10101A"/>
		<stop  offset="0.5089" style="stop-color:#07070B"/>
		<stop  offset="0.6378" style="stop-color:#020203"/>
		<stop  offset="0.8343" style="stop-color:#000000"/>
	</linearGradient>
	<path style="fill:url(#SVGID_00000000205268686385624200000014547992476283884416_);" d="M-137.557,667.491
		c-11.537,0.415-22.447,0.258-32.134-0.363c-12.63,2.764-29.471,4.777-48.008,5.443c-21.635,0.778-41.082-0.444-54.317-3
		c-0.055,0.002-0.109,0.005-0.165,0.007c-39.534,1.421-51.799,0.115-52.082-7.774c-0.284-7.889,24.861-10.104,49.13-14.67
		c24.955-4.695,19.082-6.499,34.979-8.427c10.488-1.595,24.913-3.707,37.956-4.176c17.099-0.615,33.407,3.925,45.79,5.479
		c23.559-6.329,38.4,3.915,44.563,3.595c39.485-2.052,45.95,5.681,46.233,13.57C-65.327,665.065-98.023,666.07-137.557,667.491z"/>
	
		<linearGradient id="SVGID_00000024716300156170028140000009977370269683902380_" gradientUnits="userSpaceOnUse" x1="-644.4658" y1="224.9082" x2="-649.6929" y2="172.0112" gradientTransform="matrix(-1.3606 0.0318 -0.0184 -0.7887 790.5323 779.7917)">
		<stop  offset="0" style="stop-color:#6668AC"/>
		<stop  offset="0.0457" style="stop-color:#575892"/>
		<stop  offset="0.1249" style="stop-color:#40416B"/>
		<stop  offset="0.2099" style="stop-color:#2C2D4A"/>
		<stop  offset="0.3005" style="stop-color:#1C1C2F"/>
		<stop  offset="0.3988" style="stop-color:#0F101A"/>
		<stop  offset="0.5084" style="stop-color:#07070B"/>
		<stop  offset="0.6387" style="stop-color:#020203"/>
		<stop  offset="0.8423" style="stop-color:#000000"/>
	</linearGradient>
	<path style="opacity:0.63;fill:url(#SVGID_00000024716300156170028140000009977370269683902380_);" d="M1626.581,616.025
		c8.392-0.196,16.301-0.9,23.3-1.981c9.298,1.969,21.615,3.013,35.099,2.698c15.737-0.368,29.789-2.514,39.269-5.604
		c0.04-0.001,0.08-0.001,0.12-0.002c28.755-0.672,37.592-2.532,37.417-10.003c-0.175-7.472-18.527-8.284-36.357-11.363
		c-18.334-3.166-14.16-5.171-25.788-6.183c-7.687-0.973-18.257-2.234-27.743-2.012c-12.438,0.291-24.052,5.413-32.962,7.513
		c-17.401-4.782-27.675,5.658-32.163,5.67c-28.75,0.073-33.069,7.712-32.894,15.184
		C1574.052,617.413,1597.826,616.697,1626.581,616.025z"/>
	
		<linearGradient id="SVGID_00000178886724458530659340000000129942749698046859_" gradientUnits="userSpaceOnUse" x1="-487.0195" y1="218.2224" x2="-492.2467" y2="165.3255" gradientTransform="matrix(-1.3606 0.0318 -0.0184 -0.7887 790.5323 779.7917)">
		<stop  offset="0" style="stop-color:#6668AC"/>
		<stop  offset="0.0457" style="stop-color:#575892"/>
		<stop  offset="0.1249" style="stop-color:#40416B"/>
		<stop  offset="0.2099" style="stop-color:#2C2D4A"/>
		<stop  offset="0.3005" style="stop-color:#1C1C2F"/>
		<stop  offset="0.3988" style="stop-color:#0F101A"/>
		<stop  offset="0.5084" style="stop-color:#07070B"/>
		<stop  offset="0.6387" style="stop-color:#020203"/>
		<stop  offset="0.8423" style="stop-color:#000000"/>
	</linearGradient>
	<path style="opacity:0.63;fill:url(#SVGID_00000178886724458530659340000000129942749698046859_);" d="M1412.484,626.304
		c8.392-0.196,16.301-0.9,23.3-1.981c9.298,1.969,21.615,3.013,35.099,2.698c15.737-0.368,29.789-2.514,39.269-5.604
		c0.04-0.001,0.08-0.001,0.12-0.002c28.755-0.672,37.592-2.532,37.417-10.003c-0.175-7.472-18.527-8.284-36.357-11.363
		c-18.334-3.166-14.16-5.171-25.788-6.183c-7.687-0.973-18.257-2.234-27.744-2.012c-12.437,0.291-24.052,5.413-32.962,7.513
		c-17.401-4.782-27.675,5.658-32.163,5.67c-28.75,0.073-33.069,7.712-32.894,15.184S1383.729,626.976,1412.484,626.304z"/>
	<g>
		<path style="fill:#1E1E33;" d="M143.196,661.068c3.573,0.289,6.925,0.088,9.878-0.505c3.989,2.31,9.231,3.943,14.926,4.402
			c6.63,0.534,12.493-0.637,16.4-2.911c0.017,0.001,0.033,0.003,0.05,0.005c12.015,0.979,15.653-0.212,15.389-6.953
			c-0.263-6.73-7.931-8.493-15.456-12.273c-7.757-3.896-6.052-5.463-10.955-7.041c-3.252-1.319-7.728-3.065-11.722-3.413
			c-5.246-0.457-10.055,3.505-13.792,4.894c-7.49-5.342-11.668,3.545-13.584,3.297c-12.306-1.591-14.028,5.133-13.823,11.974
			C120.714,659.395,130.913,660.074,143.196,661.068z"/>
		<path style="fill:#1E1E33;" d="M173.172,662.006c3.529,0.287,6.838,0.086,9.752-0.504c3.947,2.295,9.129,3.917,14.754,4.372
			c6.549,0.53,12.334-0.635,16.183-2.897c0.017,0.001,0.033,0.003,0.05,0.005c11.868,0.97,15.456-0.214,15.172-6.914
			c-0.284-6.689-7.862-8.44-15.307-12.195c-7.674-3.87-5.996-5.429-10.843-6.996c-3.216-1.31-7.642-3.045-11.587-3.39
			c-5.182-0.453-9.916,3.486-13.6,4.867c-7.415-5.307-11.508,3.526-13.4,3.28c-12.156-1.578-13.831,5.104-13.604,11.904
			C150.969,660.348,161.041,661.02,173.172,662.006z"/>
		<path style="fill:#1E1E33;" d="M217.79,656.17c3.461,0.288,6.703,0.094,9.556-0.487c3.881,2.274,8.97,3.885,14.487,4.342
			c6.423,0.532,12.088-0.613,15.85-2.845c0.016,0.001,0.032,0.003,0.049,0.005c11.641,0.974,15.153-0.193,14.838-6.82
			c-0.314-6.617-7.754-8.358-15.074-12.081c-7.544-3.837-5.908-5.377-10.668-6.933c-3.16-1.299-7.509-3.021-11.378-3.366
			c-5.082-0.454-9.702,3.436-13.306,4.798c-7.297-5.258-11.261,3.473-13.118,3.228c-11.924-1.576-13.529,5.031-13.27,11.756
			C196.018,654.503,205.894,655.18,217.79,656.17z"/>
		<path style="fill:#1E1E33;" d="M246.814,657.123c3.419,0.286,6.621,0.092,9.436-0.486c3.841,2.26,8.873,3.86,14.323,4.313
			c6.346,0.528,11.937-0.612,15.644-2.831c0.016,0.001,0.032,0.003,0.048,0.005c11.501,0.966,14.965-0.195,14.631-6.782
			c-0.334-6.578-7.688-8.306-14.931-12.005c-7.465-3.813-5.854-5.343-10.561-6.889c-3.126-1.291-7.427-3.001-11.249-3.343
			c-5.021-0.45-9.57,3.418-13.124,4.772c-7.226-5.225-11.109,3.455-12.943,3.212c-11.781-1.563-13.343,5.004-13.062,11.688
			C225.307,655.47,235.062,656.141,246.814,657.123z"/>
		<path style="fill:#1E1E33;" d="M10.94,656.769c5.349,0.195,10.371-0.246,14.799-1.184c5.927,2.838,13.733,4.717,22.224,5.022
			c9.874,0.355,18.617-1.495,24.458-4.692c0.025,0.001,0.05,0.003,0.074,0.004c17.82,0.66,23.227-1.093,22.928-9.929
			c-0.299-8.819-11.637-10.749-22.752-15.338c-11.471-4.737-8.913-6.88-16.181-8.714c-4.821-1.575-11.461-3.655-17.41-3.92
			c-7.821-0.349-15.069,5.102-20.679,7.115c-11.124-6.677-17.537,5.251-20.407,5.019c-18.46-1.491-21.171,7.485-20.987,16.525
			C-22.807,655.735-7.477,656.099,10.94,656.769z"/>
		<path style="fill:#1E1E33;" d="M55.716,656.439c5.251,0.193,10.178-0.243,14.519-1.172c5.832,2.812,13.504,4.674,21.841,4.977
			c9.694,0.352,18.267-1.48,23.985-4.647c0.024,0.001,0.049,0.003,0.073,0.004c17.497,0.656,22.797-1.081,22.458-9.836
			c-0.339-8.738-11.481-10.651-22.416-15.198c-11.285-4.693-8.786-6.816-15.93-8.634c-4.741-1.561-11.27-3.622-17.111-3.884
			c-7.679-0.345-14.765,5.055-20.261,7.049c-10.953-6.615-17.185,5.202-20.002,4.972c-18.124-1.478-20.737,7.414-20.508,16.37
			C22.592,655.411,37.638,655.773,55.716,656.439z"/>
	</g>
	<g>
		<path style="fill:#2B2B47;" d="M519.266,663.068c1.489,0.289,2.886,0.088,4.117-0.505c1.662,2.31,3.847,3.943,6.221,4.402
			c2.763,0.534,5.207-0.637,6.835-2.911c0.007,0.001,0.014,0.003,0.021,0.005c5.007,0.979,6.524-0.212,6.414-6.953
			c-0.11-6.73-3.305-8.493-6.442-12.273c-3.233-3.896-2.522-5.463-4.566-7.041c-1.355-1.319-3.221-3.065-4.885-3.413
			c-2.186-0.457-4.191,3.505-5.748,4.894c-3.122-5.342-4.863,3.545-5.661,3.297c-5.129-1.591-5.846,5.133-5.761,11.974
			C509.896,661.395,514.147,662.074,519.266,663.068z"/>
		<path style="fill:#2B2B47;" d="M531.759,664.006c1.471,0.287,2.85,0.086,4.064-0.504c1.645,2.295,3.805,3.917,6.149,4.372
			c2.729,0.53,5.14-0.635,6.745-2.897c0.007,0.001,0.014,0.003,0.021,0.005c4.946,0.97,6.442-0.214,6.323-6.914
			c-0.118-6.689-3.277-8.44-6.38-12.195c-3.198-3.87-2.499-5.429-4.519-6.996c-1.34-1.31-3.185-3.045-4.829-3.39
			c-2.16-0.453-4.133,3.486-5.668,4.867c-3.09-5.307-4.796,3.526-5.585,3.28c-5.066-1.578-5.765,5.104-5.67,11.904
			C522.505,662.348,526.703,663.02,531.759,664.006z"/>
		<path style="fill:#2B2B47;" d="M550.355,658.17c1.442,0.288,2.794,0.094,3.983-0.487c1.618,2.274,3.739,3.885,6.038,4.342
			c2.677,0.532,5.038-0.613,6.606-2.845c0.007,0.001,0.013,0.003,0.02,0.005c4.852,0.974,6.315-0.193,6.184-6.82
			c-0.131-6.617-3.232-8.358-6.282-12.081c-3.144-3.837-2.462-5.377-4.446-6.933c-1.317-1.299-3.129-3.021-4.742-3.366
			c-2.118-0.454-4.043,3.436-5.546,4.798c-3.041-5.258-4.693,3.473-5.467,3.228c-4.97-1.576-5.639,5.031-5.53,11.756
			C541.281,656.503,545.397,657.18,550.355,658.17z"/>
		<path style="fill:#2B2B47;" d="M562.451,659.123c1.425,0.286,2.759,0.092,3.933-0.486c1.601,2.26,3.698,3.86,5.969,4.313
			c2.645,0.528,4.975-0.612,6.52-2.831c0.007,0.001,0.013,0.003,0.02,0.005c4.793,0.966,6.237-0.195,6.098-6.782
			c-0.139-6.578-3.204-8.306-6.223-12.005c-3.111-3.813-2.44-5.343-4.401-6.889c-1.303-1.291-3.095-3.001-4.688-3.343
			c-2.093-0.45-3.988,3.418-5.47,4.772c-3.011-5.225-4.63,3.455-5.394,3.212c-4.91-1.563-5.561,5.004-5.444,11.688
			C553.488,657.47,557.553,658.141,562.451,659.123z"/>
		<path style="fill:#2B2B47;" d="M464.145,658.769c2.229,0.195,4.322-0.246,6.168-1.184c2.47,2.838,5.723,4.717,9.263,5.022
			c4.115,0.355,7.759-1.495,10.194-4.692c0.01,0.001,0.021,0.003,0.031,0.004c7.427,0.66,9.68-1.093,9.556-9.929
			c-0.125-8.819-4.85-10.749-9.482-15.338c-4.781-4.737-3.715-6.88-6.744-8.714c-2.009-1.575-4.777-3.655-7.256-3.92
			c-3.26-0.349-6.28,5.102-8.619,7.115c-4.636-6.677-7.309,5.251-8.505,5.019c-7.694-1.491-8.824,7.485-8.747,16.525
			C450.081,657.735,456.469,658.099,464.145,658.769z"/>
		<path style="fill:#2B2B47;" d="M482.807,658.439c2.188,0.193,4.242-0.243,6.051-1.172c2.431,2.812,5.628,4.674,9.103,4.977
			c4.04,0.352,7.613-1.48,9.996-4.647c0.01,0.001,0.02,0.003,0.03,0.004c7.292,0.656,9.501-1.081,9.36-9.836
			c-0.141-8.738-4.785-10.651-9.342-15.198c-4.703-4.693-3.662-6.816-6.639-8.634c-1.976-1.561-4.697-3.622-7.131-3.884
			c-3.2-0.345-6.154,5.055-8.444,7.049c-4.565-6.615-7.162,5.202-8.336,4.972c-7.554-1.478-8.643,7.414-8.547,16.37
			C469.002,657.411,475.272,657.773,482.807,658.439z"/>
	</g>
	<g>
		<path style="fill:#2B2B47;" d="M609.266,663.068c1.489,0.289,2.886,0.088,4.117-0.505c1.662,2.31,3.847,3.943,6.221,4.402
			c2.763,0.534,5.207-0.637,6.835-2.911c0.007,0.001,0.014,0.003,0.021,0.005c5.007,0.979,6.524-0.212,6.414-6.953
			c-0.11-6.73-3.305-8.493-6.442-12.273c-3.233-3.896-2.522-5.463-4.566-7.041c-1.355-1.319-3.221-3.065-4.885-3.413
			c-2.186-0.457-4.191,3.505-5.748,4.894c-3.122-5.342-4.863,3.545-5.661,3.297c-5.129-1.591-5.846,5.133-5.761,11.974
			C599.896,661.395,604.147,662.074,609.266,663.068z"/>
		<path style="fill:#2B2B47;" d="M621.759,664.006c1.471,0.287,2.85,0.086,4.064-0.504c1.645,2.295,3.805,3.917,6.149,4.372
			c2.729,0.53,5.14-0.635,6.745-2.897c0.007,0.001,0.014,0.003,0.021,0.005c4.946,0.97,6.442-0.214,6.323-6.914
			c-0.118-6.689-3.277-8.44-6.38-12.195c-3.198-3.87-2.499-5.429-4.519-6.996c-1.34-1.31-3.185-3.045-4.829-3.39
			c-2.16-0.453-4.133,3.486-5.668,4.867c-3.09-5.307-4.796,3.526-5.585,3.28c-5.066-1.578-5.765,5.104-5.67,11.904
			C612.505,662.348,616.703,663.02,621.759,664.006z"/>
		<path style="fill:#2B2B47;" d="M640.355,658.17c1.442,0.288,2.794,0.094,3.983-0.487c1.618,2.274,3.739,3.885,6.038,4.342
			c2.677,0.532,5.038-0.613,6.606-2.845c0.007,0.001,0.013,0.003,0.02,0.005c4.852,0.974,6.315-0.193,6.184-6.82
			c-0.131-6.617-3.232-8.358-6.282-12.081c-3.144-3.837-2.462-5.377-4.446-6.933c-1.317-1.299-3.129-3.021-4.742-3.366
			c-2.118-0.454-4.043,3.436-5.546,4.798c-3.041-5.258-4.693,3.473-5.467,3.228c-4.97-1.576-5.639,5.031-5.53,11.756
			C631.281,656.503,635.397,657.18,640.355,658.17z"/>
		<path style="fill:#2B2B47;" d="M652.451,659.123c1.425,0.286,2.759,0.092,3.933-0.486c1.601,2.26,3.698,3.86,5.969,4.313
			c2.645,0.528,4.975-0.612,6.52-2.831c0.007,0.001,0.013,0.003,0.02,0.005c4.793,0.966,6.237-0.195,6.098-6.782
			c-0.139-6.578-3.204-8.306-6.223-12.005c-3.111-3.813-2.44-5.343-4.401-6.889c-1.303-1.291-3.095-3.001-4.688-3.343
			c-2.093-0.45-3.988,3.418-5.47,4.772c-3.011-5.225-4.63,3.455-5.394,3.212c-4.91-1.563-5.561,5.004-5.444,11.688
			C643.488,657.47,647.553,658.141,652.451,659.123z"/>
		<path style="fill:#2B2B47;" d="M554.145,658.769c2.229,0.195,4.322-0.246,6.168-1.184c2.47,2.838,5.723,4.717,9.262,5.022
			c4.115,0.355,7.759-1.495,10.194-4.692c0.01,0.001,0.021,0.003,0.031,0.004c7.427,0.66,9.68-1.093,9.556-9.929
			c-0.125-8.819-4.85-10.749-9.482-15.338c-4.781-4.737-3.715-6.88-6.744-8.714c-2.009-1.575-4.777-3.655-7.256-3.92
			c-3.26-0.349-6.28,5.102-8.619,7.115c-4.636-6.677-7.309,5.251-8.505,5.019c-7.694-1.491-8.824,7.485-8.747,16.525
			C540.081,657.735,546.469,658.099,554.145,658.769z"/>
		<path style="fill:#2B2B47;" d="M572.807,658.439c2.188,0.193,4.242-0.243,6.051-1.172c2.431,2.812,5.628,4.674,9.103,4.977
			c4.04,0.352,7.613-1.48,9.996-4.647c0.01,0.001,0.02,0.003,0.03,0.004c7.292,0.656,9.501-1.081,9.36-9.836
			c-0.141-8.738-4.785-10.651-9.342-15.198c-4.703-4.693-3.662-6.816-6.639-8.634c-1.976-1.561-4.697-3.622-7.131-3.884
			c-3.2-0.345-6.154,5.055-8.444,7.049c-4.565-6.615-7.162,5.202-8.336,4.972c-7.554-1.478-8.643,7.414-8.547,16.37
			C559.002,657.411,565.272,657.773,572.807,658.439z"/>
	</g>
	<g>
		<path style="fill:#2B2B47;" d="M1359.616,597.096c2.206,0.229,4.276,0.07,6.099-0.4c2.463,1.828,5.7,3.121,9.216,3.485
			c4.094,0.423,7.714-0.504,10.126-2.305c0.01,0.001,0.021,0.003,0.031,0.004c7.418,0.775,9.665-0.168,9.502-5.505
			c-0.162-5.328-4.897-6.724-9.543-9.716c-4.789-3.084-3.737-4.325-6.764-5.574c-2.008-1.044-4.772-2.427-7.238-2.702
			c-3.239-0.362-6.208,2.775-8.516,3.874c-4.625-4.229-7.204,2.806-8.387,2.61c-7.599-1.26-8.661,4.063-8.535,9.48
			C1345.735,595.771,1352.032,596.308,1359.616,597.096z"/>
		<path style="fill:#2B2B47;" d="M1378.125,597.838c2.179,0.227,4.222,0.068,6.021-0.399c2.437,1.817,5.637,3.101,9.11,3.461
			c4.044,0.419,7.615-0.503,9.992-2.293c0.01,0.001,0.02,0.003,0.031,0.004c7.328,0.768,9.543-0.169,9.368-5.474
			c-0.175-5.296-4.854-6.682-9.451-9.654c-4.738-3.064-3.702-4.298-6.695-5.538c-1.986-1.037-4.719-2.41-7.154-2.683
			c-3.199-0.359-6.123,2.76-8.397,3.853c-4.578-4.202-7.105,2.791-8.274,2.597c-7.506-1.25-8.54,4.041-8.4,9.424
			C1364.416,596.525,1370.634,597.058,1378.125,597.838z"/>
		<path style="fill:#2B2B47;" d="M1405.674,593.218c2.137,0.228,4.139,0.074,5.9-0.385c2.396,1.8,5.539,3.076,8.945,3.437
			c3.966,0.421,7.464-0.485,9.786-2.252c0.01,0.001,0.02,0.003,0.03,0.004c7.187,0.771,9.356-0.152,9.162-5.399
			c-0.194-5.239-4.788-6.617-9.307-9.564c-4.658-3.038-3.648-4.257-6.587-5.488c-1.951-1.029-4.636-2.391-7.025-2.665
			c-3.138-0.36-5.99,2.72-8.216,3.798c-4.506-4.163-6.953,2.75-8.099,2.556c-7.362-1.247-8.354,3.983-8.193,9.307
			C1392.231,591.898,1398.328,592.434,1405.674,593.218z"/>
		<path style="fill:#2B2B47;" d="M1423.594,593.972c2.111,0.226,4.088,0.073,5.826-0.385c2.372,1.789,5.479,3.056,8.844,3.414
			c3.918,0.418,7.37-0.484,9.659-2.241c0.01,0.001,0.02,0.003,0.03,0.004c7.101,0.765,9.24-0.154,9.034-5.369
			c-0.206-5.207-4.747-6.576-9.219-9.504c-4.609-3.018-3.615-4.23-6.521-5.454c-1.93-1.022-4.586-2.375-6.946-2.647
			c-3.1-0.356-5.909,2.706-8.103,3.778c-4.461-4.136-6.859,2.735-7.991,2.543c-7.274-1.238-8.238,3.962-8.065,9.253
			C1410.315,592.664,1416.338,593.195,1423.594,593.972z"/>
		<path style="fill:#2B2B47;" d="M1277.956,593.693c3.303,0.154,6.404-0.195,9.137-0.938c3.659,2.247,8.479,3.734,13.722,3.976
			c6.096,0.281,11.495-1.184,15.102-3.715c0.015,0.001,0.031,0.002,0.046,0.003c11.003,0.523,14.341-0.865,14.157-7.861
			c-0.185-6.981-7.185-8.51-14.048-12.143c-7.082-3.75-5.504-5.446-9.991-6.899c-2.977-1.247-7.077-2.894-10.75-3.104
			c-4.829-0.276-9.304,4.039-12.768,5.632c-6.868-5.286-10.828,4.157-12.6,3.974c-11.398-1.181-13.072,5.925-12.958,13.083
			C1257.119,592.873,1266.584,593.161,1277.956,593.693z"/>
		<path style="fill:#2B2B47;" d="M1305.603,593.431c3.242,0.153,6.284-0.192,8.964-0.928c3.601,2.226,8.338,3.7,13.485,3.94
			c5.985,0.279,11.279-1.172,14.809-3.679c0.015,0.001,0.03,0.002,0.045,0.003c10.804,0.519,14.076-0.856,13.866-7.787
			c-0.209-6.917-7.089-8.432-13.841-12.032c-6.968-3.715-5.425-5.396-9.836-6.836c-2.927-1.236-6.959-2.867-10.565-3.075
			c-4.741-0.273-9.116,4.002-12.51,5.58c-6.763-5.237-10.611,4.118-12.35,3.936c-11.191-1.17-12.804,5.87-12.663,12.959
			C1285.151,592.617,1294.44,592.903,1305.603,593.431z"/>
	</g>
	<g>
		<path style="fill:#2B2B47;" d="M1037.227,635.402c2.212-0.162,4.222-0.682,5.934-1.465c2.746,1.367,6.159,2.072,9.685,1.812
			c4.105-0.303,7.505-1.851,9.564-4.047c0.01-0.001,0.021-0.001,0.031-0.002c7.439-0.54,9.485-1.863,8.388-7.088
			c-1.096-5.217-6.002-5.759-11.102-7.889c-5.256-2.195-4.438-3.602-7.638-4.3c-2.16-0.675-5.124-1.551-7.6-1.389
			c-3.252,0.213-5.625,3.822-7.703,5.31c-5.296-3.351-6.599,4.028-7.798,4.043c-7.702,0.095-7.813,5.521-6.737,10.831
			C1023.329,636.536,1029.622,635.959,1037.227,635.402z"/>
		<path style="fill:#2B2B47;" d="M1055.578,632.882c2.185-0.159,4.169-0.674,5.857-1.451c2.718,1.36,6.094,2.062,9.576,1.807
			c4.054-0.297,7.409-1.833,9.434-4.013c0.01-0.001,0.021-0.001,0.031-0.002c7.349-0.531,9.365-1.843,8.261-7.034
			c-1.103-5.183-5.953-5.725-11-7.844c-5.203-2.184-4.4-3.581-7.563-4.277c-2.137-0.672-5.069-1.544-7.514-1.385
			c-3.213,0.209-5.543,3.792-7.59,5.268c-5.245-3.332-6.505,3.996-7.689,4.009c-7.609,0.088-7.698,5.478-6.614,10.752
			C1041.851,633.997,1048.067,633.429,1055.578,632.882z"/>
		<path style="fill:#2B2B47;" d="M1081.888,623.495c2.144-0.151,4.088-0.654,5.741-1.416c2.675,1.352,5.993,2.055,9.41,1.813
			c3.978-0.282,7.262-1.789,9.239-3.936c0.01-0.001,0.02-0.001,0.03-0.002c7.211-0.503,9.184-1.793,8.071-6.924
			c-1.111-5.123-5.875-5.673-10.842-7.781c-5.119-2.173-4.339-3.55-7.448-4.246c-2.102-0.67-4.984-1.54-7.384-1.39
			c-3.152,0.197-5.419,3.73-7.421,5.182c-5.167-3.307-6.362,3.928-7.525,3.938c-7.467,0.065-7.524,5.389-6.431,10.601
			C1068.422,624.556,1074.519,624.013,1081.888,623.495z"/>
		<path style="fill:#2B2B47;" d="M1099.662,621.09c2.118-0.148,4.037-0.646,5.668-1.402c2.649,1.344,5.93,2.046,9.306,1.808
			c3.931-0.277,7.171-1.771,9.115-3.903c0.01-0.001,0.02-0.001,0.03-0.002c7.125-0.494,9.07-1.775,7.95-6.872
			c-1.117-5.09-5.828-5.64-10.745-7.737c-5.068-2.162-4.302-3.53-7.377-4.224c-2.079-0.667-4.931-1.533-7.303-1.386
			c-3.115,0.194-5.342,3.702-7.314,5.143c-5.119-3.288-6.272,3.897-7.421,3.907c-7.378,0.059-7.414,5.347-6.314,10.526
			C1086.359,622.134,1092.382,621.599,1099.662,621.09z"/>
		<path style="fill:#2B2B47;" d="M956.238,646.394c3.278-0.428,6.27-1.316,8.831-2.528c3.997,1.569,9.003,2.187,14.207,1.504
			c6.051-0.794,11.108-3.184,14.214-6.309c0.015-0.002,0.03-0.003,0.046-0.005c10.923-1.418,13.967-3.371,12.556-10.225
			c-1.408-6.84-8.568-7.115-15.962-9.487c-7.631-2.448-6.375-4.395-11.047-5.037c-3.149-0.705-7.475-1.606-11.128-1.167
			c-4.802,0.576-8.45,5.61-11.581,7.787c-7.69-3.997-9.93,5.994-11.706,6.125c-11.428,0.839-11.828,8.129-10.459,15.155
			C935.582,649.247,944.95,647.868,956.238,646.394z"/>
		<path style="fill:#2B2B47;" d="M983.409,641.28c3.219-0.419,6.153-1.293,8.662-2.488c3.936,1.559,8.858,2.178,13.968,1.51
			c5.941-0.777,10.898-3.135,13.933-6.223c0.015-0.002,0.03-0.003,0.045-0.005c10.727-1.387,13.707-3.315,12.283-10.102
			c-1.421-6.773-8.459-7.056-15.739-9.414c-7.512-2.434-6.288-4.36-10.884-5.002c-3.099-0.702-7.354-1.6-10.941-1.172
			c-4.715,0.564-8.272,5.541-11.335,7.691c-7.577-3.967-9.722,5.918-11.467,6.044c-11.222,0.814-11.574,8.027-10.19,14.982
			C963.132,644.072,972.328,642.722,983.409,641.28z"/>
	</g>
	<g>
		<path style="fill:#1E1E33;" d="M627.196,668.068c3.573,0.289,6.925,0.088,9.878-0.505c3.989,2.31,9.231,3.943,14.926,4.402
			c6.63,0.534,12.493-0.637,16.4-2.911c0.017,0.001,0.033,0.003,0.05,0.005c12.015,0.979,15.653-0.212,15.389-6.953
			c-0.263-6.73-7.931-8.493-15.456-12.273c-7.757-3.896-6.052-5.463-10.955-7.041c-3.252-1.319-7.728-3.065-11.722-3.413
			c-5.246-0.457-10.055,3.505-13.792,4.894c-7.49-5.342-11.668,3.545-13.584,3.297c-12.306-1.591-14.028,5.133-13.823,11.974
			C604.714,666.395,614.913,667.074,627.196,668.068z"/>
		<path style="fill:#1E1E33;" d="M657.172,669.006c3.529,0.287,6.838,0.086,9.752-0.504c3.947,2.295,9.129,3.917,14.754,4.372
			c6.549,0.53,12.334-0.635,16.183-2.897c0.017,0.001,0.033,0.003,0.05,0.005c11.868,0.97,15.456-0.214,15.172-6.914
			c-0.284-6.689-7.862-8.44-15.307-12.195c-7.674-3.87-5.996-5.429-10.843-6.996c-3.216-1.31-7.642-3.045-11.587-3.39
			c-5.182-0.453-9.916,3.486-13.6,4.867c-7.415-5.307-11.508,3.526-13.4,3.28c-12.156-1.578-13.831,5.104-13.604,11.904
			C634.969,667.348,645.041,668.02,657.172,669.006z"/>
		<path style="fill:#1E1E33;" d="M701.79,663.17c3.461,0.288,6.703,0.094,9.556-0.487c3.881,2.274,8.97,3.885,14.487,4.342
			c6.423,0.532,12.088-0.613,15.85-2.845c0.016,0.001,0.032,0.003,0.049,0.005c11.641,0.974,15.153-0.193,14.838-6.82
			c-0.314-6.617-7.754-8.358-15.073-12.081c-7.544-3.837-5.908-5.377-10.668-6.933c-3.16-1.299-7.509-3.021-11.378-3.366
			c-5.082-0.454-9.702,3.436-13.306,4.798c-7.297-5.258-11.261,3.473-13.118,3.228c-11.924-1.576-13.529,5.031-13.27,11.756
			C680.018,661.503,689.894,662.18,701.79,663.17z"/>
		<path style="fill:#1E1E33;" d="M730.814,664.123c3.419,0.286,6.62,0.092,9.436-0.486c3.841,2.26,8.873,3.86,14.323,4.313
			c6.346,0.528,11.937-0.612,15.644-2.831c0.016,0.001,0.032,0.003,0.048,0.005c11.501,0.966,14.965-0.195,14.631-6.782
			c-0.334-6.578-7.688-8.306-14.931-12.005c-7.465-3.813-5.854-5.343-10.561-6.889c-3.126-1.291-7.427-3.001-11.249-3.343
			c-5.021-0.45-9.57,3.418-13.124,4.772c-7.226-5.225-11.109,3.455-12.943,3.212c-11.781-1.563-13.343,5.004-13.062,11.688
			C709.307,662.47,719.062,663.141,730.814,664.123z"/>
		<path style="fill:#1E1E33;" d="M494.94,663.769c5.349,0.195,10.371-0.246,14.799-1.184c5.927,2.838,13.733,4.717,22.224,5.022
			c9.874,0.355,18.617-1.495,24.458-4.692c0.025,0.001,0.049,0.003,0.075,0.004c17.82,0.66,23.227-1.093,22.928-9.929
			c-0.299-8.819-11.637-10.749-22.752-15.338c-11.471-4.737-8.913-6.88-16.181-8.714c-4.821-1.575-11.461-3.655-17.41-3.92
			c-7.821-0.349-15.069,5.102-20.679,7.115c-11.124-6.677-17.537,5.251-20.407,5.019c-18.46-1.491-21.171,7.485-20.987,16.525
			C461.193,662.735,476.523,663.099,494.94,663.769z"/>
		<path style="fill:#1E1E33;" d="M539.716,663.439c5.251,0.193,10.178-0.243,14.519-1.172c5.832,2.812,13.504,4.674,21.841,4.977
			c9.694,0.352,18.267-1.48,23.985-4.647c0.025,0.001,0.049,0.003,0.073,0.004c17.497,0.656,22.797-1.081,22.458-9.836
			c-0.339-8.738-11.481-10.651-22.416-15.198c-11.285-4.693-8.786-6.816-15.93-8.634c-4.741-1.561-11.27-3.622-17.111-3.884
			c-7.679-0.345-14.765,5.055-20.26,7.049c-10.953-6.615-17.185,5.202-20.002,4.972c-18.124-1.478-20.737,7.414-20.508,16.37
			C506.592,662.411,521.638,662.773,539.716,663.439z"/>
	</g>
	<g>
		<path style="fill:#1E1E33;" d="M1379.017,603.57c3.584-0.057,6.901-0.581,9.783-1.457c4.193,1.914,9.569,3.033,15.282,2.94
			c6.651-0.108,12.373-1.84,16.042-4.481c0.017,0,0.034,0,0.05,0c12.053-0.186,15.559-1.723,14.646-8.407
			c-0.912-6.674-8.714-7.688-16.569-10.723c-8.097-3.129-6.552-4.853-11.583-5.951c-3.364-0.998-7.988-2.305-11.997-2.265
			c-5.266,0.052-9.67,4.46-13.255,6.203c-7.971-4.594-11.271,4.655-13.202,4.593c-12.403-0.395-13.467,6.463-12.602,13.253
			C1356.479,604.075,1366.696,603.766,1379.017,603.57z"/>
		<path style="fill:#1E1E33;" d="M1408.944,601.609c3.54-0.055,6.815-0.574,9.657-1.444c4.15,1.903,9.465,3.017,15.108,2.927
			c6.57-0.105,12.215-1.823,15.828-4.446c0.017,0,0.033,0,0.05,0c11.906-0.18,15.363-1.706,14.433-8.347
			c-0.928-6.631-8.641-7.641-16.413-10.66c-8.011-3.111-6.492-4.824-11.468-5.916c-3.328-0.993-7.901-2.292-11.86-2.255
			c-5.201,0.049-9.533,4.427-13.067,6.158c-7.893-4.567-11.114,4.62-13.021,4.559c-12.252-0.397-13.274,6.416-12.391,13.161
			C1386.684,602.102,1396.774,601.799,1408.944,601.609z"/>
		<path style="fill:#1E1E33;" d="M1452.79,591.492c3.472-0.047,6.681-0.554,9.464-1.407c4.083,1.889,9.303,3.001,14.839,2.923
			c6.444-0.091,11.972-1.777,15.501-4.362c0.016,0,0.032,0,0.049,0c11.68-0.154,15.063-1.655,14.11-8.221
			c-0.952-6.556-8.525-7.57-16.17-10.569c-7.879-3.091-6.4-4.781-11.287-5.87c-3.271-0.988-7.765-2.281-11.65-2.252
			c-5.102,0.039-9.325,4.357-12.781,6.06c-7.771-4.529-10.873,4.544-12.745,4.479c-12.021-0.417-12.98,6.314-12.073,12.982
			C1430.959,591.935,1440.854,591.656,1452.79,591.492z"/>
		<path style="fill:#1E1E33;" d="M1481.77,589.638c3.43-0.046,6.599-0.548,9.345-1.395c4.041,1.878,9.204,2.985,14.673,2.91
			c6.367-0.088,11.822-1.761,15.297-4.328c0.016,0,0.032,0,0.048,0c11.54-0.149,14.877-1.639,13.908-8.163
			c-0.967-6.515-8.454-7.525-16.02-10.508c-7.798-3.074-6.343-4.753-11.177-5.837c-3.236-0.983-7.682-2.269-11.52-2.242
			c-5.041,0.037-9.195,4.326-12.602,6.017c-7.696-4.503-10.724,4.511-12.572,4.446c-11.877-0.419-12.797,6.269-11.872,12.894
			C1460.204,590.069,1469.978,589.796,1481.77,589.638z"/>
		<path style="fill:#1E1E33;" d="M1246.964,612.062c5.343-0.323,10.299-1.246,14.615-2.608c6.173,2.253,14.124,3.369,22.605,2.852
			c9.862-0.6,18.386-3.286,23.891-7.032c0.025-0.001,0.049-0.002,0.074-0.003c17.8-1.063,23.013-3.331,21.862-12.097
			c-1.149-8.748-12.621-9.575-24.126-13.07c-11.874-3.607-9.536-5.987-16.947-7.111c-4.951-1.103-11.761-2.532-17.707-2.221
			c-7.818,0.408-14.506,6.533-19.896,9.078c-11.716-5.571-16.948,6.92-19.827,6.966c-18.517,0.298-20.349,9.494-19.293,18.475
			C1213.275,614.29,1228.568,613.172,1246.964,612.062z"/>
		<path style="fill:#1E1E33;" d="M1291.499,607.409c5.245-0.314,10.107-1.224,14.338-2.568c6.076,2.236,13.892,3.348,22.219,2.844
			c9.683-0.586,18.039-3.237,23.424-6.941c0.025-0.001,0.049-0.002,0.073-0.003c17.479-1.037,22.586-3.277,21.403-11.959
			c-1.181-8.664-12.455-9.492-23.779-12.963c-11.686-3.581-9.403-5.936-16.689-7.056c-4.869-1.096-11.567-2.517-17.406-2.214
			c-7.676,0.398-14.208,6.457-19.485,8.972c-11.54-5.526-16.602,6.837-19.428,6.88c-18.182,0.279-19.925,9.382-18.832,18.273
			C1258.431,609.585,1273.441,608.492,1291.499,607.409z"/>
	</g>
	<g>
		<path style="fill:#1E1E33;" d="M1055.425,642.11c2.609-0.328,4.998-1.102,7.05-2.194c3.162,1.59,7.142,2.299,11.3,1.773
			c4.841-0.612,8.916-2.772,11.444-5.684c0.012-0.002,0.024-0.002,0.037-0.004c8.774-1.099,11.244-2.897,10.209-9.492
			c-1.034-6.585-6.777-7.005-12.67-9.437c-6.074-2.506-5.044-4.343-8.772-5.056c-2.507-0.741-5.949-1.693-8.869-1.35
			c-3.835,0.45-6.801,5.18-9.317,7.189c-6.064-3.976-7.957,5.495-9.367,5.58c-9.061,0.545-9.457,7.465-8.451,14.17
			C1039.027,644.321,1046.456,643.239,1055.425,642.11z"/>
		<path style="fill:#1E1E33;" d="M1077.128,637.887c2.577-0.323,4.935-1.089,6.959-2.171c3.13,1.583,7.065,2.291,11.173,1.773
			c4.782-0.603,8.802-2.744,11.29-5.632c0.012-0.002,0.024-0.002,0.036-0.004c8.667-1.082,11.103-2.865,10.057-9.416
			c-1.044-6.541-6.721-6.965-12.553-9.386c-6.011-2.495-4.999-4.319-8.685-5.03c-2.48-0.738-5.885-1.687-8.769-1.35
			c-3.788,0.443-6.703,5.137-9.182,7.13c-6.005-3.955-7.844,5.449-9.237,5.532c-8.952,0.532-9.319,7.403-8.302,14.062
			C1060.932,640.065,1068.269,638.998,1077.128,637.887z"/>
		<path style="fill:#1E1E33;" d="M1108.524,624.477c2.528-0.31,4.839-1.058,6.82-2.12c3.08,1.574,6.947,2.287,10.977,1.79
			c4.692-0.579,8.627-2.679,11.056-5.524c0.012-0.001,0.024-0.002,0.036-0.004c8.504-1.039,10.887-2.791,9.828-9.266
			c-1.057-6.465-6.632-6.902-12.37-9.313c-5.914-2.485-4.929-4.283-8.552-4.998c-2.439-0.737-5.786-1.686-8.615-1.363
			c-3.717,0.425-6.555,5.051-8.979,7.011c-5.914-3.927-7.673,5.355-9.04,5.432c-8.784,0.495-9.111,7.28-8.08,13.86
			C1092.637,626.572,1099.833,625.544,1108.524,624.477z"/>
		<path style="fill:#1E1E33;" d="M1129.542,620.432c2.498-0.306,4.779-1.046,6.734-2.099c3.049,1.567,6.873,2.279,10.855,1.79
			c4.635-0.57,8.518-2.652,10.909-5.475c0.012-0.001,0.023-0.002,0.035-0.004c8.402-1.023,10.752-2.761,9.684-9.193
			c-1.066-6.422-6.578-6.863-12.258-9.263c-5.854-2.474-4.886-4.259-8.469-4.973c-2.413-0.735-5.724-1.681-8.52-1.362
			c-3.672,0.419-6.462,5.01-8.851,6.955c-5.859-3.906-7.566,5.311-8.917,5.386c-8.679,0.483-8.98,7.221-7.939,13.757
			C1113.848,622.496,1120.957,621.483,1129.542,620.432z"/>
		<path style="fill:#1E1E33;" d="M959.652,660.583c3.876-0.726,7.437-2.023,10.508-3.708c4.624,1.779,10.48,2.289,16.633,1.131
			c7.154-1.346,13.218-4.67,17.023-8.822c0.018-0.003,0.036-0.006,0.054-0.009c12.914-2.409,16.588-5.065,15.264-13.718
			c-1.322-8.636-9.728-8.591-18.308-11.204c-8.854-2.697-7.282-5.247-12.745-5.807c-3.669-0.724-8.712-1.633-13.028-0.873
			c-5.675,0.999-10.211,7.614-13.998,10.56c-8.848-4.668-11.969,8.184-14.064,8.448c-13.479,1.7-14.305,11.009-13.038,19.883
			C935.223,665.357,946.307,663.084,959.652,660.583z"/>
		<path style="fill:#1E1E33;" d="M991.853,652.569c3.805-0.711,7.298-1.987,10.307-3.648c4.552,1.769,10.31,2.286,16.351,1.153
			c7.024-1.318,12.968-4.595,16.688-8.696c0.018-0.003,0.035-0.006,0.053-0.009c12.682-2.358,16.28-4.979,14.937-13.546
			c-1.341-8.55-9.603-8.521-18.048-11.124c-8.715-2.686-7.182-5.207-12.554-5.771c-3.61-0.724-8.57-1.633-12.808-0.889
			c-5.573,0.978-9.997,7.515-13.704,10.423c-8.717-4.636-11.721,8.075-13.779,8.333c-13.236,1.656-14.002,10.865-12.713,19.648
			C967.872,657.244,978.752,655.017,991.853,652.569z"/>
	</g>
	<g>
		<path style="fill:#2B2B47;" d="M201.599,650.842c4.721,0.127,9.151,0.039,13.052-0.221c5.27,1.01,12.197,1.725,19.723,1.926
			c8.761,0.234,16.508-0.279,21.669-1.274c0.022,0.001,0.044,0.002,0.066,0.002c15.875,0.428,20.682-0.093,20.335-3.042
			c-0.347-2.945-10.479-3.716-20.423-5.369c-10.249-1.704-7.997-2.39-14.475-3.081c-4.297-0.577-10.211-1.341-15.489-1.493
			c-6.932-0.2-13.286,1.534-18.223,2.141c-9.897-2.337-15.417,1.551-17.948,1.442c-16.261-0.696-18.535,2.246-18.265,5.239
			C171.893,650.11,185.369,650.407,201.599,650.842z"/>
		<path style="fill:#2B2B47;" d="M241.207,651.253c4.663,0.125,9.035,0.038,12.885-0.221c5.215,1.004,12.063,1.714,19.495,1.913
			c8.653,0.232,16.297-0.278,21.383-1.267c0.022,0.001,0.044,0.002,0.065,0.002c15.681,0.424,20.423-0.094,20.047-3.025
			c-0.375-2.927-10.389-3.692-20.226-5.335c-10.139-1.693-7.923-2.375-14.327-3.061c-4.25-0.573-10.098-1.332-15.31-1.483
			c-6.847-0.198-13.102,1.525-17.971,2.129c-9.798-2.322-15.206,1.542-17.706,1.435c-16.063-0.691-18.276,2.233-17.975,5.208
			C211.869,650.527,225.178,650.821,241.207,651.253z"/>
		<path style="fill:#2B2B47;" d="M300.162,648.7c4.573,0.126,8.857,0.041,12.627-0.213c5.128,0.995,11.853,1.7,19.142,1.9
			c8.487,0.233,15.972-0.268,20.943-1.245c0.022,0.001,0.043,0.001,0.064,0.002c15.381,0.426,20.021-0.084,19.606-2.984
			c-0.415-2.895-10.245-3.656-19.917-5.285c-9.968-1.679-7.806-2.352-14.096-3.033c-4.176-0.568-9.921-1.321-15.034-1.473
			c-6.715-0.199-12.819,1.503-17.582,2.099c-9.642-2.3-14.88,1.52-17.332,1.412c-15.756-0.689-17.877,2.201-17.533,5.143
			C271.394,647.97,284.443,648.266,300.162,648.7z"/>
		<path style="fill:#2B2B47;" d="M338.511,649.116c4.517,0.125,8.748,0.04,12.468-0.213c5.075,0.989,11.724,1.689,18.926,1.887
			c8.384,0.231,15.772-0.268,20.671-1.239c0.021,0.001,0.042,0.001,0.063,0.002c15.196,0.423,19.774-0.085,19.333-2.967
			c-0.441-2.878-10.159-3.634-19.729-5.252c-9.863-1.668-7.735-2.338-13.954-3.014c-4.13-0.565-9.813-1.313-14.864-1.463
			c-6.634-0.197-12.644,1.495-17.341,2.088c-9.547-2.286-14.679,1.512-17.102,1.405c-15.567-0.684-17.63,2.189-17.259,5.113
			C310.094,648.393,322.983,648.687,338.511,649.116z"/>
		<path style="fill:#2B2B47;" d="M26.845,648.962c7.068,0.085,13.704-0.108,19.554-0.518c7.831,1.242,18.145,2.064,29.366,2.197
			c13.046,0.155,24.599-0.654,32.317-2.053c0.033,0,0.065,0.001,0.098,0.002c23.546,0.289,30.691-0.478,30.295-4.344
			c-0.395-3.858-15.376-4.703-30.062-6.711c-15.156-2.072-11.777-3.01-21.38-3.813c-6.37-0.689-15.144-1.599-23.004-1.715
			c-10.334-0.152-19.911,2.232-27.324,3.113c-14.698-2.921-23.172,2.297-26.964,2.196c-24.391-0.653-27.974,3.275-27.73,7.23
			C-17.745,648.509,2.51,648.668,26.845,648.962z"/>
		<path style="fill:#2B2B47;" d="M86.01,648.817c6.938,0.085,13.448-0.106,19.184-0.513c7.706,1.23,17.843,2.045,28.859,2.177
			c12.809,0.154,24.137-0.648,31.692-2.033c0.032,0,0.064,0.001,0.097,0.002c23.12,0.287,30.123-0.473,29.674-4.303
			c-0.448-3.823-15.17-4.66-29.619-6.649c-14.911-2.053-11.609-2.982-21.049-3.778c-6.264-0.683-14.891-1.584-22.609-1.699
			c-10.146-0.151-19.509,2.211-26.771,3.084c-14.472-2.894-22.707,2.276-26.429,2.175c-23.948-0.647-27.401,3.244-27.098,7.162
			C42.242,648.367,62.122,648.526,86.01,648.817z"/>
	</g>
	<g>
		
			<linearGradient id="SVGID_00000172425912657540102280000002651378636874254753_" gradientUnits="userSpaceOnUse" x1="426.5907" y1="590.0188" x2="425.561" y2="803.6043">
			<stop  offset="0" style="stop-color:#6668AC"/>
			<stop  offset="0.0948" style="stop-color:#55568F"/>
			<stop  offset="0.2993" style="stop-color:#292A45"/>
			<stop  offset="0.476" style="stop-color:#000000"/>
		</linearGradient>
		
			<ellipse style="fill:url(#SVGID_00000172425912657540102280000002651378636874254753_);" cx="425.95" cy="722.88" rx="963.437" ry="80.88"/>
	</g>
	<g>
		
			<linearGradient id="SVGID_00000120543880936901455860000002971982415087186309_" gradientUnits="userSpaceOnUse" x1="1366.2391" y1="502.1011" x2="1390.5863" y2="805.9036">
			<stop  offset="0.0663" style="stop-color:#6668AC"/>
			<stop  offset="0.15" style="stop-color:#55568F"/>
			<stop  offset="0.3303" style="stop-color:#292A45"/>
			<stop  offset="0.4862" style="stop-color:#000000"/>
		</linearGradient>
		<path style="fill:url(#SVGID_00000120543880936901455860000002971982415087186309_);" d="M2002.94,692.963
			c-43.122,136.581-263.117,109.226-587.689,109.226S887.884,692.484,827.562,692.963C571,695,1052,605,1415.251,583.737
			C1739.457,564.759,2037.426,583.737,2002.94,692.963z"/>
	</g>
	
		<linearGradient id="SVGID_00000000218264359557377560000016210883192134672563_" gradientUnits="userSpaceOnUse" x1="-776.1266" y1="149.9864" x2="-781.3538" y2="97.0894" gradientTransform="matrix(-0.9977 -0.0681 0.0537 -0.787 973.0878 739.0923)">
		<stop  offset="0" style="stop-color:#6668AC"/>
		<stop  offset="0.0287" style="stop-color:#575892"/>
		<stop  offset="0.0783" style="stop-color:#40416B"/>
		<stop  offset="0.1316" style="stop-color:#2C2D4A"/>
		<stop  offset="0.1884" style="stop-color:#1C1C2F"/>
		<stop  offset="0.25" style="stop-color:#0F101A"/>
		<stop  offset="0.3187" style="stop-color:#07070B"/>
		<stop  offset="0.4003" style="stop-color:#020203"/>
		<stop  offset="0.528" style="stop-color:#000000"/>
	</linearGradient>
	<path style="fill:url(#SVGID_00000000218264359557377560000016210883192134672563_);" d="M1725.754,705.17
		c6.153,0.42,11.997,0.298,17.207-0.265c6.632,2.643,15.55,4.587,25.437,5.262c11.539,0.787,21.998-0.32,29.194-2.704
		c0.029,0.002,0.058,0.005,0.088,0.007c21.085,1.439,27.706,0.234,28.215-7.222c0.509-7.456-12.843-9.611-25.619-13.986
		c-13.138-4.498-9.914-6.19-18.331-8.051c-5.538-1.533-13.16-3.564-20.117-4.039c-9.12-0.622-18.05,3.63-24.745,5.068
		c-12.317-6.04-20.72,3.608-24.003,3.29c-21.031-2.035-24.839,5.259-25.348,12.715S1704.669,703.732,1725.754,705.17z"/>
	
		<linearGradient id="SVGID_00000013176162095922300280000018134929843182850193_" gradientUnits="userSpaceOnUse" x1="-854.9647" y1="126.9175" x2="-859.3719" y2="82.3176" gradientTransform="matrix(-0.9982 -0.0594 0.0469 -0.7875 972.9619 743.6112)">
		<stop  offset="0" style="stop-color:#6668AC"/>
		<stop  offset="0.0287" style="stop-color:#575892"/>
		<stop  offset="0.0783" style="stop-color:#40416B"/>
		<stop  offset="0.1316" style="stop-color:#2C2D4A"/>
		<stop  offset="0.1884" style="stop-color:#1C1C2F"/>
		<stop  offset="0.25" style="stop-color:#0F101A"/>
		<stop  offset="0.3187" style="stop-color:#07070B"/>
		<stop  offset="0.4003" style="stop-color:#020203"/>
		<stop  offset="0.528" style="stop-color:#000000"/>
	</linearGradient>
	<path style="fill:url(#SVGID_00000013176162095922300280000018134929843182850193_);" d="M1807.541,721.066
		c5.191,0.309,10.117,0.164,14.506-0.349c5.611,2.18,13.144,3.754,21.485,4.25c9.735,0.58,18.545-0.431,24.594-2.493
		c0.025,0.002,0.049,0.004,0.074,0.005c17.788,1.059,23.361-0.005,23.735-6.296c0.375-6.29-10.898-8.01-21.702-11.605
		c-11.109-3.697-8.404-5.146-15.514-6.653c-4.681-1.252-11.122-2.909-16.99-3.258c-7.694-0.458-15.192,3.192-20.826,4.454
		c-10.429-5.002-17.443,3.193-20.213,2.949c-17.746-1.562-20.904,4.615-21.278,10.906
		C1775.036,719.267,1789.753,720.007,1807.541,721.066z"/>
	
		<linearGradient id="SVGID_00000169523524569758259340000000981037943134882962_" gradientUnits="userSpaceOnUse" x1="-915.2247" y1="100.4455" x2="-919.632" y2="55.8455" gradientTransform="matrix(-0.9982 -0.0594 0.0469 -0.7875 972.9619 743.6112)">
		<stop  offset="0" style="stop-color:#6668AC"/>
		<stop  offset="0.0287" style="stop-color:#575892"/>
		<stop  offset="0.0783" style="stop-color:#40416B"/>
		<stop  offset="0.1316" style="stop-color:#2C2D4A"/>
		<stop  offset="0.1884" style="stop-color:#1C1C2F"/>
		<stop  offset="0.25" style="stop-color:#0F101A"/>
		<stop  offset="0.3187" style="stop-color:#07070B"/>
		<stop  offset="0.4003" style="stop-color:#020203"/>
		<stop  offset="0.528" style="stop-color:#000000"/>
	</linearGradient>
	<path style="fill:url(#SVGID_00000169523524569758259340000000981037943134882962_);" d="M1866.453,745.493
		c5.191,0.309,10.117,0.164,14.506-0.349c5.611,2.18,13.144,3.754,21.485,4.25c9.734,0.58,18.545-0.431,24.594-2.493
		c0.025,0.002,0.049,0.004,0.074,0.005c17.788,1.059,23.361-0.005,23.735-6.296c0.375-6.29-10.898-8.01-21.702-11.605
		c-11.109-3.697-8.404-5.146-15.514-6.653c-4.681-1.252-11.122-2.909-16.99-3.258c-7.694-0.458-15.192,3.192-20.826,4.454
		c-10.429-5.002-17.443,3.193-20.213,2.949c-17.746-1.562-20.904,4.615-21.278,10.906
		C1833.949,743.694,1848.666,744.434,1866.453,745.493z"/>
	
		<linearGradient id="SVGID_00000170997569529529593010000015791287000469099418_" gradientUnits="userSpaceOnUse" x1="-1117.2667" y1="195.9597" x2="-1123.9174" y2="128.6571" gradientTransform="matrix(-0.3925 -0.0268 0.0339 -0.4974 1184.6986 752.1393)">
		<stop  offset="0" style="stop-color:#6668AC"/>
		<stop  offset="0.0287" style="stop-color:#575892"/>
		<stop  offset="0.0783" style="stop-color:#40416B"/>
		<stop  offset="0.1316" style="stop-color:#2C2D4A"/>
		<stop  offset="0.1884" style="stop-color:#1C1C2F"/>
		<stop  offset="0.25" style="stop-color:#0F101A"/>
		<stop  offset="0.3187" style="stop-color:#07070B"/>
		<stop  offset="0.4003" style="stop-color:#020203"/>
		<stop  offset="0.528" style="stop-color:#000000"/>
	</linearGradient>
	<path style="fill:url(#SVGID_00000170997569529529593010000015791287000469099418_);" d="M1614.342,710.324
		c3.08,0.21,6.016-0.008,8.643-0.567c3.275,1.985,7.712,3.361,12.661,3.699c5.776,0.394,11.049-0.71,14.711-2.772
		c0.015,0.001,0.029,0.003,0.044,0.004c10.555,0.72,13.903-0.383,14.312-6.378c0.409-5.995-6.249-7.45-12.572-10.698
		c-6.502-3.34-4.849-4.764-9.036-6.084c-2.749-1.116-6.533-2.59-10.015-2.827c-4.565-0.312-9.136,3.285-12.526,4.578
		c-6.059-4.594-10.476,3.323-12.117,3.135c-10.515-1.2-12.578,4.733-12.987,10.728
		C1595.051,709.137,1603.787,709.604,1614.342,710.324z"/>
	
		<linearGradient id="SVGID_00000154401806173810733480000010114884687130466184_" gradientUnits="userSpaceOnUse" x1="-1228.9778" y1="216.4206" x2="-1235.6284" y2="149.118" gradientTransform="matrix(-0.3925 -0.0268 0.0339 -0.4974 1184.6986 752.1393)">
		<stop  offset="0" style="stop-color:#6668AC"/>
		<stop  offset="0.0287" style="stop-color:#575892"/>
		<stop  offset="0.0783" style="stop-color:#40416B"/>
		<stop  offset="0.1316" style="stop-color:#2C2D4A"/>
		<stop  offset="0.1884" style="stop-color:#1C1C2F"/>
		<stop  offset="0.25" style="stop-color:#0F101A"/>
		<stop  offset="0.3187" style="stop-color:#07070B"/>
		<stop  offset="0.4003" style="stop-color:#020203"/>
		<stop  offset="0.528" style="stop-color:#000000"/>
	</linearGradient>
	<path style="fill:url(#SVGID_00000154401806173810733480000010114884687130466184_);" d="M1658.886,703.14
		c3.08,0.21,6.016-0.008,8.643-0.567c3.275,1.985,7.711,3.361,12.661,3.699c5.776,0.394,11.049-0.71,14.711-2.772
		c0.015,0.001,0.029,0.003,0.044,0.004c10.555,0.72,13.903-0.383,14.312-6.378c0.409-5.995-6.249-7.45-12.572-10.698
		c-6.502-3.34-4.849-4.764-9.036-6.084c-2.749-1.116-6.533-2.59-10.015-2.827c-4.565-0.312-9.136,3.285-12.526,4.578
		c-6.059-4.594-10.476,3.323-12.117,3.135c-10.515-1.2-12.578,4.733-12.987,10.728
		C1639.594,701.953,1648.331,702.419,1658.886,703.14z"/>
	
		<linearGradient id="SVGID_00000019662594152814307500000012843559280033489324_" gradientUnits="userSpaceOnUse" x1="314.0885" y1="185.7782" x2="307.4379" y2="118.4757" gradientTransform="matrix(0.3592 0.0245 0.0339 -0.4974 1562.4763 777.9186)">
		<stop  offset="0" style="stop-color:#6668AC"/>
		<stop  offset="0.0287" style="stop-color:#575892"/>
		<stop  offset="0.0783" style="stop-color:#40416B"/>
		<stop  offset="0.1316" style="stop-color:#2C2D4A"/>
		<stop  offset="0.1884" style="stop-color:#1C1C2F"/>
		<stop  offset="0.25" style="stop-color:#0F101A"/>
		<stop  offset="0.3187" style="stop-color:#07070B"/>
		<stop  offset="0.4003" style="stop-color:#020203"/>
		<stop  offset="0.528" style="stop-color:#000000"/>
	</linearGradient>
	<path style="fill:url(#SVGID_00000019662594152814307500000012843559280033489324_);" d="M1692.364,720.736
		c-2.819-0.192-5.451-0.79-7.759-1.687c-3.226,1.541-7.426,2.328-11.955,2.019c-5.286-0.361-9.921-2.141-12.971-4.661
		c-0.014-0.001-0.027-0.001-0.04-0.002c-9.659-0.659-12.55-2.188-12.141-8.184c0.409-5.995,6.632-6.571,12.785-8.967
		c6.327-2.464,5.015-4.091,8.981-4.854c2.636-0.749,6.257-1.717,9.444-1.499c4.178,0.285,7.852,4.444,10.756,6.167
		c6.088-3.765,9.062,4.656,10.573,4.684c9.686,0.178,10.783,6.327,10.374,12.322
		C1710.002,722.069,1702.024,721.395,1692.364,720.736z"/>
	<g>
		
			<linearGradient id="SVGID_00000126293556647983299150000007052789053796715139_" gradientUnits="userSpaceOnUse" x1="819.8051" y1="617.4246" x2="818.4152" y2="905.7422">
			<stop  offset="0.123" style="stop-color:#6668AC"/>
			<stop  offset="0.2035" style="stop-color:#55568F"/>
			<stop  offset="0.3772" style="stop-color:#292A45"/>
			<stop  offset="0.5272" style="stop-color:#000000"/>
		</linearGradient>
		
			<ellipse style="fill:url(#SVGID_00000126293556647983299150000007052789053796715139_);" cx="818.94" cy="796.774" rx="1123.651" ry="109.226"/>
	</g>
	<ellipse style="fill:#6668AC;" cx="413" cy="-84" rx="75" ry="69"/>
	
		<linearGradient id="SVGID_00000134237168685305625150000009211328938746515884_" gradientUnits="userSpaceOnUse" x1="293.5033" y1="664.5243" x2="293.5033" y2="664.5243">
		<stop  offset="0.2825" style="stop-color:#6668AC"/>
		<stop  offset="0.3107" style="stop-color:#585994"/>
		<stop  offset="0.3639" style="stop-color:#40426D"/>
		<stop  offset="0.4208" style="stop-color:#2C2D4B"/>
		<stop  offset="0.4813" style="stop-color:#1C1D30"/>
		<stop  offset="0.5466" style="stop-color:#10101A"/>
		<stop  offset="0.619" style="stop-color:#07070B"/>
		<stop  offset="0.7043" style="stop-color:#020203"/>
		<stop  offset="0.8343" style="stop-color:#000000"/>
	</linearGradient>
	<path style="fill:url(#SVGID_00000134237168685305625150000009211328938746515884_);" d="M293.503,664.524"/>
</g>
<g id="&#x421;&#x43B;&#x43E;&#x439;_2">
</g>
</svg>
