<?xml version="1.0" encoding="iso-8859-1"?>
<!-- Generator: Adobe Illustrator 26.0.3, SVG Export Plug-In . SVG Version: 6.00 Build 0)  -->
<svg version="1.1" id="&#x421;&#x43B;&#x43E;&#x439;_1"
	 xmlns="http://www.w3.org/2000/svg" xmlns:xlink="http://www.w3.org/1999/xlink" x="0px" y="0px" viewBox="0 0 1564 800"
	 style="enable-background:new 0 0 1564 800;" xml:space="preserve">
<linearGradient id="SVGID_1_" gradientUnits="userSpaceOnUse" x1="779.8979" y1="766.9545" x2="784.5546" y2="514.5131">
	<stop  offset="0" style="stop-color:#6668AC"/>
	<stop  offset="0.0427" style="stop-color:#585994"/>
	<stop  offset="0.1231" style="stop-color:#40426D"/>
	<stop  offset="0.2091" style="stop-color:#2C2D4B"/>
	<stop  offset="0.3006" style="stop-color:#1C1D30"/>
	<stop  offset="0.3993" style="stop-color:#10101A"/>
	<stop  offset="0.5089" style="stop-color:#07070B"/>
	<stop  offset="0.6378" style="stop-color:#020203"/>
	<stop  offset="0.8343" style="stop-color:#000000"/>
</linearGradient>
<rect y="561" style="opacity:0.7;fill:url(#SVGID_1_);" width="1564" height="184"/>
<g>
	
		<linearGradient id="SVGID_00000139260282490669052830000014402470303741786790_" gradientUnits="userSpaceOnUse" x1="584.0497" y1="646.4736" x2="583.166" y2="829.7799">
		<stop  offset="0" style="stop-color:#6668AC"/>
		<stop  offset="0.0856" style="stop-color:#55568F"/>
		<stop  offset="0.2701" style="stop-color:#292A45"/>
		<stop  offset="0.4295" style="stop-color:#000000"/>
	</linearGradient>
	
		<ellipse style="fill:url(#SVGID_00000139260282490669052830000014402470303741786790_);" cx="583.5" cy="760.5" rx="424.5" ry="69.5"/>
</g>
<g>
	
		<linearGradient id="SVGID_00000000918746284880707630000013656550439249724845_" gradientUnits="userSpaceOnUse" x1="196.5702" y1="630.2277" x2="195.6661" y2="817.772">
		<stop  offset="0.0663" style="stop-color:#6668AC"/>
		<stop  offset="0.1387" style="stop-color:#55568F"/>
		<stop  offset="0.2947" style="stop-color:#292A45"/>
		<stop  offset="0.4295" style="stop-color:#000000"/>
	</linearGradient>
	<path style="fill:url(#SVGID_00000000918746284880707630000013656550439249724845_);" d="M605,748.5
		c0,38.384-183.116,69.5-409,69.5s-409-31.116-409-69.5s183.798-87.048,409-69.5C427,697,605,710.116,605,748.5z"/>
</g>
<linearGradient id="SVGID_00000039854476707443851460000008697089872394601142_" gradientUnits="userSpaceOnUse" x1="744.9617" y1="146.8616" x2="750.8501" y2="108.2346" gradientTransform="matrix(-0.9994 0.0359 -0.0283 -0.7884 976.5258 789.2178)">
	<stop  offset="0" style="stop-color:#6668AC"/>
	<stop  offset="0.0254" style="stop-color:#585994"/>
	<stop  offset="0.0731" style="stop-color:#40426D"/>
	<stop  offset="0.1243" style="stop-color:#2C2D4B"/>
	<stop  offset="0.1786" style="stop-color:#1C1D30"/>
	<stop  offset="0.2373" style="stop-color:#10101A"/>
	<stop  offset="0.3024" style="stop-color:#07070B"/>
	<stop  offset="0.379" style="stop-color:#020203"/>
	<stop  offset="0.4958" style="stop-color:#000000"/>
</linearGradient>
<path style="fill:url(#SVGID_00000039854476707443851460000008697089872394601142_);" d="M202.957,726.239
	c4.531-0.163,8.794-0.698,12.56-1.507c5.05,1.426,11.719,2.166,18.999,1.905c8.496-0.305,16.059-1.914,21.137-4.206
	c0.022-0.001,0.043-0.001,0.065-0.002c15.525-0.558,20.274-1.944,20.077-7.435c-0.197-5.49-10.123-6.047-19.798-8.269
	c-9.949-2.286-7.721-3.768-14.017-4.486c-4.166-0.698-9.894-1.601-15.016-1.417c-6.715,0.241-12.919,4.032-17.704,5.595
	c-9.466-3.475-14.873,4.22-17.298,4.238c-15.531,0.118-17.759,5.741-17.561,11.231C174.598,727.376,187.431,726.797,202.957,726.239
	z"/>
<linearGradient id="SVGID_00000064312670038991049360000000998272151695475081_" gradientUnits="userSpaceOnUse" x1="721.2518" y1="142.1484" x2="723.8677" y2="124.9877" gradientTransform="matrix(-0.9994 0.0359 -0.0283 -0.7884 976.5258 789.2178)">
	<stop  offset="0" style="stop-color:#6668AC"/>
	<stop  offset="0.0254" style="stop-color:#585994"/>
	<stop  offset="0.0731" style="stop-color:#40426D"/>
	<stop  offset="0.1243" style="stop-color:#2C2D4B"/>
	<stop  offset="0.1786" style="stop-color:#1C1D30"/>
	<stop  offset="0.2373" style="stop-color:#10101A"/>
	<stop  offset="0.3024" style="stop-color:#07070B"/>
	<stop  offset="0.379" style="stop-color:#020203"/>
	<stop  offset="0.4958" style="stop-color:#000000"/>
</linearGradient>
<path style="fill:url(#SVGID_00000064312670038991049360000000998272151695475081_);" d="M240.638,714.628
	c2.013-0.072,3.907-0.31,5.58-0.67c2.244,0.634,5.206,0.962,8.441,0.846c3.775-0.136,7.134-0.85,9.391-1.868
	c0.01,0,0.019,0,0.029-0.001c6.897-0.248,9.007-0.864,8.919-3.303c-0.088-2.439-4.497-2.686-8.796-3.674
	c-4.42-1.016-3.43-1.674-6.227-1.993c-1.851-0.31-4.395-0.711-6.671-0.63c-2.983,0.107-5.74,1.791-7.865,2.486
	c-4.206-1.544-6.608,1.875-7.685,1.883c-6.9,0.052-7.89,2.551-7.802,4.99C228.039,715.133,233.74,714.876,240.638,714.628z"/>
<linearGradient id="SVGID_00000165224806766618669260000014675704710784375209_" gradientUnits="userSpaceOnUse" x1="680.35" y1="137.7482" x2="682.966" y2="120.5875" gradientTransform="matrix(-0.9994 0.0359 -0.0283 -0.7884 976.5258 789.2178)">
	<stop  offset="0" style="stop-color:#6668AC"/>
	<stop  offset="0.0254" style="stop-color:#585994"/>
	<stop  offset="0.0731" style="stop-color:#40426D"/>
	<stop  offset="0.1243" style="stop-color:#2C2D4B"/>
	<stop  offset="0.1786" style="stop-color:#1C1D30"/>
	<stop  offset="0.2373" style="stop-color:#10101A"/>
	<stop  offset="0.3024" style="stop-color:#07070B"/>
	<stop  offset="0.379" style="stop-color:#020203"/>
	<stop  offset="0.4958" style="stop-color:#000000"/>
</linearGradient>
<path style="fill:url(#SVGID_00000165224806766618669260000014675704710784375209_);" d="M281.638,716.628
	c2.013-0.072,3.907-0.31,5.58-0.67c2.244,0.634,5.206,0.962,8.441,0.846c3.775-0.136,7.134-0.85,9.391-1.868
	c0.01,0,0.019,0,0.029-0.001c6.897-0.248,9.007-0.864,8.919-3.303c-0.088-2.439-4.497-2.686-8.796-3.674
	c-4.42-1.016-3.43-1.674-6.227-1.993c-1.851-0.31-4.395-0.711-6.671-0.63c-2.983,0.107-5.74,1.791-7.865,2.486
	c-4.206-1.544-6.608,1.875-7.685,1.883c-6.9,0.052-7.89,2.551-7.802,4.99C269.039,717.133,274.74,716.876,281.638,716.628z"/>
<linearGradient id="SVGID_00000124843528745744647300000017011534920232650677_" gradientUnits="userSpaceOnUse" x1="704.4423" y1="135.0404" x2="707.0583" y2="117.8797" gradientTransform="matrix(-0.9994 0.0359 -0.0283 -0.7884 976.5258 789.2178)">
	<stop  offset="0" style="stop-color:#6668AC"/>
	<stop  offset="0.0254" style="stop-color:#585994"/>
	<stop  offset="0.0731" style="stop-color:#40426D"/>
	<stop  offset="0.1243" style="stop-color:#2C2D4B"/>
	<stop  offset="0.1786" style="stop-color:#1C1D30"/>
	<stop  offset="0.2373" style="stop-color:#10101A"/>
	<stop  offset="0.3024" style="stop-color:#07070B"/>
	<stop  offset="0.379" style="stop-color:#020203"/>
	<stop  offset="0.4958" style="stop-color:#000000"/>
</linearGradient>
<path style="fill:url(#SVGID_00000124843528745744647300000017011534920232650677_);" d="M257.638,719.628
	c2.013-0.072,3.907-0.31,5.58-0.67c2.244,0.634,5.206,0.962,8.441,0.846c3.775-0.136,7.134-0.85,9.391-1.868
	c0.01,0,0.019,0,0.029-0.001c6.897-0.248,9.007-0.864,8.919-3.303c-0.088-2.439-4.497-2.686-8.796-3.674
	c-4.42-1.016-3.43-1.674-6.227-1.993c-1.851-0.31-4.395-0.711-6.671-0.63c-2.983,0.107-5.74,1.791-7.865,2.486
	c-4.206-1.544-6.608,1.875-7.685,1.883c-6.9,0.052-7.89,2.551-7.802,4.99C245.039,720.133,250.74,719.876,257.638,719.628z"/>
<linearGradient id="SVGID_00000055707344717803486240000001792185871651336832_" gradientUnits="userSpaceOnUse" x1="-364.0418" y1="122.4206" x2="-367.6796" y2="85.6072" gradientTransform="matrix(-1.3606 0.0318 -0.0184 -0.7887 790.5323 779.7917)">
	<stop  offset="0" style="stop-color:#6668AC"/>
	<stop  offset="0.0457" style="stop-color:#575892"/>
	<stop  offset="0.1249" style="stop-color:#40416B"/>
	<stop  offset="0.2099" style="stop-color:#2C2D4A"/>
	<stop  offset="0.3005" style="stop-color:#1C1C2F"/>
	<stop  offset="0.3988" style="stop-color:#0F101A"/>
	<stop  offset="0.5084" style="stop-color:#07070B"/>
	<stop  offset="0.6387" style="stop-color:#020203"/>
	<stop  offset="0.8423" style="stop-color:#000000"/>
</linearGradient>
<path style="opacity:0.63;fill:url(#SVGID_00000055707344717803486240000001792185871651336832_);" d="M1258.074,695.401
	c5.84-0.136,11.344-0.626,16.215-1.378c6.471,1.37,15.043,2.097,24.427,1.878c10.952-0.256,20.731-1.749,27.329-3.9
	c0.028-0.001,0.055-0.001,0.083-0.001c20.012-0.468,26.162-1.762,26.041-6.962c-0.121-5.2-12.894-5.765-25.303-7.908
	c-12.76-2.203-9.854-3.599-17.947-4.303c-5.35-0.677-12.706-1.555-19.308-1.401c-8.656,0.202-16.739,3.767-22.94,5.229
	c-12.11-3.328-19.26,3.938-22.384,3.946c-20.009,0.051-23.014,5.367-22.892,10.567
	C1221.517,696.367,1238.062,695.868,1258.074,695.401z"/>
<linearGradient id="SVGID_00000132067269763768435840000004027437307440454827_" gradientUnits="userSpaceOnUse" x1="726.1895" y1="138.3957" x2="732.0778" y2="99.7687" gradientTransform="matrix(-0.9994 0.0359 -0.0283 -0.7884 976.5258 789.2178)">
	<stop  offset="0" style="stop-color:#6668AC"/>
	<stop  offset="0.0101" style="stop-color:#585994"/>
	<stop  offset="0.0291" style="stop-color:#40426D"/>
	<stop  offset="0.0495" style="stop-color:#2C2D4B"/>
	<stop  offset="0.0711" style="stop-color:#1C1D30"/>
	<stop  offset="0.0945" style="stop-color:#10101A"/>
	<stop  offset="0.1204" style="stop-color:#07070B"/>
	<stop  offset="0.1509" style="stop-color:#020203"/>
	<stop  offset="0.1974" style="stop-color:#000000"/>
</linearGradient>
<path style="fill:url(#SVGID_00000132067269763768435840000004027437307440454827_);" d="M221.957,732.239
	c4.531-0.163,8.794-0.698,12.56-1.507c5.05,1.426,11.719,2.166,18.999,1.905c8.496-0.305,16.059-1.914,21.137-4.206
	c0.022-0.001,0.043-0.001,0.065-0.002c15.525-0.558,20.274-1.944,20.077-7.435c-0.197-5.49-10.123-6.047-19.798-8.269
	c-9.949-2.286-7.721-3.768-14.017-4.486c-4.166-0.698-9.894-1.601-15.016-1.417c-6.715,0.241-12.919,4.032-17.704,5.595
	c-9.466-3.475-14.873,4.22-17.298,4.238c-15.531,0.118-17.759,5.741-17.561,11.231C193.598,733.376,206.431,732.797,221.957,732.239
	z"/>
<linearGradient id="SVGID_00000173147208993350143080000011742123521245104027_" gradientUnits="userSpaceOnUse" x1="802.9349" y1="149.8241" x2="803.6555" y2="110.7576" gradientTransform="matrix(-0.9994 0.0359 -0.0283 -0.7884 976.5258 789.2178)">
	<stop  offset="0" style="stop-color:#6668AC"/>
	<stop  offset="0.0427" style="stop-color:#585994"/>
	<stop  offset="0.1231" style="stop-color:#40426D"/>
	<stop  offset="0.2091" style="stop-color:#2C2D4B"/>
	<stop  offset="0.3006" style="stop-color:#1C1D30"/>
	<stop  offset="0.3993" style="stop-color:#10101A"/>
	<stop  offset="0.5089" style="stop-color:#07070B"/>
	<stop  offset="0.6378" style="stop-color:#020203"/>
	<stop  offset="0.8343" style="stop-color:#000000"/>
</linearGradient>
<path style="fill:url(#SVGID_00000173147208993350143080000011742123521245104027_);" d="M147.957,726.239
	c4.531-0.163,8.794-0.698,12.56-1.507c5.05,1.426,11.719,2.166,18.999,1.905c8.496-0.305,16.059-1.914,21.137-4.206
	c0.022-0.001,0.043-0.001,0.065-0.002c15.525-0.558,20.274-1.944,20.077-7.435c-0.197-5.49-10.123-6.047-19.798-8.269
	c-9.949-2.286-7.721-3.768-14.017-4.486c-4.166-0.698-9.894-1.601-15.016-1.417c-6.715,0.241-12.919,4.032-17.704,5.595
	c-9.466-3.475-14.873,4.22-17.298,4.238c-15.531,0.118-17.759,5.741-17.561,11.231C119.598,727.376,132.431,726.797,147.957,726.239
	z"/>
<linearGradient id="SVGID_00000038374708743391256320000007600512563068526256_" gradientUnits="userSpaceOnUse" x1="714.9266" y1="147.6844" x2="715.6472" y2="108.6179" gradientTransform="matrix(1.771 -0.0636 -0.0283 -0.7884 -1186.9763 866.9694)">
	<stop  offset="0" style="stop-color:#6668AC"/>
	<stop  offset="0.0427" style="stop-color:#585994"/>
	<stop  offset="0.1231" style="stop-color:#40426D"/>
	<stop  offset="0.2091" style="stop-color:#2C2D4B"/>
	<stop  offset="0.3006" style="stop-color:#1C1D30"/>
	<stop  offset="0.3993" style="stop-color:#10101A"/>
	<stop  offset="0.5089" style="stop-color:#07070B"/>
	<stop  offset="0.6378" style="stop-color:#020203"/>
	<stop  offset="0.8343" style="stop-color:#000000"/>
</linearGradient>
<path style="fill:url(#SVGID_00000038374708743391256320000007600512563068526256_);" d="M116.33,729.065
	c-8.029,0.289-15.622,0.18-22.363-0.252c-8.79,1.923-20.51,3.325-33.411,3.788c-15.057,0.541-28.591-0.309-37.801-2.088
	c-0.038,0.001-0.076,0.003-0.115,0.005c-27.513,0.989-36.049,0.08-36.246-5.41c-0.197-5.49,17.302-7.032,34.192-10.21
	c17.367-3.267,13.28-4.523,24.343-5.865c7.299-1.11,17.338-2.58,26.416-2.906c11.9-0.428,23.25,2.732,31.867,3.813
	c16.396-4.405,26.724,2.725,31.014,2.502c27.48-1.428,31.979,3.954,32.176,9.444C166.598,727.376,143.843,728.076,116.33,729.065z"
	/>
<linearGradient id="SVGID_00000051364779246723754330000005884817398816346020_" gradientUnits="userSpaceOnUse" x1="172.2974" y1="26.6556" x2="169.9609" y2="3.011" gradientTransform="matrix(-0.9977 -0.0681 0.0537 -0.787 973.0878 739.0923)">
	<stop  offset="0" style="stop-color:#6668AC"/>
	<stop  offset="0.0287" style="stop-color:#575892"/>
	<stop  offset="0.0783" style="stop-color:#40416B"/>
	<stop  offset="0.1316" style="stop-color:#2C2D4A"/>
	<stop  offset="0.1884" style="stop-color:#1C1C2F"/>
	<stop  offset="0.25" style="stop-color:#0F101A"/>
	<stop  offset="0.3187" style="stop-color:#07070B"/>
	<stop  offset="0.4003" style="stop-color:#020203"/>
	<stop  offset="0.528" style="stop-color:#000000"/>
</linearGradient>
<path style="fill:url(#SVGID_00000051364779246723754330000005884817398816346020_);" d="M789.339,720.367
	c2.751,0.188,5.363,0.133,7.692-0.118c2.964,1.181,6.951,2.05,11.37,2.352c5.158,0.352,9.833-0.143,13.049-1.209
	c0.013,0.001,0.026,0.002,0.039,0.003c9.425,0.643,12.384,0.105,12.612-3.228c0.227-3.333-5.741-4.296-11.452-6.252
	c-5.873-2.011-4.432-2.767-8.194-3.599c-2.476-0.685-5.883-1.593-8.992-1.805c-4.077-0.278-8.068,1.622-11.061,2.266
	c-5.506-2.7-9.262,1.613-10.729,1.471c-9.401-0.91-11.103,2.351-11.331,5.684S779.914,719.724,789.339,720.367z"/>
<linearGradient id="SVGID_00000151534796275039548040000015804091448241393569_" gradientUnits="userSpaceOnUse" x1="-427.252" y1="122.6029" x2="-430.8898" y2="85.7895" gradientTransform="matrix(-1.3606 0.0318 -0.0184 -0.7887 790.5323 779.7917)">
	<stop  offset="0" style="stop-color:#6668AC"/>
	<stop  offset="0.0457" style="stop-color:#575892"/>
	<stop  offset="0.1249" style="stop-color:#40416B"/>
	<stop  offset="0.2099" style="stop-color:#2C2D4A"/>
	<stop  offset="0.3005" style="stop-color:#1C1C2F"/>
	<stop  offset="0.3988" style="stop-color:#0F101A"/>
	<stop  offset="0.5084" style="stop-color:#07070B"/>
	<stop  offset="0.6387" style="stop-color:#020203"/>
	<stop  offset="0.8423" style="stop-color:#000000"/>
</linearGradient>
<path style="opacity:0.63;fill:url(#SVGID_00000151534796275039548040000015804091448241393569_);" d="M1344.074,693.247
	c5.84-0.136,11.344-0.626,16.215-1.378c6.471,1.37,15.043,2.097,24.427,1.878c10.952-0.256,20.731-1.749,27.329-3.9
	c0.028-0.001,0.055-0.001,0.083-0.001c20.012-0.468,26.162-1.762,26.041-6.962c-0.121-5.2-12.894-5.765-25.303-7.908
	c-12.76-2.203-9.854-3.599-17.947-4.303c-5.35-0.677-12.706-1.555-19.308-1.401c-8.656,0.202-16.739,3.767-22.94,5.229
	c-12.11-3.328-19.26,3.938-22.384,3.946c-20.009,0.051-23.014,5.367-22.892,10.567
	C1307.517,694.213,1324.062,693.715,1344.074,693.247z"/>
<linearGradient id="SVGID_00000109006624489532231920000015121492273371375293_" gradientUnits="userSpaceOnUse" x1="-317.6779" y1="117.95" x2="-321.3157" y2="81.1366" gradientTransform="matrix(-1.3606 0.0318 -0.0184 -0.7887 790.5323 779.7917)">
	<stop  offset="0" style="stop-color:#6668AC"/>
	<stop  offset="0.0457" style="stop-color:#575892"/>
	<stop  offset="0.1249" style="stop-color:#40416B"/>
	<stop  offset="0.2099" style="stop-color:#2C2D4A"/>
	<stop  offset="0.3005" style="stop-color:#1C1C2F"/>
	<stop  offset="0.3988" style="stop-color:#0F101A"/>
	<stop  offset="0.5084" style="stop-color:#07070B"/>
	<stop  offset="0.6387" style="stop-color:#020203"/>
	<stop  offset="0.8423" style="stop-color:#000000"/>
</linearGradient>
<path style="opacity:0.63;fill:url(#SVGID_00000109006624489532231920000015121492273371375293_);" d="M1195.074,700.401
	c5.84-0.136,11.344-0.626,16.215-1.378c6.471,1.37,15.043,2.097,24.427,1.878c10.952-0.256,20.731-1.749,27.329-3.9
	c0.028-0.001,0.055-0.001,0.083-0.001c20.012-0.468,26.162-1.762,26.041-6.962c-0.121-5.2-12.894-5.765-25.303-7.908
	c-12.76-2.203-9.854-3.599-17.947-4.303c-5.35-0.677-12.706-1.555-19.308-1.401c-8.656,0.202-16.739,3.767-22.94,5.229
	c-12.11-3.328-19.26,3.938-22.384,3.946c-20.009,0.051-23.014,5.367-22.892,10.567
	C1158.517,701.367,1175.062,700.868,1195.074,700.401z"/>
<linearGradient id="SVGID_00000052788840626470592900000003906740840402940306_" gradientUnits="userSpaceOnUse" x1="290.6346" y1="25.2971" x2="288.298" y2="1.6524" gradientTransform="matrix(-2.5033 -0.043 0.0135 -0.7888 1420.7526 732.5936)">
	<stop  offset="0" style="stop-color:#6668AC"/>
	<stop  offset="0.0125" style="stop-color:#6163A3"/>
	<stop  offset="0.0725" style="stop-color:#4A4C7D"/>
	<stop  offset="0.1391" style="stop-color:#36375B"/>
	<stop  offset="0.2118" style="stop-color:#25263F"/>
	<stop  offset="0.2928" style="stop-color:#171827"/>
	<stop  offset="0.3856" style="stop-color:#0D0D16"/>
	<stop  offset="0.4974" style="stop-color:#050609"/>
	<stop  offset="0.6476" style="stop-color:#010102"/>
	<stop  offset="1" style="stop-color:#000000"/>
</linearGradient>
<path style="fill:url(#SVGID_00000052788840626470592900000003906740840402940306_);" d="M662.512,714.469
	c6.901,0.119,13.42-0.002,19.2-0.312c7.588,1.107,17.682,1.876,28.77,2.067c12.942,0.222,24.547-0.391,32.421-1.538
	c0.033,0.001,0.065,0.001,0.098,0.002c23.648,0.406,30.96-0.207,31.018-3.547c0.057-3.34-15.002-4.154-29.572-5.966
	c-14.982-1.864-11.497-2.657-21.025-3.394c-6.291-0.623-14.943-1.446-22.745-1.58c-10.229-0.176-19.911,1.826-27.289,2.545
	c-14.171-2.562-22.895,1.847-26.583,1.741c-23.628-0.674-27.382,2.631-27.44,5.971C619.308,713.799,638.863,714.063,662.512,714.469
	z"/>
<g>
	
		<linearGradient id="SVGID_00000103987622775809843740000005679143498500003727_" gradientUnits="userSpaceOnUse" x1="508.9869" y1="667.5018" x2="508.2042" y2="829.8643">
		<stop  offset="0" style="stop-color:#6668AC"/>
		<stop  offset="0.0724" style="stop-color:#55568F"/>
		<stop  offset="0.2283" style="stop-color:#292A45"/>
		<stop  offset="0.3632" style="stop-color:#000000"/>
	</linearGradient>
	
		<ellipse style="fill:url(#SVGID_00000103987622775809843740000005679143498500003727_);" cx="508.5" cy="768.5" rx="670.5" ry="61.5"/>
</g>
<g>
	
		<linearGradient id="SVGID_00000011017104599366046620000013668986429040767385_" gradientUnits="userSpaceOnUse" x1="1198.517" y1="636.0406" x2="1197.5851" y2="829.3569">
		<stop  offset="0.0663" style="stop-color:#6668AC"/>
		<stop  offset="0.1387" style="stop-color:#55568F"/>
		<stop  offset="0.2947" style="stop-color:#292A45"/>
		<stop  offset="0.4295" style="stop-color:#000000"/>
	</linearGradient>
	<path style="fill:url(#SVGID_00000011017104599366046620000013668986429040767385_);" d="M1606,759.5
		c-30.011,86.906-183.115,69.5-409,69.5s-409-31.116-409-69.5S977,707,1197,690C1422.213,672.597,1630,690,1606,759.5z"/>
</g>
<linearGradient id="SVGID_00000171696969806513041650000007071850369898854551_" gradientUnits="userSpaceOnUse" x1="-348.4691" y1="43.9923" x2="-352.1069" y2="7.1789" gradientTransform="matrix(-2.4335 -0.2698 0.1417 -1.2775 463.7298 688.6501)">
	<stop  offset="0" style="stop-color:#6668AC"/>
	<stop  offset="0.0457" style="stop-color:#575892"/>
	<stop  offset="0.1249" style="stop-color:#40416B"/>
	<stop  offset="0.2099" style="stop-color:#2C2D4A"/>
	<stop  offset="0.3005" style="stop-color:#1C1C2F"/>
	<stop  offset="0.3988" style="stop-color:#0F101A"/>
	<stop  offset="0.5084" style="stop-color:#07070B"/>
	<stop  offset="0.6387" style="stop-color:#020203"/>
	<stop  offset="0.8423" style="stop-color:#000000"/>
</linearGradient>
<path style="opacity:0.63;fill:url(#SVGID_00000171696969806513041650000007071850369898854551_);" d="M1267.196,758.766
	c10.446,1.158,20.37,1.666,29.223,1.602c11.237,3.739,26.363,6.936,43.146,8.797c19.588,2.172,37.359,2.069,49.601,0.155
	c0.05,0.006,0.099,0.012,0.149,0.017c35.792,3.969,47.046,3.331,47.98-5.092s-21.719-12.351-43.374-18.739
	c-22.268-6.569-16.778-8.136-31.053-11.183c-9.391-2.356-22.315-5.509-34.123-6.818c-15.481-1.717-30.685,2.131-42.067,3.026
	c-20.86-8.231-35.22,1.811-40.791,1.086c-35.694-4.641-42.23,3.232-43.164,11.655
	C1201.788,751.696,1231.404,754.797,1267.196,758.766z"/>
<linearGradient id="SVGID_00000080186515257698233900000009871769492729392295_" gradientUnits="userSpaceOnUse" x1="-251.8546" y1="31.1659" x2="-255.4924" y2="-5.6475" gradientTransform="matrix(-2.4478 -0.0532 0.0279 -1.285 461.7951 745.4673)">
	<stop  offset="0" style="stop-color:#6668AC"/>
	<stop  offset="0.0457" style="stop-color:#575892"/>
	<stop  offset="0.1249" style="stop-color:#40416B"/>
	<stop  offset="0.2099" style="stop-color:#2C2D4A"/>
	<stop  offset="0.3005" style="stop-color:#1C1C2F"/>
	<stop  offset="0.3988" style="stop-color:#0F101A"/>
	<stop  offset="0.5084" style="stop-color:#07070B"/>
	<stop  offset="0.6387" style="stop-color:#020203"/>
	<stop  offset="0.8423" style="stop-color:#000000"/>
</linearGradient>
<path style="opacity:0.63;fill:url(#SVGID_00000080186515257698233900000009871769492729392295_);" d="M1031.462,755.466
	c10.507,0.228,20.437-0.145,29.25-0.993c11.524,2.729,26.874,4.573,43.756,4.94c19.703,0.428,37.395-1.249,49.419-4.241
	c0.05,0.001,0.1,0.003,0.15,0.004c36.003,0.782,47.156-0.85,47.34-9.323c0.184-8.473-22.727-10.378-44.864-14.822
	c-22.762-4.57-17.432-6.617-31.922-8.387c-9.562-1.514-22.715-3.51-34.593-3.768c-15.572-0.338-30.376,4.841-41.634,6.742
	c-21.507-6.35-34.921,4.924-40.535,4.696c-35.965-1.46-41.778,6.961-41.962,15.434C965.685,754.22,995.459,754.684,1031.462,755.466
	z"/>
<linearGradient id="SVGID_00000124144077956637258450000017952913808482034360_" gradientUnits="userSpaceOnUse" x1="-459.2369" y1="46.8112" x2="-462.8747" y2="9.9978" gradientTransform="matrix(-0.9977 -0.0681 0.0537 -0.787 973.0878 739.0923)">
	<stop  offset="0" style="stop-color:#6668AC"/>
	<stop  offset="0.0287" style="stop-color:#575892"/>
	<stop  offset="0.0783" style="stop-color:#40416B"/>
	<stop  offset="0.1316" style="stop-color:#2C2D4A"/>
	<stop  offset="0.1884" style="stop-color:#1C1C2F"/>
	<stop  offset="0.25" style="stop-color:#0F101A"/>
	<stop  offset="0.3187" style="stop-color:#07070B"/>
	<stop  offset="0.4003" style="stop-color:#020203"/>
	<stop  offset="0.528" style="stop-color:#000000"/>
</linearGradient>
<path style="fill:url(#SVGID_00000124144077956637258450000017952913808482034360_);" d="M1413.093,755.288
	c4.282,0.292,8.349,0.208,11.975-0.184c4.615,1.839,10.822,3.192,17.703,3.662c8.031,0.548,15.309-0.223,20.317-1.882
	c0.02,0.001,0.041,0.003,0.061,0.005c14.674,1.001,19.282,0.163,19.636-5.026s-8.938-6.689-17.83-9.734
	c-9.143-3.131-6.9-4.308-12.757-5.603c-3.854-1.067-9.159-2.481-14-2.811c-6.347-0.433-12.562,2.526-17.221,3.527
	c-8.572-4.203-14.42,2.511-16.705,2.29c-14.636-1.416-17.287,3.66-17.641,8.849C1386.277,753.57,1398.419,754.286,1413.093,755.288z
	"/>
<linearGradient id="SVGID_00000093177472796053742360000010629459840405363359_" gradientUnits="userSpaceOnUse" x1="-513.6695" y1="33.3898" x2="-516.7367" y2="2.3507" gradientTransform="matrix(-0.9982 -0.0594 0.0469 -0.7875 972.9619 743.6112)">
	<stop  offset="0" style="stop-color:#6668AC"/>
	<stop  offset="0.0287" style="stop-color:#575892"/>
	<stop  offset="0.0783" style="stop-color:#40416B"/>
	<stop  offset="0.1316" style="stop-color:#2C2D4A"/>
	<stop  offset="0.1884" style="stop-color:#1C1C2F"/>
	<stop  offset="0.25" style="stop-color:#0F101A"/>
	<stop  offset="0.3187" style="stop-color:#07070B"/>
	<stop  offset="0.4003" style="stop-color:#020203"/>
	<stop  offset="0.528" style="stop-color:#000000"/>
</linearGradient>
<path style="fill:url(#SVGID_00000093177472796053742360000010629459840405363359_);" d="M1470.012,766.35
	c3.613,0.215,7.041,0.114,10.095-0.243c3.905,1.517,9.147,2.612,14.952,2.958c6.775,0.403,12.906-0.3,17.116-1.735
	c0.017,0.001,0.034,0.003,0.052,0.004c12.379,0.737,16.258-0.004,16.519-4.381s-7.584-5.574-15.104-8.076
	c-7.732-2.573-5.849-3.582-10.797-4.63c-3.258-0.871-7.74-2.024-11.824-2.268c-5.354-0.319-10.572,2.222-14.493,3.1
	c-7.258-3.481-12.14,2.222-14.067,2.053c-12.35-1.087-14.548,3.212-14.809,7.59S1457.633,765.613,1470.012,766.35z"/>
<linearGradient id="SVGID_00000134962753183078317290000017908391009003644579_" gradientUnits="userSpaceOnUse" x1="-555.6073" y1="14.9667" x2="-558.6745" y2="-16.0725" gradientTransform="matrix(-0.9982 -0.0594 0.0469 -0.7875 972.9619 743.6112)">
	<stop  offset="0" style="stop-color:#6668AC"/>
	<stop  offset="0.0287" style="stop-color:#575892"/>
	<stop  offset="0.0783" style="stop-color:#40416B"/>
	<stop  offset="0.1316" style="stop-color:#2C2D4A"/>
	<stop  offset="0.1884" style="stop-color:#1C1C2F"/>
	<stop  offset="0.25" style="stop-color:#0F101A"/>
	<stop  offset="0.3187" style="stop-color:#07070B"/>
	<stop  offset="0.4003" style="stop-color:#020203"/>
	<stop  offset="0.528" style="stop-color:#000000"/>
</linearGradient>
<path style="fill:url(#SVGID_00000134962753183078317290000017908391009003644579_);" d="M1511.012,783.35
	c3.613,0.215,7.041,0.114,10.095-0.243c3.905,1.517,9.147,2.612,14.952,2.958c6.775,0.403,12.906-0.3,17.116-1.735
	c0.017,0.001,0.034,0.003,0.052,0.004c12.379,0.737,16.258-0.004,16.519-4.381s-7.584-5.574-15.104-8.076
	c-7.732-2.573-5.849-3.582-10.797-4.63c-3.258-0.871-7.74-2.024-11.824-2.268c-5.354-0.319-10.572,2.222-14.493,3.1
	c-7.258-3.481-12.14,2.222-14.067,2.053c-12.35-1.087-14.548,3.212-14.809,7.59S1498.633,782.613,1511.012,783.35z"/>
<linearGradient id="SVGID_00000041295467148285221990000015973119655072839854_" gradientUnits="userSpaceOnUse" x1="-270.51" y1="32.2855" x2="-273.235" y2="4.7091" gradientTransform="matrix(-0.9977 -0.0681 0.0537 -0.787 973.0878 739.0923)">
	<stop  offset="0" style="stop-color:#6668AC"/>
	<stop  offset="0.0287" style="stop-color:#575892"/>
	<stop  offset="0.0783" style="stop-color:#40416B"/>
	<stop  offset="0.1316" style="stop-color:#2C2D4A"/>
	<stop  offset="0.1884" style="stop-color:#1C1C2F"/>
	<stop  offset="0.25" style="stop-color:#0F101A"/>
	<stop  offset="0.3187" style="stop-color:#07070B"/>
	<stop  offset="0.4003" style="stop-color:#020203"/>
	<stop  offset="0.528" style="stop-color:#000000"/>
</linearGradient>
<path style="fill:url(#SVGID_00000041295467148285221990000015973119655072839854_);" d="M1229.213,748.408
	c3.208,0.219,6.254,0.156,8.971-0.138c3.457,1.378,8.107,2.391,13.261,2.743c6.016,0.411,11.468-0.167,15.219-1.41
	c0.015,0.001,0.03,0.002,0.046,0.004c10.992,0.75,14.444,0.122,14.709-3.765s-6.695-5.011-13.356-7.291
	c-6.849-2.345-5.168-3.227-9.556-4.197c-2.887-0.799-6.861-1.858-10.487-2.106c-4.755-0.324-9.41,1.892-12.9,2.642
	c-6.421-3.149-10.802,1.881-12.513,1.715c-10.964-1.061-12.949,2.741-13.214,6.629
	C1209.126,747.121,1218.221,747.658,1229.213,748.408z"/>
<linearGradient id="SVGID_00000114052109699167073640000001131150046684820918_" gradientUnits="userSpaceOnUse" x1="-234.5935" y1="29.1787" x2="-237.3185" y2="1.6023" gradientTransform="matrix(-0.9977 -0.0681 0.0537 -0.787 973.0878 739.0923)">
	<stop  offset="0" style="stop-color:#6668AC"/>
	<stop  offset="0.0287" style="stop-color:#575892"/>
	<stop  offset="0.0783" style="stop-color:#40416B"/>
	<stop  offset="0.1316" style="stop-color:#2C2D4A"/>
	<stop  offset="0.1884" style="stop-color:#1C1C2F"/>
	<stop  offset="0.25" style="stop-color:#0F101A"/>
	<stop  offset="0.3187" style="stop-color:#07070B"/>
	<stop  offset="0.4003" style="stop-color:#020203"/>
	<stop  offset="0.528" style="stop-color:#000000"/>
</linearGradient>
<path style="fill:url(#SVGID_00000114052109699167073640000001131150046684820918_);" d="M1193.213,748.408
	c3.208,0.219,6.254,0.156,8.971-0.138c3.457,1.378,8.107,2.391,13.261,2.743c6.016,0.411,11.468-0.167,15.219-1.41
	c0.015,0.001,0.03,0.002,0.046,0.004c10.992,0.75,14.444,0.122,14.709-3.765s-6.695-5.011-13.356-7.291
	c-6.849-2.345-5.168-3.227-9.556-4.197c-2.887-0.799-6.861-1.858-10.487-2.106c-4.755-0.324-9.41,1.892-12.9,2.642
	c-6.421-3.149-10.802,1.881-12.513,1.715c-10.964-1.061-12.949,2.741-13.214,6.629
	C1173.126,747.121,1182.221,747.658,1193.213,748.408z"/>
<linearGradient id="SVGID_00000060719231733475453110000004243163046920503706_" gradientUnits="userSpaceOnUse" x1="-408.0767" y1="44.4288" x2="-412.7052" y2="-2.4102" gradientTransform="matrix(-0.3925 -0.0268 0.0339 -0.4974 1184.6986 752.1393)">
	<stop  offset="0" style="stop-color:#6668AC"/>
	<stop  offset="0.0287" style="stop-color:#575892"/>
	<stop  offset="0.0783" style="stop-color:#40416B"/>
	<stop  offset="0.1316" style="stop-color:#2C2D4A"/>
	<stop  offset="0.1884" style="stop-color:#1C1C2F"/>
	<stop  offset="0.25" style="stop-color:#0F101A"/>
	<stop  offset="0.3187" style="stop-color:#07070B"/>
	<stop  offset="0.4003" style="stop-color:#020203"/>
	<stop  offset="0.528" style="stop-color:#000000"/>
</linearGradient>
<path style="fill:url(#SVGID_00000060719231733475453110000004243163046920503706_);" d="M1335.557,758.874
	c2.144,0.146,4.187-0.005,6.015-0.395c2.279,1.381,5.367,2.339,8.811,2.574c4.02,0.274,7.69-0.494,10.238-1.929
	c0.01,0.001,0.02,0.002,0.031,0.003c7.346,0.501,9.676-0.267,9.961-4.439c0.285-4.172-4.349-5.185-8.75-7.445
	c-4.525-2.324-3.375-3.315-6.289-4.234c-1.913-0.777-4.547-1.802-6.97-1.968c-3.177-0.217-6.358,2.286-8.717,3.186
	c-4.217-3.197-7.291,2.312-8.433,2.182c-7.318-0.835-8.753,3.294-9.038,7.466C1322.131,758.048,1328.211,758.373,1335.557,758.874z"
	/>
<linearGradient id="SVGID_00000173135607571995153010000000265580277274677918_" gradientUnits="userSpaceOnUse" x1="-485.8215" y1="58.6684" x2="-490.45" y2="11.8295" gradientTransform="matrix(-0.3925 -0.0268 0.0339 -0.4974 1184.6986 752.1393)">
	<stop  offset="0" style="stop-color:#6668AC"/>
	<stop  offset="0.0287" style="stop-color:#575892"/>
	<stop  offset="0.0783" style="stop-color:#40416B"/>
	<stop  offset="0.1316" style="stop-color:#2C2D4A"/>
	<stop  offset="0.1884" style="stop-color:#1C1C2F"/>
	<stop  offset="0.25" style="stop-color:#0F101A"/>
	<stop  offset="0.3187" style="stop-color:#07070B"/>
	<stop  offset="0.4003" style="stop-color:#020203"/>
	<stop  offset="0.528" style="stop-color:#000000"/>
</linearGradient>
<path style="fill:url(#SVGID_00000173135607571995153010000000265580277274677918_);" d="M1366.557,753.874
	c2.144,0.146,4.187-0.005,6.015-0.395c2.279,1.381,5.367,2.339,8.811,2.574c4.02,0.274,7.69-0.494,10.238-1.929
	c0.01,0.001,0.02,0.002,0.031,0.003c7.346,0.501,9.676-0.267,9.961-4.439c0.285-4.172-4.349-5.185-8.75-7.445
	c-4.525-2.324-3.375-3.315-6.289-4.234c-1.913-0.777-4.547-1.802-6.97-1.968c-3.177-0.217-6.358,2.286-8.717,3.186
	c-4.217-3.197-7.291,2.312-8.433,2.182c-7.318-0.835-8.753,3.294-9.038,7.466C1353.131,753.048,1359.211,753.373,1366.557,753.874z"
	/>
<linearGradient id="SVGID_00000112619711022016704790000017132935651619754885_" gradientUnits="userSpaceOnUse" x1="-504.9153" y1="37.3426" x2="-509.5439" y2="-9.4963" gradientTransform="matrix(0.3592 0.0245 0.0339 -0.4974 1562.4763 777.9186)">
	<stop  offset="0" style="stop-color:#6668AC"/>
	<stop  offset="0.0287" style="stop-color:#575892"/>
	<stop  offset="0.0783" style="stop-color:#40416B"/>
	<stop  offset="0.1316" style="stop-color:#2C2D4A"/>
	<stop  offset="0.1884" style="stop-color:#1C1C2F"/>
	<stop  offset="0.25" style="stop-color:#0F101A"/>
	<stop  offset="0.3187" style="stop-color:#07070B"/>
	<stop  offset="0.4003" style="stop-color:#020203"/>
	<stop  offset="0.528" style="stop-color:#000000"/>
</linearGradient>
<path style="fill:url(#SVGID_00000112619711022016704790000017132935651619754885_);" d="M1389.856,766.12
	c-1.962-0.134-3.794-0.55-5.4-1.174c-2.245,1.073-5.168,1.62-8.32,1.405c-3.679-0.251-6.905-1.49-9.027-3.244
	c-0.009-0.001-0.019-0.001-0.028-0.001c-6.722-0.459-8.734-1.523-8.45-5.695c0.285-4.172,4.616-4.573,8.898-6.241
	c4.403-1.715,3.49-2.847,6.25-3.378c1.835-0.521,4.355-1.195,6.573-1.043c2.908,0.198,5.465,3.093,7.486,4.292
	c4.237-2.62,6.306,3.24,7.359,3.26c6.741,0.124,7.504,4.403,7.22,8.576C1402.131,767.048,1396.578,766.579,1389.856,766.12z"/>
<linearGradient id="SVGID_00000137089727382175778550000003583918551744517289_" gradientUnits="userSpaceOnUse" x1="290.0535" y1="166.1904" x2="292.3652" y2="40.8715" gradientTransform="matrix(-1 0 0 -0.7889 973.9258 809.5553)">
	<stop  offset="0.2825" style="stop-color:#6668AC"/>
	<stop  offset="0.3107" style="stop-color:#585994"/>
	<stop  offset="0.3639" style="stop-color:#40426D"/>
	<stop  offset="0.4208" style="stop-color:#2C2D4B"/>
	<stop  offset="0.4813" style="stop-color:#1C1D30"/>
	<stop  offset="0.5466" style="stop-color:#10101A"/>
	<stop  offset="0.619" style="stop-color:#07070B"/>
	<stop  offset="0.7043" style="stop-color:#020203"/>
	<stop  offset="0.8343" style="stop-color:#000000"/>
</linearGradient>
<path style="fill:url(#SVGID_00000137089727382175778550000003583918551744517289_);" d="M853,735.391
	c0-6.002-33.234-6.999-65.425-9.806c-33.101-2.886-25.449-4.418-46.484-5.448c-13.893-0.925-30.829-7.136-50.206-2.136
	c-20.041,5.171-34.694-3-60.07,5.414c-31.34-4.166-50.408,4.024-58.543,3.949c-52.12-0.481-60.271,5.572-60.271,11.574
	c0,3.001,91.136-3.593,176.233-0.937C752.318,740,853,738.392,853,735.391z"/>
<linearGradient id="SVGID_00000050629690208856885140000003914959103363723943_" gradientUnits="userSpaceOnUse" x1="240.5195" y1="137.5524" x2="241.938" y2="60.6541" gradientTransform="matrix(-1 0 0 -0.7889 973.9258 809.5553)">
	<stop  offset="0.2825" style="stop-color:#6668AC"/>
	<stop  offset="0.3107" style="stop-color:#585994"/>
	<stop  offset="0.3639" style="stop-color:#40426D"/>
	<stop  offset="0.4208" style="stop-color:#2C2D4B"/>
	<stop  offset="0.4813" style="stop-color:#1C1D30"/>
	<stop  offset="0.5466" style="stop-color:#10101A"/>
	<stop  offset="0.619" style="stop-color:#07070B"/>
	<stop  offset="0.7043" style="stop-color:#020203"/>
	<stop  offset="0.8343" style="stop-color:#000000"/>
</linearGradient>
<path style="fill:url(#SVGID_00000050629690208856885140000003914959103363723943_);" d="M830.971,735.791
	c0-4.07-19.181-4.745-37.76-6.648c-19.104-1.957-14.688-2.995-26.829-3.694c-8.018-0.627-19.046-1.448-28.977-1.448
	c-13.02,0-25.296,2.641-34.67,3.671c-18.088-2.824-29.093,2.728-33.788,2.677c-30.081-0.326-34.786,3.778-34.786,7.847
	c0,2.035,52.599-2.436,101.713-0.635C772.862,738.916,830.971,737.826,830.971,735.791z"/>
<linearGradient id="SVGID_00000157288503794811179820000016768242454666390955_" gradientUnits="userSpaceOnUse" x1="404.2012" y1="124.2435" x2="405.2821" y2="65.6467" gradientTransform="matrix(-1 0 0 -0.7889 973.9258 809.5553)">
	<stop  offset="0.2825" style="stop-color:#6668AC"/>
	<stop  offset="0.3107" style="stop-color:#585994"/>
	<stop  offset="0.3639" style="stop-color:#40426D"/>
	<stop  offset="0.4208" style="stop-color:#2C2D4B"/>
	<stop  offset="0.4813" style="stop-color:#1C1D30"/>
	<stop  offset="0.5466" style="stop-color:#10101A"/>
	<stop  offset="0.619" style="stop-color:#07070B"/>
	<stop  offset="0.7043" style="stop-color:#020203"/>
	<stop  offset="0.8343" style="stop-color:#000000"/>
</linearGradient>
<path style="fill:url(#SVGID_00000157288503794811179820000016768242454666390955_);" d="M610.13,738.391
	c0-3.241-8.002-3.779-15.753-5.295c-7.97-1.558-6.128-2.385-11.193-2.942c-3.345-0.5-7.946-1.154-12.089-1.154
	c-5.432,0-10.553,2.103-14.464,2.923c-7.546-2.25-12.138,2.173-14.096,2.132c-12.55-0.26-14.513,3.009-14.513,6.25
	c0,1.62,21.944-1.94,42.435-0.506C585.887,740.88,610.13,740.011,610.13,738.391z"/>
<linearGradient id="SVGID_00000051348240764155862080000003769176249087582384_" gradientUnits="userSpaceOnUse" x1="320.9576" y1="131.6898" x2="322.2761" y2="60.2134" gradientTransform="matrix(-1 0 0 -0.7889 973.9258 809.5553)">
	<stop  offset="0.2825" style="stop-color:#6668AC"/>
	<stop  offset="0.3107" style="stop-color:#585994"/>
	<stop  offset="0.3639" style="stop-color:#40426D"/>
	<stop  offset="0.4208" style="stop-color:#2C2D4B"/>
	<stop  offset="0.4813" style="stop-color:#1C1D30"/>
	<stop  offset="0.5466" style="stop-color:#10101A"/>
	<stop  offset="0.619" style="stop-color:#07070B"/>
	<stop  offset="0.7043" style="stop-color:#020203"/>
	<stop  offset="0.8343" style="stop-color:#000000"/>
</linearGradient>
<path style="fill:url(#SVGID_00000051348240764155862080000003769176249087582384_);" d="M738.3,738.029
	c0-3.807-16.785-4.439-33.044-6.219c-16.718-1.83-12.853-2.802-23.478-3.455c-7.017-0.587-16.667-1.355-25.358-1.355
	c-11.393,0-22.137,2.47-30.34,3.433c-15.829-2.642-25.459,2.552-29.568,2.504c-26.324-0.305-30.441,3.534-30.441,7.34
	C566.072,742.181,738.3,739.933,738.3,738.029z"/>
<g>
	
		<linearGradient id="SVGID_00000075847056500648547250000005421852717533346469_" gradientUnits="userSpaceOnUse" x1="782.5503" y1="686.3535" x2="781.6656" y2="869.853">
		<stop  offset="0.208" style="stop-color:#6668AC"/>
		<stop  offset="0.2716" style="stop-color:#55568F"/>
		<stop  offset="0.4087" style="stop-color:#292A45"/>
		<stop  offset="0.5272" style="stop-color:#000000"/>
	</linearGradient>
	<ellipse style="fill:url(#SVGID_00000075847056500648547250000005421852717533346469_);" cx="782" cy="800.5" rx="782" ry="69.5"/>
</g>
<ellipse style="fill:#6668AC;" cx="413" cy="-84" rx="75" ry="69"/>
<linearGradient id="SVGID_00000124157271378789499250000015427458525337440934_" gradientUnits="userSpaceOnUse" x1="416.3241" y1="727" x2="416.3241" y2="727">
	<stop  offset="0.2825" style="stop-color:#6668AC"/>
	<stop  offset="0.3107" style="stop-color:#585994"/>
	<stop  offset="0.3639" style="stop-color:#40426D"/>
	<stop  offset="0.4208" style="stop-color:#2C2D4B"/>
	<stop  offset="0.4813" style="stop-color:#1C1D30"/>
	<stop  offset="0.5466" style="stop-color:#10101A"/>
	<stop  offset="0.619" style="stop-color:#07070B"/>
	<stop  offset="0.7043" style="stop-color:#020203"/>
	<stop  offset="0.8343" style="stop-color:#000000"/>
</linearGradient>
<path style="fill:url(#SVGID_00000124157271378789499250000015427458525337440934_);" d="M416.324,727"/>
</svg>
