<?xml version="1.0" encoding="utf-8"?>
<!-- Generator: Adobe Illustrator 26.0.3, SVG Export Plug-In . SVG Version: 6.00 Build 0)  -->
<svg version="1.1" id="Слой_1" xmlns="http://www.w3.org/2000/svg" xmlns:xlink="http://www.w3.org/1999/xlink" x="0px" y="0px"
	 viewBox="0 0 1564 800" style="enable-background:new 0 0 1564 800;" xml:space="preserve">
<style type="text/css">
	.st0{fill:#6668AC;}
</style>
<g id="Слой_3">
</g>
<path class="st0" d="M1564,152.4c-58,58-269.9-58-327.9,0c-44.9,44.9-269.6-16.3-412.6-63.3c-90.7-29.8-278.3,89.1-373.8,89.1
	c-58.2,0-192-70.7-245.1-25.8c-39.1,33-168.5,36.2-204.6,0C-26.9,125.4,0,0,0,0h1564C1564,0,1590.9,125.4,1564,152.4z"/>
<path d="M1910.5,67.3c-97.5,48.9-454.1-48.9-551.6,0c-75.6,37.9-453.6-13.8-694.2-53.4C512-11.3,196.4,89,35.8,89
	c-97.9,0-323-59.6-412.4-21.7c-65.7,27.9-283.4,30.5-344.3,0c-45.3-22.7,0-128.5,0-128.5h2631.4
	C1910.5-61.3,1955.8,44.5,1910.5,67.3z"/>
</svg>
