<?xml version="1.0" encoding="iso-8859-1"?>
<!-- Generator: Adobe Illustrator 26.0.3, SVG Export Plug-In . SVG Version: 6.00 Build 0)  -->
<svg version="1.1" id="&#x421;&#x43B;&#x43E;&#x439;_1"
	 xmlns="http://www.w3.org/2000/svg" xmlns:xlink="http://www.w3.org/1999/xlink" x="0px" y="0px" viewBox="0 0 1564 800"
	 style="enable-background:new 0 0 1564 800;" xml:space="preserve">
<g>
	<path style="fill:#648CBC;" d="M1343.474,571.675l-2.131,5.647c-0.368,0.952-0.673,1.596-0.913,1.931
		c-0.241,0.336-0.517,0.514-0.831,0.532c-0.3,0.017-0.573-0.097-0.821-0.343c-0.159-0.154-0.539-0.735-1.139-1.74
		c-0.599-1.004-1.099-1.899-1.502-2.682l-3.057-5.917c-0.418-0.824-0.831-1.224-1.24-1.199c-0.437,0.026-0.654,0.401-0.653,1.126
		c-0.001,1.615,0.038,3.104,0.119,4.468c0.083,1.418,0.208,2.376,0.374,2.872c0.114,0.294,0.251,0.506,0.417,0.633
		c0.165,0.127,0.605,0.347,1.321,0.661c0.464,0.205,0.713,0.595,0.746,1.168c0.09,1.527-1.822,2.405-5.736,2.635
		c-3.3,0.194-4.994-0.453-5.081-1.94c-0.023-0.382,0.046-0.662,0.207-0.842c0.16-0.181,0.585-0.462,1.274-0.845
		c0.438-0.231,0.725-0.528,0.861-0.893c0.135-0.364,0.228-1.06,0.277-2.089c0.059-1.097,0.069-2.895,0.031-5.389
		c-0.036-2.495-0.108-4.63-0.212-6.402c-0.131-2.223-0.389-3.72-0.776-4.491c-0.139-0.266-0.291-0.462-0.455-0.589
		c-0.166-0.127-0.473-0.287-0.921-0.479c-0.995-0.408-1.516-0.979-1.559-1.716c-0.028-0.477,0.127-0.924,0.465-1.341
		c0.338-0.417,0.803-0.724,1.392-0.923c0.59-0.213,1.382-0.413,2.377-0.602c0.995-0.188,1.84-0.303,2.536-0.344
		c1.745-0.102,2.988-0.032,3.727,0.212c0.363,0.116,0.653,0.284,0.872,0.503c0.217,0.221,0.539,0.68,0.963,1.381l4.715,7.584
		c0.514,0.833,0.866,1.339,1.055,1.52c0.188,0.18,0.439,0.261,0.753,0.242c0.273-0.016,0.508-0.133,0.708-0.349
		c0.199-0.217,0.425-0.614,0.679-1.189l2.554-5.795c0.312-0.744,0.516-1.228,0.613-1.453c0.588-1.403,1.196-2.348,1.824-2.837
		c0.796-0.635,2.294-1.017,4.489-1.147c3.86-0.226,5.841,0.54,5.945,2.299c0.023,0.395-0.033,0.717-0.17,0.964
		c-0.136,0.248-0.425,0.555-0.869,0.924c-0.599,0.514-0.955,1.226-1.065,2.135c-0.203,1.9-0.226,4.2-0.067,6.901
		c0.204,3.477,0.547,6.516,1.029,9.115c0.118,0.636,0.271,1.065,0.455,1.287c0.184,0.221,0.644,0.544,1.381,0.965
		c0.51,0.298,0.781,0.72,0.813,1.266c0.056,0.954-0.539,1.666-1.783,2.137c-0.642,0.256-1.323,0.44-2.042,0.551
		c-0.718,0.11-1.828,0.209-3.327,0.298c-2.305,0.135-4.033,0.072-5.185-0.188c-1.276-0.295-1.941-0.886-1.993-1.772
		c-0.019-0.328,0.047-0.601,0.198-0.823c0.151-0.221,0.551-0.631,1.2-1.23c0.338-0.308,0.547-0.874,0.629-1.699
		c0.082-0.826,0.064-2.221-0.05-4.184c-0.064-1.092-0.158-1.805-0.28-2.139c-0.121-0.335-0.347-0.492-0.675-0.473
		c-0.382,0.023-0.733,0.306-1.058,0.852C1344.562,568.988,1344.092,570.066,1343.474,571.675z"/>
	<path style="fill:#648CBC;" d="M1374.782,549.742c3.505-0.206,6.626,0.617,9.362,2.467c1.853,1.273,3.397,2.976,4.63,5.107
		c1.207,2.118,1.873,4.269,2.002,6.451c0.189,3.219-0.707,6.158-2.684,8.82c-1.673,2.26-3.935,3.947-6.785,5.058
		c-1.752,0.678-3.53,1.07-5.33,1.175c-2.359,0.139-4.644-0.22-6.857-1.075c-2.674-1.034-4.818-2.707-6.431-5.02
		c-1.568-2.235-2.435-4.749-2.599-7.546c-0.191-3.245,0.562-6.163,2.257-8.753c1.506-2.305,3.613-4.057,6.321-5.256
		C1370.48,550.351,1372.518,549.874,1374.782,549.742z M1373.183,555.727c-1.146,0.067-2.023,0.632-2.63,1.694
		c-0.474,0.794-0.68,1.716-0.618,2.766c0.09,1.541,0.509,3.306,1.256,5.294c0.746,1.989,1.643,3.739,2.689,5.251
		c0.462,0.643,1.015,1.144,1.658,1.503c0.644,0.359,1.286,0.519,1.927,0.482c1.037-0.061,1.849-0.498,2.438-1.313
		c0.589-0.814,0.846-1.856,0.771-3.124c-0.097-1.65-0.468-3.413-1.111-5.292c-0.644-1.878-1.429-3.467-2.354-4.768
		c-0.566-0.801-1.205-1.42-1.916-1.858C1374.584,555.925,1373.881,555.714,1373.183,555.727z"/>
	<path style="fill:#648CBC;" d="M1407.389,547.826c3.505-0.206,6.625,0.617,9.362,2.468c1.853,1.273,3.397,2.975,4.63,5.107
		c1.206,2.118,1.872,4.268,2.001,6.45c0.189,3.219-0.706,6.159-2.684,8.821c-1.673,2.259-3.935,3.946-6.784,5.057
		c-1.752,0.678-3.529,1.07-5.329,1.176c-2.359,0.138-4.645-0.221-6.857-1.076c-2.675-1.033-4.819-2.706-6.432-5.02
		c-1.568-2.234-2.435-4.749-2.599-7.546c-0.191-3.245,0.562-6.163,2.257-8.753c1.507-2.306,3.614-4.057,6.321-5.256
		C1403.086,548.435,1405.125,547.96,1407.389,547.826z M1405.79,553.812c-1.145,0.067-2.022,0.631-2.629,1.694
		c-0.474,0.794-0.68,1.716-0.618,2.766c0.09,1.541,0.508,3.305,1.255,5.294c0.746,1.988,1.643,3.738,2.689,5.25
		c0.463,0.644,1.016,1.145,1.659,1.503c0.644,0.359,1.286,0.519,1.927,0.482c1.036-0.061,1.849-0.499,2.438-1.313
		c0.589-0.814,0.845-1.856,0.77-3.124c-0.097-1.65-0.468-3.414-1.111-5.292c-0.644-1.878-1.429-3.467-2.353-4.767
		c-0.566-0.801-1.205-1.421-1.916-1.859C1407.191,554.01,1406.487,553.799,1405.79,553.812z"/>
	<path style="fill:#648CBC;" d="M1435.627,547.728l10.711,8.32c1.003,0.776,1.717,1.151,2.139,1.127
		c0.709-0.042,1.02-0.82,0.931-2.333c-0.101-1.718-0.273-2.885-0.514-3.5c-0.241-0.616-0.698-1.062-1.371-1.336
		c-0.548-0.228-0.938-0.482-1.174-0.763c-0.235-0.28-0.367-0.653-0.393-1.116c-0.067-1.145,0.673-1.928,2.222-2.347
		c0.633-0.174,1.748-0.308,3.343-0.402c2.06-0.121,3.492-0.082,4.297,0.117c1.276,0.308,1.946,0.994,2.009,2.057
		c0.052,0.886-0.419,1.584-1.416,2.095c-0.399,0.201-0.67,0.374-0.812,0.52c-0.143,0.145-0.259,0.357-0.352,0.636
		c-0.316,0.921-0.406,2.637-0.272,5.147l0.392,6.669c0.06,1.023,0.149,2.421,0.266,4.193c0.155,2.399,0.113,4.139-0.125,5.221
		c-0.29,1.345-0.92,2.045-1.888,2.102c-0.423,0.025-0.793-0.042-1.111-0.202c-0.317-0.159-0.848-0.538-1.595-1.138l-12.768-10.149
		c-0.891-0.715-1.615-1.055-2.175-1.021c-0.831,0.048-1.18,1.225-1.044,3.53c0.112,1.896,0.293,3.186,0.546,3.868
		c0.253,0.683,0.715,1.169,1.39,1.458c0.94,0.397,1.431,0.957,1.474,1.679c0.112,1.896-1.872,2.963-5.949,3.203
		c-1.842,0.109-3.285-0.05-4.329-0.474c-1.045-0.424-1.593-1.08-1.645-1.967c-0.027-0.463,0.047-0.816,0.225-1.06
		c0.177-0.243,0.588-0.581,1.234-1.016c0.617-0.419,0.967-1.118,1.047-2.094c0.128-1.772,0.096-4.31-0.098-7.61
		c-0.207-3.518-0.562-6.07-1.066-7.655c-0.184-0.577-0.4-1.002-0.649-1.275c-0.249-0.273-0.647-0.523-1.194-0.75
		c-0.632-0.264-1.075-0.532-1.331-0.804c-0.255-0.273-0.395-0.613-0.418-1.022c-0.078-1.309,0.999-2.201,3.229-2.674
		c0.757-0.154,2.091-0.287,3.999-0.399c1.092-0.063,1.89-0.025,2.399,0.116C1434.297,546.817,1434.91,547.168,1435.627,547.728z"/>
	<path style="fill:#648CBC;" d="M1469.305,572.783l-1.473,0.086c-0.859,0.05-1.818,0.148-2.877,0.292
		c-0.665,0.094-1.127,0.148-1.386,0.164c-0.913,0.053-1.669-0.114-2.267-0.504c-0.597-0.388-0.916-0.924-0.956-1.607
		c-0.028-0.477,0.076-0.856,0.313-1.136c0.237-0.281,0.636-0.519,1.2-0.717c0.538-0.169,0.892-0.412,1.066-0.73
		s0.288-0.924,0.345-1.815c0.049-1.029,0.031-3.026-0.054-5.991c-0.085-2.964-0.214-5.906-0.385-8.824
		c-0.068-1.145-0.2-1.905-0.401-2.276c-0.199-0.371-0.633-0.654-1.302-0.847c-0.962-0.299-1.468-0.879-1.519-1.738
		c-0.039-0.667,0.254-1.209,0.88-1.621c0.626-0.413,1.518-0.653,2.677-0.721c0.382-0.023,0.833-0.042,1.351-0.059
		c1.148-0.026,1.981-0.055,2.5-0.085c1.95-0.115,4.149-0.306,6.597-0.572c0.516-0.058,1.163-0.11,1.941-0.155
		c3.123-0.184,5.612,0.027,7.468,0.628c2.762,0.906,4.899,2.573,6.411,5.002c1.343,2.138,2.105,4.734,2.284,7.789
		c0.091,1.541-0.044,3.099-0.403,4.673c-0.36,1.574-0.888,2.949-1.584,4.126c-1.448,2.384-3.535,4.122-6.263,5.212
		c-1.605,0.643-3.334,1.017-5.189,1.126l-2.48,0.064l-2.131,0.063C1472.013,572.651,1470.559,572.709,1469.305,572.783z
		 M1472.298,550.356l0.93,15.833c0.051,0.859,0.27,1.459,0.66,1.799c0.389,0.339,1.014,0.484,1.873,0.433
		c3.982-0.234,5.795-3.378,5.439-9.432c-0.197-3.342-0.812-5.905-1.848-7.692c-1.142-1.973-2.933-2.886-5.374-2.743
		c-0.655,0.039-1.107,0.196-1.358,0.47C1472.369,549.299,1472.262,549.743,1472.298,550.356z"/>
	<path style="fill:#648CBC;" d="M1508.379,541.894c3.505-0.206,6.625,0.617,9.362,2.467c1.853,1.273,3.396,2.976,4.63,5.107
		c1.206,2.119,1.872,4.269,2.001,6.451c0.189,3.219-0.706,6.158-2.684,8.82c-1.673,2.26-3.935,3.947-6.784,5.058
		c-1.752,0.678-3.529,1.07-5.33,1.175c-2.359,0.139-4.645-0.22-6.857-1.075c-2.675-1.033-4.819-2.707-6.432-5.02
		c-1.568-2.235-2.435-4.749-2.599-7.546c-0.191-3.245,0.562-6.163,2.257-8.753c1.507-2.305,3.614-4.057,6.321-5.256
		C1504.077,542.503,1506.115,542.027,1508.379,541.894z M1506.78,547.879c-1.145,0.067-2.022,0.632-2.629,1.694
		c-0.474,0.794-0.68,1.717-0.618,2.767c0.09,1.541,0.508,3.305,1.255,5.293c0.746,1.989,1.643,3.739,2.689,5.251
		c0.463,0.644,1.016,1.144,1.659,1.503c0.644,0.359,1.286,0.519,1.927,0.482c1.036-0.061,1.849-0.498,2.438-1.313
		c0.589-0.815,0.845-1.857,0.77-3.125c-0.096-1.65-0.468-3.413-1.111-5.292c-0.644-1.878-1.429-3.467-2.353-4.768
		c-0.566-0.801-1.205-1.42-1.916-1.858C1508.181,548.077,1507.477,547.866,1506.78,547.879z"/>
	<path style="fill:#648CBC;" d="M1541.005,539.978c1.786-0.105,3.486,0.048,5.097,0.46c0.723,0.191,1.213,0.278,1.473,0.263
		c0.272-0.016,0.836-0.206,1.691-0.572c0.28-0.112,0.571-0.177,0.871-0.194c0.764-0.045,1.52,0.362,2.269,1.221
		c1.203,1.38,1.855,2.929,1.956,4.648c0.069,1.173-0.173,2.137-0.724,2.895c-0.551,0.758-1.309,1.164-2.278,1.221
		c-0.79,0.046-1.585-0.193-2.383-0.722c-0.243-0.163-0.845-0.77-1.81-1.822c-1.608-1.753-3.387-2.573-5.338-2.458
		c-1.772,0.104-3.141,0.834-4.11,2.191c-0.966,1.357-1.386,3.133-1.257,5.328c0.192,3.26,1.186,5.986,2.985,8.179
		c0.677,0.794,1.465,1.416,2.367,1.862c0.902,0.447,1.782,0.645,2.642,0.594c0.709-0.042,1.279-0.31,1.708-0.808
		c0.428-0.498,0.622-1.114,0.578-1.851c-0.038-0.655-0.256-1.107-0.654-1.356c-0.157-0.101-0.301-0.157-0.431-0.17
		c-0.131-0.013-0.523,0-1.178,0.038c-0.586,0.034-1.085-0.124-1.495-0.476c-0.411-0.352-0.633-0.815-0.666-1.388
		c-0.067-1.132,0.635-1.981,2.108-2.546c1.62-0.615,3.507-0.986,5.662-1.113c2.304-0.135,4.254-0.011,5.851,0.375
		c1.514,0.377,2.306,1.172,2.377,2.386c0.029,0.491-0.116,0.927-0.436,1.308c-0.32,0.382-0.75,0.622-1.292,0.723
		c-0.473,0.097-0.777,0.22-0.912,0.372c-0.135,0.152-0.261,0.512-0.377,1.08c-0.46,2.202-1.498,4.084-3.117,5.643
		c-1.115,1.064-2.483,1.925-4.108,2.582c-1.624,0.656-3.35,1.039-5.177,1.146c-2.986,0.176-5.768-0.352-8.345-1.583
		c-2.646-1.254-4.711-3.103-6.196-5.548c-1.241-2.034-1.934-4.272-2.077-6.714c-0.145-2.468,0.386-4.853,1.592-7.155
		c1.278-2.47,3.154-4.427,5.629-5.872C1535.652,540.866,1538.156,540.145,1541.005,539.978z"/>
</g>
</svg>
