<?xml version="1.0" encoding="utf-8"?>
<!-- Generator: Adobe Illustrator 26.0.3, SVG Export Plug-In . SVG Version: 6.00 Build 0)  -->
<svg version="1.1" id="Слой_1" xmlns="http://www.w3.org/2000/svg" xmlns:xlink="http://www.w3.org/1999/xlink" x="0px" y="0px"
	 viewBox="0 0 1564 800" style="enable-background:new 0 0 1564 800;" xml:space="preserve">
<style type="text/css">
	.st0{opacity:0.39;enable-background:new    ;}
	.st1{opacity:0.9;fill:#000002;enable-background:new    ;}
	.st2{opacity:0.91;fill:url(#SVGID_1_);enable-background:new    ;}
	.st3{opacity:0.61;fill:url(#SVGID_00000094578498335850007210000011403446172409505420_);enable-background:new    ;}
	.st4{opacity:0.49;fill:url(#SVGID_00000047022909174407013810000009289384548662251667_);enable-background:new    ;}
	.st5{opacity:0.49;fill:url(#SVGID_00000121243239577141332870000017734160294343890576_);enable-background:new    ;}
</style>
<rect y="-11.9" class="st0" width="1564" height="176.7"/>
<path class="st1" d="M435.9,41.3C517,54.5,585,39.4,648.2,36.7c87.4,6,212.8,30.3,324.3,9.3c139.1-26.3,268.7-5.8,351.4-14.2
	c0.4,0,0.7-0.1,1.1,0c239,44.7,337.1-5.5,327.1-26.6c-9.9-21.1-176.3-24.3-340.8-33.9c-169.6-9.9-133.9-15.3-240.5-18.8
	c-70.9-3.2-168.4-7.3-254.7-7.1c-113.3,0.2-214.3,14.1-293.9,19.7c-164.7-14.5-249,14.8-290.4,14.6C-34.1-21.7-66.8,0-58.1,21.4
	C-49.3,42.9,176.3-0.9,435.9,41.3z"/>
<linearGradient id="SVGID_1_" gradientUnits="userSpaceOnUse" x1="-193.886" y1="732.0046" x2="-186.187" y2="450.92" gradientTransform="matrix(-0.9999 -1.600000e-02 -1.600000e-02 0.9999 602.0908 -508.3864)">
	<stop  offset="0.4364" style="stop-color:#6677AC;stop-opacity:0.55"/>
	<stop  offset="0.6587" style="stop-color:#202536;stop-opacity:0.6355"/>
	<stop  offset="0.7015" style="stop-color:#181C28;stop-opacity:0.7221"/>
	<stop  offset="0.839" style="stop-color:#000000"/>
</linearGradient>
<path class="st2" d="M1124.3-0.5C1051.2-1.2,982.9-0.3,923,1.8c-82.7-7.2-190.6-12-307.1-13.2C480.3-12.6,361.3-8.5,282.8-1
	c-0.3,0-0.7,0-1,0C35.9-3.3-37.7,0.7-28.6,22.3c9,21.6,98.6,70.3,322.3,38.4C449.4,38.5,434,99,521.1,82.6
	c63-11.8,159.4,9.3,241.1,10.2C869.6,93.9,977.5,57.7,1053,53c155.8,16.6,218,22.3,263.5,11.7c56.8-13.2,123.4,23.7,160.5,19.3
	c111.3-13.3,120.9-42.1,114.9-58.6C1584,3.4,1375.5,1.9,1124.3-0.5z"/>
<linearGradient id="SVGID_00000156556861785722257740000016785170114114820765_" gradientUnits="userSpaceOnUse" x1="-76.209" y1="726.9013" x2="-71.7404" y2="563.755" gradientTransform="matrix(-0.9999 -1.600000e-02 -1.600000e-02 0.9999 602.0908 -508.3864)">
	<stop  offset="0.5235" style="stop-color:#6677AC;stop-opacity:0.55"/>
	<stop  offset="0.6229" style="stop-color:#202536;stop-opacity:0.6355"/>
	<stop  offset="0.6403" style="stop-color:#181C28;stop-opacity:0.7221"/>
	<stop  offset="0.696" style="stop-color:#000000"/>
</linearGradient>
<path style="opacity:0.61;fill:url(#SVGID_00000156556861785722257740000016785170114114820765_);enable-background:new    ;" d="
	M959,99.1c-52-0.4-151.3,3.4-194,4.7c-58.9-4.3-134.1-5.6-217-6.3c-96.6-0.8-182.2-16.7-238.1-12.2c-0.2,0-0.5,0-0.7,0
	c-175-1.4-227.5,1-221,13.9c6.4,12.9,70.2,42.1,229.5,22.9c110.9-13.3,99.9,22.9,162,13.1c44.9-7.1,113.5,5.6,171.7,6.1
	c76.4,0.7,153.2-21,207-23.8c110.9,10,155.2,13.3,187.6,7c40.5-7.9,87.9,14.2,114.3,11.5c79.3-8,86.1-25.2,81.8-35
	C1236.4,88,1137.9,100.5,959,99.1z"/>
<linearGradient id="SVGID_00000031171381954851664410000018067957169468716450_" gradientUnits="userSpaceOnUse" x1="-758.1759" y1="755.3612" x2="-754.549" y2="622.9428" gradientTransform="matrix(-0.9999 -1.600000e-02 -1.600000e-02 0.9999 602.0908 -508.3864)">
	<stop  offset="0.5235" style="stop-color:#6677AC;stop-opacity:0.55"/>
	<stop  offset="0.6229" style="stop-color:#202536;stop-opacity:0.6355"/>
	<stop  offset="0.6403" style="stop-color:#181C28;stop-opacity:0.7221"/>
	<stop  offset="0.696" style="stop-color:#000000"/>
</linearGradient>
<path style="opacity:0.49;fill:url(#SVGID_00000031171381954851664410000018067957169468716450_);enable-background:new    ;" d="
	M1502.1,160.2c-27.5-0.4-79.9,2.9-102.4,4c-31.1-3.6-70.8-4.7-114.6-5.3c-51-0.6-96.2-14.1-125.7-10.3c-0.1,0-0.3,0-0.4,0
	c-92.4-1.2-120.1,0.9-116.7,11.8c3.4,10.9,37.1,35.6,121.2,19.4c58.5-11.3,52.8,19.4,85.5,11.1c23.7-6,59.9,4.7,90.7,5.2
	c40.3,0.6,80.9-17.8,109.3-20.1c58.6,8.4,82,11.3,99.1,5.9c21.4-6.7,46.4,12,60.3,9.7c41.8-6.7,45.4-21.3,43.2-29.7
	C1648.5,150.8,1596.5,161.4,1502.1,160.2z"/>
<linearGradient id="SVGID_00000025413734496546587470000007528032129946705077_" gradientUnits="userSpaceOnUse" x1="407.5888" y1="745.0362" x2="410.0044" y2="656.8439" gradientTransform="matrix(-0.9999 -1.600000e-02 -1.600000e-02 0.9999 602.0908 -508.3864)">
	<stop  offset="0.5235" style="stop-color:#6677AC;stop-opacity:0.55"/>
	<stop  offset="0.6229" style="stop-color:#202536;stop-opacity:0.6355"/>
	<stop  offset="0.6403" style="stop-color:#181C28;stop-opacity:0.7221"/>
	<stop  offset="0.696" style="stop-color:#000000"/>
</linearGradient>
<path style="opacity:0.49;fill:url(#SVGID_00000025413734496546587470000007528032129946705077_);enable-background:new    ;" d="
	M98.7,156.6c-0.1,0-0.1,0-0.2,0c-46.2-0.9-81.2-2.4-79.5,5.8c1.7,8.2,18,16.4,61,14.9c31.2-1.1,48,10.2,83,10.9
	c20.2,0.5,68.8-11.5,78-8.6c22,7,64,3.2,71,1.6c20.9-5,33.9-8.3,32.7-14.5C343.2,158.3,113.4,153.8,98.7,156.6z"/>
</svg>
