<?xml version="1.0" encoding="iso-8859-1"?>
<!-- Generator: Adobe Illustrator 26.0.3, SVG Export Plug-In . SVG Version: 6.00 Build 0)  -->
<svg version="1.1" id="&#x421;&#x43B;&#x43E;&#x439;_1"
	 xmlns="http://www.w3.org/2000/svg" xmlns:xlink="http://www.w3.org/1999/xlink" x="0px" y="0px" viewBox="0 0 1564 800"
	 style="enable-background:new 0 0 1564 800;" xml:space="preserve">
<rect x="0" y="-11.949" style="opacity:0.39;" width="1564" height="176.678"/>
<path style="opacity:0.9;fill:#000002;" d="M435.857,41.296C517,54.501,585.036,39.445,648.244,36.667
	c87.366,6.046,212.756,30.343,324.26,9.27c139.138-26.295,268.678-5.848,351.378-14.212c0.363-0.001,0.73-0.066,1.084,0
	C1564,76.39,1662.028,26.241,1652.071,5.091c-9.942-21.118-176.259-24.309-340.786-33.897
	c-169.567-9.882-133.854-15.344-240.454-18.804c-70.892-3.151-168.411-7.273-254.653-7.139
	C702.903-54.573,601.858-40.614,522.28-35.09C357.577-49.605,273.292-20.336,231.889-20.526
	C-34.09-21.748-66.844-0.048-58.057,21.43C-49.255,42.94,176.313-0.941,435.857,41.296z"/>
<linearGradient id="SVGID_1_" gradientUnits="userSpaceOnUse" x1="-193.8792" y1="67.9952" x2="-186.1802" y2="349.0799" gradientTransform="matrix(-0.9999 -0.016 0.016 -0.9999 589.2908 291.5336)">
	<stop  offset="0.4364" style="stop-color:#282844;stop-opacity:0.55"/>
	<stop  offset="0.4933" style="stop-color:#202036;stop-opacity:0.6355"/>
	<stop  offset="0.7362" style="stop-color:#000000"/>
</linearGradient>
<path style="opacity:0.91;fill:url(#SVGID_1_);" d="M1124.319-0.473c-73.076-0.696-141.375,0.165-201.311,2.262
	c-82.67-7.151-190.566-12.05-307.063-13.154C480.314-12.649,361.28-8.512,282.777-0.961c-0.344-0.003-0.683-0.009-1.027-0.012
	C35.929-3.334-37.702,0.723-28.639,22.337C-19.59,43.918,70,92.679,293.65,60.714C449.385,38.456,434,98.968,521.142,82.595
	c63.037-11.844,159.436,9.331,241.15,10.187C869.62,93.906,977.505,57.71,1053,53.01c155.796,16.65,218,22.253,263.488,11.706
	c56.843-13.18,123.41,23.699,160.512,19.255c111.308-13.33,120.899-42.118,114.937-58.567
	C1583.976,3.437,1375.51,1.921,1124.319-0.473z"/>
<linearGradient id="SVGID_00000047058691715865274620000004971369999033576598_" gradientUnits="userSpaceOnUse" x1="-76.2018" y1="73.0985" x2="-71.7332" y2="236.2448" gradientTransform="matrix(-0.9999 -0.016 0.016 -0.9999 589.2908 291.5336)">
	<stop  offset="0.4364" style="stop-color:#282844;stop-opacity:0.55"/>
	<stop  offset="0.4933" style="stop-color:#202036;stop-opacity:0.6355"/>
	<stop  offset="0.7362" style="stop-color:#000000"/>
</linearGradient>
<path style="opacity:0.66;fill:url(#SVGID_00000047058691715865274620000004971369999033576598_);" d="M959,99.061
	c-52.032-0.416-151.324,3.437-194,4.691c-58.863-4.276-134.052-5.594-217-6.254C451.428,96.73,365.781,80.81,309.886,85.325
	c-0.245-0.002-0.486-0.005-0.731-0.007c-175.03-1.412-227.457,1.014-221.004,13.94c6.443,12.905,70.233,42.065,229.477,22.95
	c110.887-13.311,99.933,22.876,161.98,13.085c44.884-7.083,113.522,5.58,171.704,6.092c76.419,0.672,153.236-20.973,206.99-23.784
	c110.93,9.957,155.221,13.308,187.609,7c40.474-7.882,87.87,14.172,114.288,11.515c79.253-7.972,86.083-25.187,81.838-35.024
	C1236.368,87.955,1137.853,100.493,959,99.061z"/>
<linearGradient id="SVGID_00000161618448055542205700000001910586350692594611_" gradientUnits="userSpaceOnUse" x1="-758.1896" y1="44.6392" x2="-754.5626" y2="177.0576" gradientTransform="matrix(-0.9999 -0.016 0.016 -0.9999 589.2908 291.5336)">
	<stop  offset="0.4364" style="stop-color:#282844;stop-opacity:0.55"/>
	<stop  offset="0.4933" style="stop-color:#202036;stop-opacity:0.6355"/>
	<stop  offset="0.7362" style="stop-color:#000000"/>
</linearGradient>
<path style="opacity:0.63;fill:url(#SVGID_00000161618448055542205700000001910586350692594611_);" d="M1502.057,160.154
	c-27.471-0.353-79.895,2.91-102.426,3.971c-31.078-3.62-70.775-4.736-114.569-5.295c-50.987-0.65-96.206-14.129-125.717-10.306
	c-0.129-0.002-0.257-0.004-0.386-0.006c-92.411-1.195-120.09,0.859-116.683,11.802c3.402,10.926,37.081,35.615,121.157,19.431
	c58.545-11.269,52.761,19.368,85.521,11.078c23.697-5.997,59.936,4.724,90.655,5.158c40.347,0.569,80.904-17.757,109.284-20.137
	c58.568,8.43,81.952,11.267,99.052,5.927c21.369-6.673,46.393,11.999,60.341,9.749c41.843-6.749,45.449-21.324,43.208-29.653
	C1648.498,150.751,1596.486,161.366,1502.057,160.154z"/>
<linearGradient id="SVGID_00000150066600543380431080000016667991659206298498_" gradientUnits="userSpaceOnUse" x1="407.6065" y1="54.9633" x2="410.0221" y2="143.1556" gradientTransform="matrix(-0.9999 -0.016 0.016 -0.9999 589.2908 291.5336)">
	<stop  offset="0.4364" style="stop-color:#282844;stop-opacity:0.55"/>
	<stop  offset="0.4933" style="stop-color:#202036;stop-opacity:0.6355"/>
	<stop  offset="0.7362" style="stop-color:#000000"/>
</linearGradient>
<path style="opacity:0.6;fill:url(#SVGID_00000150066600543380431080000016667991659206298498_);" d="M98.672,156.639
	c-0.065-0.001-0.128-0.003-0.193-0.005c-46.205-0.893-81.183-2.422-79.479,5.75c1.701,8.159,18,16.417,61,14.854
	c31.155-1.133,48,10.163,83,10.945c20.173,0.451,68.785-11.546,78-8.599c22,7.036,64.026,3.243,71,1.564
	c20.922-5.04,33.866-8.32,32.746-14.54C343.249,158.302,113.428,153.784,98.672,156.639z"/>
</svg>
