<?xml version="1.0" encoding="iso-8859-1"?>
<!-- Generator: Adobe Illustrator 26.0.3, SVG Export Plug-In . SVG Version: 6.00 Build 0)  -->
<svg version="1.1" id="&#x421;&#x43B;&#x43E;&#x439;_1"
	 xmlns="http://www.w3.org/2000/svg" xmlns:xlink="http://www.w3.org/1999/xlink" x="0px" y="0px" viewBox="0 0 1564 800"
	 style="enable-background:new 0 0 1564 800;" xml:space="preserve">
<rect x="0" style="opacity:0.39;" width="1564" height="226"/>
<path style="opacity:0.9;fill:#000002;" d="M435.857,68.109C517,85,585.036,65.741,648.244,62.187
	C735.61,69.92,861,101,972.503,74.045c139.138-33.635,268.678-7.48,351.378-18.179c0.363-0.001,0.73-0.085,1.084,0
	C1564,113,1662.028,48.85,1652.071,21.796c-9.942-27.013-176.259-31.095-340.786-43.36
	c-169.567-12.64-133.854-19.627-240.454-24.053c-70.892-4.031-168.411-9.304-254.653-9.132
	C702.903-54.523,601.858-36.667,522.28-29.601c-164.703-18.567-248.988,18.873-290.391,18.63
	C-34.09-12.535-66.844,15.223-58.057,42.696C-49.255,70.212,176.313,14.08,435.857,68.109z"/>
<linearGradient id="SVGID_1_" gradientUnits="userSpaceOnUse" x1="-195.7485" y1="-9.5709" x2="-185.9579" y2="347.876" gradientTransform="matrix(-0.9999 -0.016 0.016 -0.9999 589.2908 291.5336)">
	<stop  offset="0.4364" style="stop-color:#282844;stop-opacity:0.55"/>
	<stop  offset="0.4933" style="stop-color:#202036;stop-opacity:0.6355"/>
	<stop  offset="0.7362" style="stop-color:#000000"/>
</linearGradient>
<path style="opacity:0.85;fill:url(#SVGID_1_);" d="M1124.319,14.679c-73.076-0.891-141.375,0.211-201.311,2.894
	C840.338,8.427,732.442,2.159,615.946,0.748C480.314-0.896,361.28,4.397,282.777,14.056c-0.344-0.004-0.683-0.011-1.027-0.016
	C35.929,11.02-37.702,16.21-28.639,43.857C-19.59,71.462,70,133.836,293.65,92.948C449.385,64.476,434,141.88,521.142,120.937
	c63.037-15.15,159.436,11.936,241.15,13.03C869.62,135.405,977.505,89.105,1053,83.093c155.796,21.298,218,28.465,263.488,14.974
	c56.843-16.86,123.41,30.314,160.512,24.631c111.308-17.051,120.899-53.875,114.937-74.917
	C1583.976,19.681,1375.51,17.741,1124.319,14.679z"/>
</svg>
