<?xml version="1.0" encoding="utf-8"?>
<!-- Generator: Adobe Illustrator 26.0.3, SVG Export Plug-In . SVG Version: 6.00 Build 0)  -->
<svg version="1.1" id="Слой_1" xmlns="http://www.w3.org/2000/svg" xmlns:xlink="http://www.w3.org/1999/xlink" x="0px" y="0px"
	 viewBox="0 0 1564 400" style="enable-background:new 0 0 1564 400;" xml:space="preserve">
<style type="text/css">
	.st0{opacity:0.74;fill:#6668AC;enable-background:new    ;}
	.st1{opacity:0.12;enable-background:new    ;}
	.st2{fill:#6668AC;}
	.st3{opacity:0.13;enable-background:new    ;}
	.st4{fill-rule:evenodd;clip-rule:evenodd;fill:#6668AC;}
</style>
<path class="st0" d="M775.8,340.8c-143.4-8.7-262.7,83.5-262.7,83.5h199.4c0,0,49.6-34.1,132.9-32.9c86.8,1.4,783.4,19.3,783.4,19.3
	S855.1,345.7,775.8,340.8z"/>
<path class="st1" d="M434.7,325.1c-138.4-11-253.5,105-253.5,105h192.5c0,0,47.9-42.9,128.3-41.3c83.9,1.7,501.7,41.3,501.7,41.3
	S511.2,331.2,434.7,325.1z"/>
<path class="st2" d="M443.8,329.7c-143.3-7.8-262.5,74.1-262.5,74.1h199.4c6.9-4.3,42.7-30.4,132.9-29.2
	c86.8,1.2,519.7,29.2,519.7,29.2S523.1,333.9,443.8,329.7z"/>
<path class="st3" d="M1062.2,319.2c-124.1-11.4-227.3,109.2-227.3,109.2h172.6c0,0,43-44.7,115.1-42.9
	c75.2,1.8,450.1,42.9,450.1,42.9S1130.9,325.5,1062.2,319.2z"/>
<path class="st2" d="M1070.6,325.5c-121.2-8.1-222,77.1-222,77.1h168.6c0,0,41.9-31.6,112.3-30.4c73.6,1.3,514.7,30.4,514.7,30.4
	S1137.7,329.9,1070.6,325.5z"/>
<path class="st4" d="M1148.7,320.9c0.4-2.4,0-1.3,0.6-5.1c11,2.4,25.5,5,25.5,5s-6-5.4-7.4-22.3c-1.1-13.1,5.7-17.3,5.7-17.3
	s-16.2,5.1-29.7,2.2c-3.3-0.7-9.6-6-9.6-6s-6.1,9.5-6.5,12.6c-1.8,12.8,7.5,20.4,10,22.4c0.9,0.7,5,1.8,10.2,3l-0.6,5.1
	c-16.9-3.7-33.5-8.4-41.5-13.5c-4.8-3.1-10.8-13.2-10.8-13.2c-0.6-0.7-1.7-0.4-1.9,0.5l2.1,3.4l4.9,7.9c0,0,10.6,19.5,16.7,23.3
	c15.1,9.3,70.1,11.4,70.1,11.4s14.5-16.1,11-15.2C1184.2,328.1,1172.3,325.9,1148.7,320.9z"/>
</svg>
