<?xml version="1.0" encoding="utf-8"?>
<!-- Generator: Adobe Illustrator 25.4.1, SVG Export Plug-In . SVG Version: 6.00 Build 0)  -->
<svg version="1.1" id="Слой_1" xmlns="http://www.w3.org/2000/svg" xmlns:xlink="http://www.w3.org/1999/xlink" x="0px" y="0px"
	 viewBox="0 0 1550 300" style="enable-background:new 0 0 1550 300;" xml:space="preserve">
<style type="text/css">
	.st0{opacity:0.44;enable-background:new    ;}
	.st1{fill-rule:evenodd;clip-rule:evenodd;fill:#6668AC;}
	.st2{fill:#6668AC;}
	.st3{clip-path:url(#SVGID_00000162337802634879222160000012485742406677375421_);}
	.st4{opacity:0.26;clip-path:url(#SVGID_00000175316703646390722680000008429587939483692968_);}
	.st5{fill-rule:evenodd;clip-rule:evenodd;}
	.st6{clip-path:url(#SVGID_00000159451640335664874480000009946029795429781145_);}
	.st7{clip-path:url(#SVGID_00000160187265932165292410000005596266286936043931_);}
	.st8{opacity:0.25;clip-path:url(#SVGID_00000026125087095860950340000001174933726416381600_);}
	.st9{clip-path:url(#SVGID_00000173159963767183848380000007296094867609962377_);}
	.st10{clip-path:url(#SVGID_00000163055169396208294010000015228381707406504356_);}
	.st11{opacity:0.21;clip-path:url(#SVGID_00000035504580444798668970000009637498691717577862_);}
	.st12{clip-path:url(#SVGID_00000137815098143886002940000006079719721967969936_);}
	.st13{opacity:0.18;}
	.st14{opacity:0.74;fill:#6668AC;enable-background:new    ;}
	.st15{opacity:0.12;enable-background:new    ;}
	.st16{opacity:0.13;enable-background:new    ;}
</style>
<g class="st0">
	<polygon class="st1" points="623.1,230.3 624.1,259.9 622,260.6 	"/>
	<path class="st1" d="M620.8,233.8c-0.5,0.8-1.3,1.1-2.1,0.8c-0.8-0.4-1.2-1.6-0.8-2.6c0.3-0.8,0.9-1.2,1.6-1.2
		c-0.1-0.3-0.1-0.7,0.1-1c0.3-0.7,1-1.1,1.5-0.7h0.1c0.6-1.2,1.8-1.7,2.9-1.2c0.6,0.3,1,0.8,1.1,1.5c0.2,0,0.4,0.1,0.6,0.2
		c1.1,0.6,1.6,2.2,1,3.5c-0.5,1.4-1.9,2-3,1.5c-0.1-0.1-0.3-0.2-0.4-0.3c-0.6,0.5-1.4,0.6-2.1,0.2
		C621.2,234.2,620.9,234,620.8,233.8L620.8,233.8z"/>
	<path class="st1" d="M625,239.8c-0.6,0.7-1.5,0.8-2.2,0.2s-0.8-1.9-0.3-2.8c0.4-0.7,1.2-1,1.8-0.8c0-0.3,0.1-0.7,0.3-1
		c0.4-0.6,1.2-0.8,1.7-0.4c0,0,0.1,0,0.1,0.1c0.8-1,2.1-1.2,3-0.5c0.5,0.4,0.8,1.1,0.8,1.7c0.2,0.1,0.4,0.2,0.6,0.3
		c1,0.8,1.1,2.5,0.3,3.7s-2.2,1.5-3.2,0.7c-0.1-0.1-0.3-0.2-0.4-0.4c-0.7,0.3-1.5,0.2-2-0.3C625.3,240.3,625.1,240.1,625,239.8
		L625,239.8z"/>
	<path class="st1" d="M623.3,246.2c-0.4,0.3-1,0.4-1.4,0.1c-0.5-0.3-0.5-0.9-0.1-1.3c0.3-0.3,0.7-0.5,1.2-0.4c0-0.1,0-0.3,0.2-0.5
		c0.3-0.3,0.7-0.4,1.1-0.2c0,0,0,0,0.1,0c0.5-0.5,1.4-0.6,2-0.2c0.3,0.2,0.5,0.5,0.5,0.8c0.1,0,0.3,0.1,0.4,0.2
		c0.6,0.4,0.7,1.2,0.2,1.7c-0.5,0.6-1.5,0.7-2.1,0.3c-0.1,0-0.1-0.1-0.2-0.2c-0.4,0.1-0.9,0.1-1.3-0.1
		C623.5,246.4,623.3,246.3,623.3,246.2L623.3,246.2z"/>
	<path class="st1" d="M616.5,243.9c-0.3,0.9-1,1.5-1.8,1.3c-0.9-0.2-1.5-1.2-1.3-2.3c0.1-0.8,0.7-1.5,1.3-1.7
		c-0.1-0.3-0.2-0.6-0.2-1c0.1-0.8,0.7-1.3,1.3-1.2h0.1c0.3-1.3,1.4-2.2,2.5-2c0.6,0.1,1.1,0.5,1.4,1.1c0.2,0,0.4,0,0.7,0
		c1.2,0.2,2,1.6,1.8,3.1s-1.4,2.5-2.6,2.3c-0.2,0-0.3-0.1-0.5-0.2c-0.5,0.6-1.2,1-1.9,0.8C617,244.2,616.7,244,616.5,243.9
		L616.5,243.9z"/>
	<polyline class="st2" points="618.5,243.8 620.4,247.9 622.6,249.7 	"/>
	<polyline class="st2" points="627.3,240.2 625.3,244.4 623,246.2 	"/>
	<polyline class="st2" points="620.1,233.1 621.5,237.2 623.2,239.1 	"/>
	<polyline class="st2" points="625.8,245.8 624.5,248.7 622.9,250 	"/>
</g>
<g id="Слой_1_00000105389544481702147420000001119802139314731394_">
	<g>
		<g>
			<g>
				<g>
					<g>
						<g>
							<g>
								<g>
									<g>
										<g>
											<defs>
												<rect id="SVGID_1_" x="-5.6" width="1555.6" height="300"/>
											</defs>
											<clipPath id="SVGID_00000057829058660258454040000007161523709512785830_">
												<use xlink:href="#SVGID_1_"  style="overflow:visible;"/>
											</clipPath>
											<g style="clip-path:url(#SVGID_00000057829058660258454040000007161523709512785830_);">
												<g>
													<g>
														<ellipse class="st1" cx="1468.4" cy="94.9" rx="129.8" ry="127.4"/>
													</g>
												</g>
											</g>
										</g>
									</g>
								</g>
							</g>
						</g>
					</g>
				</g>
			</g>
		</g>
		<g>
			<g>
				<g>
					<g>
						<g>
							<g>
								<g>
									<g>
										<g>
											<defs>
												<rect id="SVGID_00000129911917757120559800000017219249078401951622_" x="-5.6" width="1555.6" height="300"/>
											</defs>
											<clipPath id="SVGID_00000066505300689296135590000017657663384549406122_">
												<use xlink:href="#SVGID_00000129911917757120559800000017219249078401951622_"  style="overflow:visible;"/>
											</clipPath>
											<g style="opacity:0.26;clip-path:url(#SVGID_00000066505300689296135590000017657663384549406122_);">
												<g>
													<g>
														<ellipse class="st5" cx="1327.8" cy="148.2" rx="121.3" ry="111.7"/>
													</g>
												</g>
											</g>
										</g>
									</g>
								</g>
							</g>
						</g>
					</g>
				</g>
			</g>
		</g>
		<g>
			<g>
				<g>
					<g>
						<g>
							<g>
								<g>
									<g>
										<g>
											<defs>
												<rect id="SVGID_00000100350336228000019560000008250788051451640982_" x="-5.6" width="1555.6" height="300"/>
											</defs>
											<clipPath id="SVGID_00000037680806078817948280000000919561831923072441_">
												<use xlink:href="#SVGID_00000100350336228000019560000008250788051451640982_"  style="overflow:visible;"/>
											</clipPath>
											<g style="clip-path:url(#SVGID_00000037680806078817948280000000919561831923072441_);">
												<g>
													<g>
														<ellipse class="st1" cx="1324.9" cy="155.4" rx="110.9" ry="108.9"/>
													</g>
												</g>
											</g>
										</g>
									</g>
								</g>
							</g>
						</g>
					</g>
				</g>
			</g>
		</g>
		<g>
			<g>
				<g>
					<g>
						<g>
							<g>
								<g>
									<g>
										<g>
											<defs>
												<rect id="SVGID_00000012473362092562873150000004969238608650092168_" x="-59" y="-55.9" width="1555.6" height="300"/>
											</defs>
											<clipPath id="SVGID_00000114771674313508000130000010557852951329437074_">
												<use xlink:href="#SVGID_00000012473362092562873150000004969238608650092168_"  style="overflow:visible;"/>
											</clipPath>
											<g style="clip-path:url(#SVGID_00000114771674313508000130000010557852951329437074_);">
												<g>
													<g>
														<ellipse class="st1" cx="114.9" cy="23.7" rx="198.2" ry="194.6"/>
													</g>
												</g>
											</g>
										</g>
									</g>
								</g>
							</g>
						</g>
					</g>
				</g>
			</g>
		</g>
		<g>
			<g>
				<g>
					<g>
						<g>
							<g>
								<g>
									<g>
										<g>
											<defs>
												<rect id="SVGID_00000180361793773280303830000002906815256188465079_" x="-5.6" width="1555.6" height="300"/>
											</defs>
											<clipPath id="SVGID_00000146461209938265355670000014381992587853773955_">
												<use xlink:href="#SVGID_00000180361793773280303830000002906815256188465079_"  style="overflow:visible;"/>
											</clipPath>
											<g style="opacity:0.25;clip-path:url(#SVGID_00000146461209938265355670000014381992587853773955_);">
												<g>
													<g>
														<path class="st5" d="M538.7,61.8"/>
														<path class="st5" d="M439.1-36.1c0-54.1,44.6-97.9,99.6-97.9s99.6,43.8,99.6,97.9"/>
													</g>
												</g>
											</g>
										</g>
									</g>
								</g>
							</g>
						</g>
					</g>
				</g>
			</g>
		</g>
		<g>
			<g>
				<g>
					<g>
						<g>
							<g>
								<g>
									<g>
										<g>
											<defs>
												<rect id="SVGID_00000000932136748231346460000013725539087974871728_" x="-5.6" width="1555.6" height="300"/>
											</defs>
											<clipPath id="SVGID_00000123414578922859007070000002897152660889308093_">
												<use xlink:href="#SVGID_00000000932136748231346460000013725539087974871728_"  style="overflow:visible;"/>
											</clipPath>
											<g style="clip-path:url(#SVGID_00000123414578922859007070000002897152660889308093_);">
												<g>
													<g>
														<ellipse class="st1" cx="548.9" cy="-42.7" rx="99.6" ry="97.9"/>
													</g>
												</g>
											</g>
										</g>
									</g>
								</g>
							</g>
						</g>
					</g>
				</g>
			</g>
		</g>
		<g>
			<g>
				<g>
					<g>
						<g>
							<g>
								<g>
									<g>
										<g>
											<defs>
												<rect id="SVGID_00000127737396812458092050000005477568168664679590_" x="-5.6" width="1555.6" height="300"/>
											</defs>
											<clipPath id="SVGID_00000041268924700495167740000007487125800430940344_">
												<use xlink:href="#SVGID_00000127737396812458092050000005477568168664679590_"  style="overflow:visible;"/>
											</clipPath>
											<g style="clip-path:url(#SVGID_00000041268924700495167740000007487125800430940344_);">
												<g>
													<g>
														<ellipse class="st1" cx="929.6" cy="-24.8" rx="98.8" ry="97"/>
													</g>
												</g>
											</g>
										</g>
									</g>
								</g>
							</g>
						</g>
					</g>
				</g>
			</g>
		</g>
		<g>
			<g>
				<g>
					<g>
						<g>
							<g>
								<g>
									<g>
										<g>
											<defs>
												<rect id="SVGID_00000133525552536959163770000009531636256741242526_" x="-5.6" width="1555.6" height="300"/>
											</defs>
											<clipPath id="SVGID_00000106833637736605793780000014350469917570651816_">
												<use xlink:href="#SVGID_00000133525552536959163770000009531636256741242526_"  style="overflow:visible;"/>
											</clipPath>
											<g style="opacity:0.21;clip-path:url(#SVGID_00000106833637736605793780000014350469917570651816_);">
												<g>
													<g>
														<ellipse class="st5" cx="1040.7" cy="-38.8" rx="78.3" ry="79.3"/>
													</g>
												</g>
											</g>
										</g>
									</g>
								</g>
							</g>
						</g>
					</g>
				</g>
			</g>
		</g>
		<g>
			<g>
				<g>
					<g>
						<g>
							<g>
								<g>
									<g>
										<g>
											<defs>
												<rect id="SVGID_00000154410263747598107910000015752396774731299475_" x="-5.6" width="1555.6" height="300"/>
											</defs>
											<clipPath id="SVGID_00000178191024014516836880000008633477616514272393_">
												<use xlink:href="#SVGID_00000154410263747598107910000015752396774731299475_"  style="overflow:visible;"/>
											</clipPath>
											<g style="clip-path:url(#SVGID_00000178191024014516836880000008633477616514272393_);">
												<g>
													<g>
														<ellipse class="st1" cx="1054.8" cy="-33.6" rx="78.3" ry="79.3"/>
													</g>
												</g>
											</g>
										</g>
									</g>
								</g>
							</g>
						</g>
					</g>
				</g>
			</g>
		</g>
	</g>
	<g class="st13">
		<g>
			<g>
				<ellipse class="st5" cx="93.9" cy="230.3" rx="98.7" ry="95.5"/>
			</g>
		</g>
	</g>
	<g>
		<g>
			<g>
				<ellipse class="st1" cx="91.2" cy="228.2" rx="93.7" ry="92"/>
			</g>
		</g>
	</g>
</g>
<path class="st14" d="M771.3,235.1c-134.4-8.2-246.2,78.3-246.2,78.3H712c0,0,46.5-32,124.6-30.8c81.4,1.3,734.3,18.1,734.3,18.1
	S845.6,239.7,771.3,235.1z"/>
<g id="Слой_2_00000146489310762379544280000007946033351218465152_">
</g>
<path class="st15" d="M451.6,234.2C321.9,223.9,214,332.6,214,332.6h180.4c0,0,44.9-40.2,120.3-38.7c78.6,1.6,470.3,38.7,470.3,38.7
	S523.3,239.9,451.6,234.2z"/>
<path class="st2" d="M460.1,238.5C325.8,231.2,214,308,214,308h186.9c6.5-4,40-28.5,124.6-27.4c81.4,1.1,487.1,27.4,487.1,27.4
	S534.4,242.4,460.1,238.5z"/>
<path class="st16" d="M1039.8,228.6C923.5,217.9,826.7,331,826.7,331h161.8c0,0,40.3-41.9,107.9-40.2
	c70.5,1.7,421.9,40.2,421.9,40.2S1104.2,234.5,1039.8,228.6z"/>
<path class="st2" d="M1047.6,241.1c-113.6-7.6-208.1,72.3-208.1,72.3h158c0,0,39.3-29.6,105.3-28.5c69,1.2,482.5,28.5,482.5,28.5
	S1110.5,245.2,1047.6,241.1z"/>
<g class="st0">
	<polygon class="st1" points="949,220.1 946.6,248.7 944.9,248.4 	"/>
	<path class="st1" d="M946.4,223.1c-0.5,0.7-1.3,0.9-2,0.5c-0.7-0.5-0.9-1.6-0.5-2.5c0.4-0.7,1-1.1,1.6-1c0-0.3,0-0.6,0.2-0.9
		c0.3-0.6,1-0.9,1.5-0.5c0,0,0.1,0,0.1,0.1c0.7-1.1,1.9-1.5,2.8-0.8c0.5,0.3,0.8,0.9,0.9,1.5c0.2,0,0.4,0.1,0.6,0.2
		c1,0.6,1.3,2.2,0.6,3.4c-0.6,1.2-2,1.7-3,1.1c-0.1-0.1-0.2-0.2-0.3-0.3c-0.6,0.4-1.4,0.4-1.9,0
		C946.8,223.6,946.6,223.4,946.4,223.1L946.4,223.1z"/>
	<path class="st1" d="M949.8,229.2c-0.6,0.6-1.5,0.6-2,0c-0.6-0.7-0.6-1.8,0-2.6c0.5-0.6,1.2-0.8,1.8-0.6c0-0.3,0.1-0.6,0.3-0.9
		c0.5-0.6,1.2-0.6,1.6-0.2l0.1,0.1c0.8-0.9,2.1-1,2.9-0.2c0.4,0.5,0.6,1.1,0.6,1.7c0.2,0.1,0.4,0.2,0.5,0.4c0.8,0.9,0.8,2.4,0,3.5
		c-0.9,1.1-2.2,1.2-3.1,0.3c-0.1-0.1-0.2-0.2-0.3-0.4c-0.7,0.2-1.4,0-1.9-0.5C950,229.7,949.9,229.5,949.8,229.2L949.8,229.2z"/>
	<path class="st1" d="M947.5,235c-0.4,0.3-1,0.3-1.3,0c-0.4-0.3-0.4-0.9,0-1.2c0.3-0.3,0.7-0.4,1.1-0.3c0-0.1,0.1-0.3,0.2-0.4
		c0.3-0.2,0.7-0.3,1-0.1c0,0,0,0,0.1,0.1c0.5-0.4,1.4-0.4,1.9,0c0.3,0.2,0.4,0.5,0.4,0.8c0.1,0.1,0.2,0.1,0.3,0.2
		c0.5,0.4,0.6,1.2,0,1.7c-0.5,0.5-1.4,0.6-2,0.1c-0.1-0.1-0.1-0.1-0.2-0.2c-0.4,0.1-0.9,0-1.2-0.3
		C947.7,235.3,947.6,235.1,947.5,235L947.5,235z"/>
	<path class="st1" d="M941.4,232.2c-0.3,0.8-1.1,1.3-1.8,1.1c-0.8-0.3-1.3-1.3-1-2.3c0.2-0.8,0.8-1.3,1.4-1.4
		c-0.1-0.3-0.1-0.6-0.1-1c0.2-0.7,0.8-1.1,1.4-1h0.1c0.4-1.2,1.5-1.9,2.6-1.6c0.6,0.2,1,0.6,1.2,1.2c0.2,0,0.4,0,0.6,0.1
		c1.1,0.3,1.7,1.7,1.3,3.1c-0.3,1.4-1.5,2.2-2.6,1.9c-0.2-0.1-0.3-0.1-0.4-0.2c-0.5,0.5-1.2,0.8-1.9,0.6
		C941.9,232.5,941.7,232.4,941.4,232.2L941.4,232.2z"/>
	<polyline class="st2" points="943.3,232.3 944.7,236.3 946.6,238.3 	"/>
	<polyline class="st2" points="951.8,229.8 949.6,233.5 947.3,235 	"/>
	<polyline class="st2" points="945.8,222.5 946.8,226.5 948.1,228.4 	"/>
	<polyline class="st2" points="950,234.9 948.4,237.5 946.8,238.5 	"/>
</g>
<g class="st0">
	<polygon class="st1" points="644.2,215 641,253.9 638.6,254.6 	"/>
	<path class="st1" d="M640.5,219.1c-0.7,1-2,1.3-2.9,0.7c-1.1-0.6-1.4-2.2-0.7-3.4c0.5-0.9,1.5-1.4,2.4-1.4c-0.1-0.4,0-0.9,0.2-1.3
		c0.5-0.9,1.5-1.2,2.2-0.7c0.1,0,0.1,0,0.2,0.1c1-1.4,2.8-2,4.1-1.1c0.7,0.4,1.2,1.2,1.4,2.1c0.3,0.1,0.6,0.2,0.8,0.3
		c1.5,0.9,1.9,3,1,4.6c-0.9,1.7-2.9,2.3-4.3,1.4c-0.2-0.1-0.4-0.3-0.5-0.4c-0.9,0.5-2,0.5-2.9,0C641,219.8,640.7,219.4,640.5,219.1
		L640.5,219.1z"/>
	<path class="st1" d="M645.5,227.4c-0.9,0.8-2.2,0.8-3,0c-0.9-0.9-0.9-2.5,0-3.6c0.7-0.8,1.7-1.1,2.6-0.8c0-0.4,0.2-0.8,0.5-1.2
		c0.7-0.8,1.7-0.8,2.3-0.2c0.1,0,0.1,0.1,0.1,0.1c1.2-1.2,3.1-1.3,4.3-0.2c0.6,0.6,0.9,1.5,0.9,2.3c0.3,0.1,0.5,0.3,0.7,0.5
		c1.3,1.2,1.2,3.3,0,4.8c-1.3,1.4-3.3,1.6-4.5,0.4c-0.2-0.2-0.3-0.3-0.4-0.5c-1,0.2-2,0-2.8-0.7
		C645.9,228.1,645.7,227.7,645.5,227.4L645.5,227.4z"/>
	<path class="st1" d="M642.3,235.2c-0.6,0.4-1.4,0.3-2,0c-0.6-0.4-0.6-1.2,0-1.7c0.4-0.4,1.1-0.5,1.6-0.4c0-0.2,0.1-0.4,0.3-0.6
		c0.4-0.3,1.1-0.4,1.5-0.1c0,0,0.1,0,0.1,0.1c0.8-0.5,2-0.6,2.8,0c0.4,0.3,0.6,0.7,0.6,1.1c0.2,0.1,0.3,0.2,0.5,0.3
		c0.8,0.6,0.9,1.6,0.1,2.3c-0.8,0.7-2.1,0.7-2.9,0.1c-0.1-0.1-0.2-0.2-0.3-0.2c-0.6,0.1-1.3,0-1.8-0.4
		C642.6,235.6,642.4,235.4,642.3,235.2L642.3,235.2z"/>
	<path class="st1" d="M633.3,231.3c-0.5,1.1-1.6,1.7-2.7,1.4c-1.2-0.4-1.9-1.8-1.5-3.2c0.3-1.1,1.1-1.8,2-1.9
		c-0.2-0.4-0.2-0.9-0.1-1.3c0.3-1,1.2-1.5,2-1.3c0.1,0,0.1,0,0.2,0c0.6-1.7,2.2-2.6,3.7-2.2c0.8,0.2,1.5,0.8,1.8,1.6
		c0.3,0,0.6,0,0.9,0.1c1.6,0.4,2.5,2.4,2,4.2c-0.5,1.9-2.2,3-3.8,2.5c-0.2-0.1-0.4-0.2-0.6-0.3c-0.8,0.7-1.8,1-2.8,0.8
		C633.9,231.8,633.6,231.6,633.3,231.3L633.3,231.3z"/>
	<polyline class="st2" points="636,231.5 638.1,237.1 641,239.7 	"/>
	<polyline class="st2" points="648.6,228.3 645.4,233.2 641.9,235.3 	"/>
	<polyline class="st2" points="639.6,218.2 641,223.6 643.1,226.2 	"/>
	<polyline class="st2" points="645.9,235.2 643.6,238.6 641.3,240.1 	"/>
</g>
<g class="st0">
	<polygon class="st1" points="743.2,218 742.2,236 740.9,235.9 	"/>
	<path class="st1" d="M741.5,219.9c-0.3,0.4-0.9,0.6-1.3,0.3c-0.6-0.3-0.6-1-0.4-1.5c0.2-0.4,0.6-0.6,1.1-0.7c0-0.2,0-0.4,0.1-0.5
		c0.2-0.4,0.7-0.5,1-0.4h0.1c0.4-0.7,1.2-0.9,1.9-0.5c0.3,0.2,0.6,0.5,0.7,0.9c0.1,0.1,0.2,0,0.3,0.2c0.7,0.4,0.9,1.4,0.4,2.1
		c-0.4,0.8-1.3,1.1-1.9,0.7c-0.1,0-0.2-0.1-0.2-0.2c-0.4,0.2-0.9,0.2-1.3,0C741.8,220.2,741.6,220.1,741.5,219.9L741.5,219.9z"/>
	<path class="st1" d="M743.9,223.6c-0.4,0.4-1,0.4-1.4,0s-0.5-1.2,0-1.6c0.3-0.3,0.7-0.5,1.2-0.4c0-0.2,0.1-0.4,0.2-0.6
		c0.3-0.4,0.8-0.4,1.1-0.1h0.1c0.5-0.6,1.4-0.6,1.9-0.1c0.3,0.3,0.5,0.6,0.4,1.1c0.1,0.1,0.3,0.1,0.3,0.2c0.6,0.5,0.6,1.5,0.1,2.2
		c-0.6,0.7-1.5,0.7-2.1,0.2c-0.1,0-0.2-0.2-0.2-0.3c-0.5,0.1-1,0-1.3-0.3C744,224,744,223.8,743.9,223.6L743.9,223.6z"/>
	<path class="st1" d="M742.5,227.2c-0.3,0.2-0.7,0.2-0.9,0s-0.3-0.6,0-0.8c0.2-0.2,0.5-0.3,0.8-0.1c0-0.1,0-0.2,0.1-0.3
		c0.2-0.2,0.5-0.2,0.7,0c0,0,0,0,0.1,0c0.4-0.2,0.9-0.2,1.3,0c0.2,0.1,0.3,0.3,0.3,0.5c0.1,0,0.1,0.1,0.2,0.1c0.4,0.3,0.4,0.7,0,1
		c-0.3,0.3-1,0.4-1.3,0c-0.1,0-0.1,0-0.1-0.1c-0.3,0-0.6,0-0.9-0.2C742.5,227.4,742.5,227.3,742.5,227.2L742.5,227.2z"/>
	<path class="st1" d="M738.3,225.5c-0.2,0.5-0.7,0.8-1.2,0.7c-0.5-0.2-0.9-0.8-0.7-1.4c0.1-0.4,0.5-0.8,0.9-0.9
		c-0.1-0.2-0.1-0.4,0-0.6c0.1-0.4,0.5-0.7,0.9-0.6h0.1c0.3-0.7,1-1.2,1.7-1c0.4,0.1,0.7,0.4,0.8,0.7c0.2,0,0.2,0,0.4,0
		c0.8,0.2,1.2,1.1,0.9,1.9c-0.2,0.8-1,1.4-1.8,1.2c-0.1,0-0.2-0.1-0.3-0.1c-0.3,0.3-0.8,0.5-1.3,0.3
		C738.6,225.7,738.5,225.6,738.3,225.5L738.3,225.5z"/>
	<polyline class="st2" points="739.6,225.6 740.6,228.1 741.9,229.3 	"/>
	<polyline class="st2" points="745.3,224 743.9,226.3 742.3,227.2 	"/>
	<polyline class="st2" points="741.1,219.5 741.8,222 742.8,223.1 	"/>
	<polyline class="st2" points="744.1,227.2 743.1,228.8 742,229.4 	"/>
</g>
<g class="st0">
	<path class="st1" d="M661.6,247.6l6.8-1.8c1.1-0.3,1.4-0.3,1.9-0.5c1.2-0.3,0.7-1.2,0.4-2c-0.2-0.9-1.4-1.3-2.6-1
		c-0.1,0-0.2,0.1-0.3,0.1c-0.6-0.9-1.7-1.3-2.9-1c-1,0.3-1.7,1-1.9,1.9c-0.7-0.6-1.8-0.8-2.9-0.5c-0.9,0.3-1.6,0.8-2,1.5
		c-0.1,0-0.2,0-0.3,0.1c-1.2,0.4-2,1.1-2.3,1.9c-0.5-0.8-1.4-1.2-2.2-0.9c-1.1,0.3-1.7,1.4-1.4,2.5c0.2,0.5,0.4,1.2,0.8,1.6
		c0.3,0.3,0.6,0.4,0.9,0.3c2.5-0.7,5.4-1.6,7.1-2L661.6,247.6z"/>
</g>
<g class="st0">
	<path class="st1" d="M915.8,246.4l10.3,0.8c1.7,0.2,2.1,0.2,2.9,0.3c1.8,0.1,1.4-1.2,1.5-2.5s-1.3-2.5-3-2.6c-0.2,0-0.3,0-0.5,0
		c-0.3-1.5-1.7-2.6-3.4-2.8c-1.5-0.1-2.8,0.6-3.5,1.7c-0.7-1.2-2.1-2.1-3.8-2.2c-1.4-0.1-2.6,0.3-3.5,1.1c-0.1,0-0.3,0-0.4,0
		c-1.8-0.1-3.4,0.5-4.1,1.5c-0.2-1.3-1.3-2.3-2.6-2.4c-1.6-0.1-3,1.1-3.1,2.8c-0.1,0.8,0,1.9,0.3,2.6c0.2,0.5,0.6,0.7,1.1,0.7
		c3.8,0.3,8.1,0.7,10.7,0.8L915.8,246.4z"/>
</g>
<g class="st0">
	<path class="st1" d="M727.5,235.6l8.2-0.5c-0.2-0.1,2-0.1,2.8-0.2c1.5-0.2,0.5-1.6,0.4-2.7c-0.2-1.1-1.5-1.8-3-1.6
		c-0.1,0-0.3,0-0.4,0.1c-0.6-1.2-1.9-1.9-3.4-1.7c-1.3,0.2-2.3,1-2.6,2.1c-0.8-0.9-2.1-1.3-3.5-1.1c-1.2,0.2-2.1,0.8-2.7,1.5
		c-0.1,0-0.3,0-0.4,0c-1.5,0.2-2.7,1-3.1,2c-0.4-1-1.5-1.7-2.6-1.5c-1.4,0.2-2.3,1.5-2.1,2.9c0.1,0.7,0.1,1.1,0.4,1.7
		c0.3,0.4,0.9,0.2,1.3,0.2c3.2-0.5,7-0.7,9.2-0.9L727.5,235.6z"/>
</g>
<g class="st0">
	<path class="st1" d="M876.2,243.3l7.1,0.5c1.2,0.1,1.4,0.2,2,0.2c1.2,0.1,1-0.8,1.1-1.7s-0.9-1.7-2.1-1.8c-0.1,0-0.2,0-0.3,0
		c-0.2-1-1.2-1.8-2.4-1.9c-1-0.1-1.9,0.4-2.4,1.2c-0.5-0.8-1.4-1.4-2.6-1.5c-0.9-0.1-1.8,0.2-2.4,0.7c-0.1,0-0.2,0-0.3,0
		c-1.2-0.1-2.3,0.4-2.8,1c-0.2-0.9-0.9-1.6-1.8-1.6c-1.1-0.1-2.1,0.8-2.2,1.9c0,0.6,0,1.3,0.2,1.8c0.2,0.4,0.4,0.5,0.8,0.5
		c2.6,0.2,5.6,0.5,7.4,0.6L876.2,243.3z"/>
</g>
</svg>
