<?xml version="1.0" encoding="utf-8"?>
<!-- Generator: Adobe Illustrator 26.0.3, SVG Export Plug-In . SVG Version: 6.00 Build 0)  -->
<svg version="1.1" id="Слой_1" xmlns:xodm="http://www.corel.com/coreldraw/odm/2003"
	 xmlns="http://www.w3.org/2000/svg" xmlns:xlink="http://www.w3.org/1999/xlink" x="0px" y="0px" viewBox="0 0 1133.9 200.8"
	 style="enable-background:new 0 0 1133.9 200.8;" xml:space="preserve">
<style type="text/css">
	.st0{fill-rule:evenodd;clip-rule:evenodd;fill:#DCD4D1;}
</style>
<g id="Слой_x0020_1">
	<path class="st0" d="M58,125.5c-13.2-1.9-58,22.2-58,75.3h122.1h153.7h346H754h185.9h221.6c0-53.1,6.7-64.2-5.6-100.4
		c-22.8-66.8-24-75.5-57.9-81.9c-74.9-14.1-160.9,189.9-158,137.7c5-90.7-91.1-47-136.3-33.7c-56.1,16.5-105.6,28.2-137,28.2
		c-82.3-0.1-62.8-46.1-99.8-31.4c-43.9,17.6-210.1,43.8-238.3-8.6c-34.3-63.7-108.7,61.4-139.1,61.4C143.9,172,102.2,131.7,58,125.5
		z"/>
</g>
<path class="st0" d="M188,141.8c-9.1,2.1-55.3-33.8-55-57c0.1-9.2,3.1-23.5,10-25c7.7-1.6,17.9,13.4,22,26
	C170.9,104.1,196.2,139.9,188,141.8z"/>
<path class="st0" d="M417.3,127.7c-4.6-3.1-7.8-38.1,2.5-47.4c4.1-3.7,11.6-8.3,15.1-5.8c3.9,2.7,1.5,13.3-2.4,20.3
	C426.9,104.8,421.5,130.5,417.3,127.7z"/>
<path class="st0" d="M437.3,125.8c-2.2-3,3.6-25.3,12.1-28.8c3.3-1.4,9-2.5,10.6-0.3c1.8,2.5-2.1,8.6-6,12
	C448.3,113.8,439.3,128.5,437.3,125.8z"/>
</svg>
