<?xml version="1.0" encoding="utf-8"?>
<!-- Generator: Adobe Illustrator 25.4.1, SVG Export Plug-In . SVG Version: 6.00 Build 0)  -->
<svg version="1.1" id="Слой_1" xmlns="http://www.w3.org/2000/svg" xmlns:xlink="http://www.w3.org/1999/xlink" x="0px" y="0px"
	 viewBox="0 0 1550 300" style="enable-background:new 0 0 1550 300;" xml:space="preserve">
<style type="text/css">
	.st0{opacity:0.13;enable-background:new    ;}
	.st1{fill:#6668AC;}
	.st2{opacity:0.53;fill:#6668AC;enable-background:new    ;}
	.st3{opacity:0.26;fill:#6668AC;enable-background:new    ;}
	.st4{opacity:0.17;fill:#6668AC;enable-background:new    ;}
</style>
<rect x="-4.8" width="1554.8" height="300"/>
<g id="Слой_2_00000146489310762379544280000007946033351218465152_">
</g>
<path class="st0" d="M1071.5,197.6C955.2,186.9,858.4,300,858.4,300h161.8c0,0,40.3-41.9,107.9-40.2c70.5,1.7,421.9,40.2,421.9,40.2
	S1135.9,203.5,1071.5,197.6z"/>
<circle class="st1" cx="12" cy="-10.2" r="68.2"/>
<circle class="st1" cx="623.1" cy="233.3" r="83.3"/>
<circle class="st2" cx="188.2" cy="89" r="38.7"/>
<circle class="st2" cx="515.4" cy="89.6" r="24.3"/>
<circle class="st2" cx="232" cy="280.5" r="16.6"/>
<path class="st3" d="M396.4,106.1V68v-2.3h-1.8h-35.4V66v2v37.9c-2-1.1-5.2-1.8-9-1.8c-6,0-10.8,1.8-10.8,4.1s4.9,4.1,10.8,4.1
	s10.8-1.8,10.8-4.1v-0.2V68h33.6v36.8c-2-0.9-5.1-1.6-8.7-1.6c-6,0-10.8,1.8-10.8,4.1s4.9,4.1,10.8,4.1s10.8-1.8,10.8-4.1
	C396.8,106.8,396.6,106.6,396.4,106.1z"/>
<path class="st3" d="M122.2,53.5V15.4v-2.3h-1.8H85v0.2v2v37.9c-2-1.1-5.2-1.8-9-1.8c-6,0-10.8,1.8-10.8,4.1c0,2.3,4.9,4.1,10.8,4.1
	s10.8-1.8,10.8-4.1v-0.2V15.4h33.6v36.8c-2-0.9-5.1-1.6-8.7-1.6c-6,0-10.8,1.8-10.8,4.1c0,2.3,4.9,4.1,10.8,4.1s10.8-1.8,10.8-4.1
	C122.6,54.2,122.4,54,122.2,53.5z"/>
<path class="st3" d="M112.4,191.5v-24.9v-1.5h-1.2H88.1v0.1v1.3v24.7c-1.3-0.7-3.4-1.2-5.9-1.2c-3.9,0-7.1,1.2-7.1,2.6
	s3.2,2.6,7.1,2.6c3.9,0,7.1-1.2,7.1-2.6v-0.1v-26h21.9v24c-1.3-0.6-3.3-1-5.7-1c-3.9,0-7.1,1.2-7.1,2.6c0,1.5,3.2,2.6,7.1,2.6
	c3.9,0,7.1-1.2,7.1-2.6C112.6,191.9,112.5,191.8,112.4,191.5z"/>
<path class="st4" d="M321.2,64.7L321.2,64.7V13.1h-2.1V61c-2.5-2-7.1-3.4-12.3-3.4c-7.9,0-14.4,3.3-14.4,7.2s6.5,7.2,14.4,7.2
	C314.7,71.9,321.2,68.6,321.2,64.7L321.2,64.7z"/>
<path class="st4" d="M210.9,219L210.9,219v-51.5h-2.1v47.9c-2.5-2-7.1-3.4-12.3-3.4c-7.9,0-14.4,3.3-14.4,7.2s6.5,7.2,14.4,7.2
	C204.4,226.2,210.9,222.9,210.9,219L210.9,219z"/>
</svg>
