<?xml version="1.0" encoding="utf-8"?>
<!-- Generator: Adobe Illustrator 26.0.3, SVG Export Plug-In . SVG Version: 6.00 Build 0)  -->
<svg version="1.1" id="Слой_1" xmlns="http://www.w3.org/2000/svg" xmlns:xlink="http://www.w3.org/1999/xlink" x="0px" y="0px"
	 viewBox="0 0 1546 864" style="enable-background:new 0 0 1546 864;" xml:space="preserve">
<style type="text/css">
	.st0{fill:#DCD4D1;}
	.st1{fill:#6668AC;}
</style>
<g>
	<path class="st0" d="M1668,741.5c-287,51.4-723.7,17.6-1091.7,17.6S-90,733.8-90,702.6c0-31.2,298.3-56.6,666.3-56.6
		S2026.9,677.2,1668,741.5z"/>
</g>
<g>
	<path class="st1" d="M1489,928c-124.3,25.2-421.3-27-829.3-27s-722.5,0.4-759.7-22c-388-233,375.7-122.1,759.7-135.2
		C1708,708,2026.9,819,1489,928z"/>
</g>
<g>
	<path class="st0" d="M1365.6,871.4c-112.1,18.1-298.3,56.6-666.3,56.6S33,902.7,33,871.4c0-31.2,500.7,30.9,666.3-56.6
		C980.1,666.6,1850.8,793,1365.6,871.4z"/>
</g>
<g>
	<path class="st0" d="M1671,70.5C1384,122,947.3,88.1,579.3,88.1S-87,62.8-87,31.6S211.3-25,579.3-25S2029.9,6.2,1671,70.5z"/>
</g>
<g>
	<path class="st1" d="M1492,257c-124.3,25.2-421.3-27-829.3-27S-59.8,230.4-97,208C-485-25,278.7,85.9,662.7,72.8
		C1711,37,2029.9,148,1492,257z"/>
</g>
<g>
	<path class="st0" d="M1368.6,200.4c-112.1,18.1-298.3,56.6-666.3,56.6S36,231.7,36,200.4s500.7,30.9,666.3-56.6
		C983.1-4.4,1853.8,122,1368.6,200.4z"/>
</g>
<g>
	<path class="st0" d="M-102.4,234.5c233,51.4,587.6,17.6,886.4,17.6s541-25.3,541-56.6S1082.8,139,784,139S-393.8,170.2-102.4,234.5
		z"/>
</g>
<g>
	<path class="st1" d="M43,421c100.9,25.2,342-27,673.3-27s586.7,0.4,616.9-22c315-233-305-122.1-616.9-135.2
		C-134.8,201-393.8,312,43,421z"/>
</g>
<g>
	<path class="st0" d="M143.2,364.4c91,18.1,242.2,56.6,541,56.6s541-25.3,541-56.6s-406.6,30.9-541-56.6
		C456.2,159.6-250.8,286,143.2,364.4z"/>
</g>
<g>
	<path class="st0" d="M299.2,373.5c143.7,51.4,362.3,17.6,546.6,17.6s333.6-25.3,333.6-56.6S1030.1,278,845.8,278
		S119.5,309.2,299.2,373.5z"/>
</g>
<g>
	<path class="st1" d="M388.9,560c62.2,25.2,210.9-27,415.2-27s361.8,0.4,380.4-22c194.3-233-188.1-122.1-380.4-135.2
		C279.2,340,119.5,451,388.9,560z"/>
</g>
<g>
	<path class="st0" d="M450.7,503.4C506.8,521.6,600,560,784.3,560s333.6-25.3,333.6-56.6s-250.7,30.9-333.6-56.6
		C643.7,298.6,207.7,425,450.7,503.4z"/>
</g>
<g>
	<path class="st0" d="M906.2,323.5c143.7,51.4,362.3,17.6,546.6,17.6s333.6-25.3,333.6-56.6S1637.1,228,1452.8,228
		S726.5,259.2,906.2,323.5z"/>
</g>
<g>
	<path class="st1" d="M995.9,510c62.2,25.2,210.9-27,415.2-27s361.8,0.4,380.4-22c194.3-233-188.1-122.1-380.4-135.2
		C886.2,290,726.5,401,995.9,510z"/>
</g>
<g>
	<path class="st0" d="M1057.7,453.4c56.1,18.1,149.4,56.6,333.6,56.6s333.6-25.3,333.6-56.6s-250.7,30.9-333.6-56.6
		C1250.7,248.6,814.7,375,1057.7,453.4z"/>
</g>
<g>
	<path class="st0" d="M-144.8,460.6c143.7,65,362.3,22.2,546.6,22.2s333.6-32,333.6-71.4S586.1,340,401.8,340
		S-324.5,379.4-144.8,460.6z"/>
</g>
<g>
	<path class="st1" d="M-55.1,696.2c62.2,31.8,210.9-34.1,415.2-34.1s361.8,0.4,380.4-27.8C934.7,340,552.4,480,360.1,463.5
		C-164.8,418.3-324.5,558.5-55.1,696.2z"/>
</g>
<g>
	<path class="st0" d="M6.7,624.8c56.1,22.9,149.4,71.4,333.6,71.4s333.6-32,333.6-71.4c0-39.4-250.7,39-333.6-71.4
		C199.7,366-236.3,525.7,6.7,624.8z"/>
</g>
<g>
	<path class="st0" d="M647.1,552.6c183.3,65,462.4,22.2,697.5,22.2s425.7-32,425.7-71.4S1579.7,432,1344.6,432
		S417.8,471.4,647.1,552.6z"/>
</g>
<g>
	<path class="st1" d="M761.4,788.2c79.4,31.8,269.1-34.1,529.8-34.1s461.6,0.4,485.4-27.8c247.9-294.3-240-154.3-485.4-170.8
		C621.5,510.3,417.7,650.5,761.4,788.2z"/>
</g>
<g>
	<path class="st0" d="M840.3,716.8c71.6,22.9,190.6,71.4,425.7,71.4s425.7-32,425.7-71.4c0-39.4-319.9,39-425.7-71.4
		C1086.6,458,530.3,617.7,840.3,716.8z"/>
</g>
</svg>
