<?xml version="1.0" encoding="utf-8"?>
<!-- Generator: Adobe Illustrator 26.0.3, SVG Export Plug-In . SVG Version: 6.00 Build 0)  -->
<svg version="1.1" id="Слой_1" xmlns="http://www.w3.org/2000/svg" xmlns:xlink="http://www.w3.org/1999/xlink" x="0px" y="0px"
	 viewBox="0 0 3000 2000" style="enable-background:new 0 0 3000 2000;" xml:space="preserve">
<style type="text/css">
	.st0{fill:#DCD4D1;}
	.st1{fill:#6668AC;}
</style>
<g>
	<rect x="0" y="-23" class="st0" width="3578.3" height="2012.8"/>
</g>
<g>
	<path class="st1" d="M2633.2,1867.5c-163.6,64-379.3,88.4-578.2,88.4s-1183.2-97.4-984.5-100.9c167.1-2.9,451.4,24.2,650.3,24.2
		S2777.1,1811.1,2633.2,1867.5z"/>
</g>
<g>
	<path class="st1" d="M1629.8,1624.3c163.6-64,379.3-88.4,578.2-88.4c198.9,0,1183.2,97.4,984.5,100.9
		c-167.1,2.9-451.4-24.2-650.3-24.2C2343.3,1612.6,1485.9,1680.6,1629.8,1624.3z"/>
</g>
<g>
	<path class="st1" d="M1877.5,1479.6c-87.6-64-203.1-88.4-309.7-88.4c-106.5,0-633.7,97.4-527.2,100.9
		c89.5,2.9,241.8-24.2,348.3-24.2S1954.6,1536,1877.5,1479.6z"/>
</g>
<g>
	<path class="st1" d="M1035.3,1220.4c163.6-64,379.3-88.4,578.2-88.4s1183.2,97.4,984.5,100.9c-167.1,2.9-451.4-24.2-650.3-24.2
		S891.5,1276.7,1035.3,1220.4z"/>
</g>
<g>
	<path class="st1" d="M1268,1835.6c81.2-36.9,190.2-55.7,291.4-61.9c101.2-6.2,605.4,11.6,504.4,19.5c-84.9,6.6-230.6,2-331.8,8.2
		C1630.8,1807.5,1196.6,1868,1268,1835.6z"/>
</g>
<g>
	<path class="st1" d="M838.9,1631.5c81.2-36.9,190.2-55.7,291.4-61.9c101.2-6.2,605.4,11.6,504.4,19.5c-84.9,6.6-230.6,2-331.8,8.2
		C1201.7,1603.5,767.5,1664,838.9,1631.5z"/>
</g>
<g>
	<path class="st1" d="M2039.2,1454.6c81.2-36.9,190.2-55.7,291.4-61.9c101.2-6.2,605.4,11.6,504.4,19.5c-84.9,6.6-230.6,2-331.8,8.2
		C2402,1426.6,1967.9,1487.1,2039.2,1454.6z"/>
</g>
<g>
	<path class="st1" d="M1876.6,1332.8c81.2-36.9,190.2-55.7,291.4-61.9c101.2-6.2,605.4,11.6,504.4,19.5c-84.9,6.6-230.6,2-331.8,8.2
		C2239.3,1304.8,1805.2,1365.3,1876.6,1332.8z"/>
</g>
<g>
	<path class="st1" d="M2427.3,1667.2c-128.7,37.3-299.7,56.6-457.9,63.2c-158.2,6.6-943.2-9.1-785.3-17.4c132.8-7,359.6-3,517.8-9.6
		C1860.1,1696.8,2540.5,1634.4,2427.3,1667.2z"/>
</g>
<g>
	<path class="st1" d="M1856.2,1259.9c-128.7,37.3-299.7,56.6-457.9,63.2c-158.2,6.6-943.2-9.1-785.3-17.4c132.8-7,359.6-3,517.8-9.6
		C1288.9,1289.5,1969.3,1227.1,1856.2,1259.9z"/>
</g>
<g>
	<path class="st1" d="M914.2,1825.5c-163.6,64-379.3,88.4-578.2,88.4s-1183.2-97.4-984.5-100.9c167.1-2.9,451.4,24.2,650.3,24.2
		S1058.1,1769.1,914.2,1825.5z"/>
</g>
<g>
	<path class="st1" d="M-89.2,1582.3c163.6-64,379.3-88.4,578.2-88.4s1183.2,97.4,984.5,100.9c-167.1,2.9-451.4-24.2-650.3-24.2
		S-233.1,1638.6-89.2,1582.3z"/>
</g>
<g>
	<path class="st1" d="M158.5,1437.6c-87.6-64-203.1-88.4-309.7-88.4s-633.7,97.4-527.2,100.9c89.5,2.9,241.8-24.2,348.3-24.2
		S235.6,1494,158.5,1437.6z"/>
</g>
<g>
	<path class="st1" d="M-683.7,1178.4c163.6-64,379.3-88.4,578.2-88.4s1183.2,97.4,984.5,100.9c-167.1,2.9-451.4-24.2-650.3-24.2
		S-827.5,1234.7-683.7,1178.4z"/>
</g>
<g>
	<path class="st1" d="M-451,1793.6c81.2-36.9,190.2-55.7,291.4-61.9c101.2-6.2,605.4,11.6,504.4,19.5c-84.9,6.6-230.6,2-331.8,8.2
		S-522.4,1826-451,1793.6z"/>
</g>
<g>
	<path class="st1" d="M-880.1,1589.5c81.2-36.9,190.2-55.7,291.4-61.9c101.2-6.2,605.4,11.6,504.4,19.5c-84.9,6.6-230.6,2-331.8,8.2
		C-517.3,1561.5-951.5,1622-880.1,1589.5z"/>
</g>
<g>
	<path class="st1" d="M320.2,1412.6c81.2-36.9,190.2-55.7,291.4-61.9c101.2-6.2,605.4,11.6,504.4,19.5c-84.9,6.6-230.6,2-331.8,8.2
		C683,1384.6,248.9,1445.1,320.2,1412.6z"/>
</g>
<g>
	<path class="st1" d="M157.6,1290.8c81.2-36.9,190.2-55.7,291.4-61.9c101.2-6.2,605.4,11.6,504.4,19.5c-84.9,6.6-230.6,2-331.8,8.2
		C520.3,1262.8,86.2,1323.3,157.6,1290.8z"/>
</g>
<g>
	<path class="st1" d="M708.3,1625.2c-128.7,37.3-299.7,56.6-457.9,63.2c-158.2,6.6-943.2-9.1-785.3-17.4c132.8-7,359.6-3,517.8-9.6
		C141.1,1654.8,821.5,1592.4,708.3,1625.2z"/>
</g>
<g>
	<path class="st1" d="M137.2,1217.9c-128.7,37.3-299.7,56.6-457.9,63.2c-158.2,6.6-943.2-9.1-785.3-17.4c132.8-7,359.6-3,517.8-9.6
		C-430.1,1247.5,250.3,1185.1,137.2,1217.9z"/>
</g>
<g>
	<path class="st1" d="M1633.2,945.5c-163.6,64-379.3,88.4-578.2,88.4S-128.2,936.5,70.6,933c167.1-2.9,451.4,24.2,650.3,24.2
		S1777.1,889.1,1633.2,945.5z"/>
</g>
<g>
	<path class="st1" d="M629.8,702.3c163.6-64,379.3-88.4,578.2-88.4s1183.2,97.4,984.5,100.9c-167.1,2.9-451.4-24.2-650.3-24.2
		S485.9,758.6,629.8,702.3z"/>
</g>
<g>
	<path class="st1" d="M877.5,557.6c-87.6-64-203.1-88.4-309.7-88.4S-65.8,566.6,40.6,570.1c89.5,2.9,241.8-24.2,348.3-24.2
		S954.6,614,877.5,557.6z"/>
</g>
<g>
	<path class="st1" d="M35.3,298.4c163.6-64,379.3-88.4,578.2-88.4s1183.2,97.4,984.5,100.9c-167.1,2.9-451.4-24.2-650.3-24.2
		S-108.5,354.7,35.3,298.4z"/>
</g>
<g>
	<path class="st1" d="M268,913.6c81.2-36.9,190.2-55.7,291.4-61.9c101.2-6.2,605.4,11.6,504.4,19.5c-84.9,6.6-230.6,2-331.8,8.2
		S196.6,946,268,913.6z"/>
</g>
<g>
	<path class="st1" d="M-161.1,709.5c81.2-36.9,190.2-55.7,291.4-61.9c101.2-6.2,605.4,11.6,504.4,19.5c-84.9,6.6-230.6,2-331.8,8.2
		S-232.5,742-161.1,709.5z"/>
</g>
<g>
	<path class="st1" d="M1039.2,532.6c81.2-36.9,190.2-55.7,291.4-61.9c101.2-6.2,605.4,11.6,504.4,19.5c-84.9,6.6-230.6,2-331.8,8.2
		C1402,504.6,967.9,565.1,1039.2,532.6z"/>
</g>
<g>
	<path class="st1" d="M876.6,410.8c81.2-36.9,190.2-55.7,291.4-61.9c101.2-6.2,605.4,11.6,504.4,19.5c-84.9,6.6-230.6,2-331.8,8.2
		C1239.3,382.8,805.2,443.3,876.6,410.8z"/>
</g>
<g>
	<path class="st1" d="M1427.3,745.2c-128.7,37.3-299.7,56.6-457.9,63.2S26.2,799.3,184.2,791c132.8-7,359.6-3,517.8-9.6
		S1540.5,712.4,1427.3,745.2z"/>
</g>
<g>
	<path class="st1" d="M856.2,337.9c-128.7,37.3-299.7,56.6-457.9,63.2c-158.2,6.6-943.2-9.1-785.3-17.4c132.8-7,359.6-3,517.8-9.6
		S969.3,305.1,856.2,337.9z"/>
</g>
<g>
	<path class="st1" d="M3271.2,1096.5c-163.6,64-379.3,88.4-578.2,88.4c-198.9,0-1183.2-97.4-984.5-100.9
		c167.1-2.9,451.4,24.2,650.3,24.2S3415.1,1040.1,3271.2,1096.5z"/>
</g>
<g>
	<path class="st1" d="M2267.8,853.3c163.6-64,379.3-88.4,578.2-88.4c198.9,0,1183.2,97.4,984.5,100.9
		c-167.1,2.9-451.4-24.2-650.3-24.2C2981.3,841.6,2123.9,909.6,2267.8,853.3z"/>
</g>
<g>
	<path class="st1" d="M2515.5,708.6c-87.6-64-203.1-88.4-309.7-88.4s-633.7,97.4-527.2,100.9c89.5,2.9,241.8-24.2,348.3-24.2
		S2592.6,765,2515.5,708.6z"/>
</g>
<g>
	<path class="st1" d="M1673.3,449.4c163.6-64,379.3-88.4,578.2-88.4c198.9,0,1183.2,97.4,984.5,100.9
		c-167.1,2.9-451.4-24.2-650.3-24.2S1529.5,505.7,1673.3,449.4z"/>
</g>
<g>
	<path class="st1" d="M1906,1064.6c81.2-36.9,190.2-55.7,291.4-61.9c101.2-6.2,605.4,11.6,504.4,19.5c-84.9,6.6-230.6,2-331.8,8.2
		S1834.6,1097,1906,1064.6z"/>
</g>
<g>
	<path class="st1" d="M1476.9,860.5c81.2-36.9,190.2-55.7,291.4-61.9c101.2-6.2,605.4,11.6,504.4,19.5c-84.9,6.6-230.6,2-331.8,8.2
		S1405.5,893,1476.9,860.5z"/>
</g>
<g>
	<path class="st1" d="M2677.2,683.6c81.2-36.9,190.2-55.7,291.4-61.9c101.2-6.2,605.4,11.6,504.4,19.5c-84.9,6.6-230.6,2-331.8,8.2
		S2605.9,716.1,2677.2,683.6z"/>
</g>
<g>
	<path class="st1" d="M2514.6,561.8c81.2-36.9,190.2-55.7,291.4-61.9c101.2-6.2,605.4,11.6,504.4,19.5c-84.9,6.6-230.6,2-331.8,8.2
		S2443.2,594.3,2514.6,561.8z"/>
</g>
<g>
	<path class="st1" d="M3065.3,896.2c-128.7,37.3-299.7,56.6-457.9,63.2s-943.2-9.1-785.3-17.4c132.8-7,359.6-3,517.8-9.6
		S3178.5,863.4,3065.3,896.2z"/>
</g>
<g>
	<path class="st1" d="M2494.1,488.9c-128.7,37.3-299.7,56.6-457.9,63.2c-158.2,6.6-943.2-9.1-785.3-17.4c132.8-7,359.6-3,517.8-9.6
		S2607.3,456.1,2494.1,488.9z"/>
</g>
<g>
	<path class="st1" d="M2681.5,311.6c-87.6-64-203.1-88.4-309.7-88.4s-633.7,97.4-527.2,100.9c89.5,2.9,241.8-24.2,348.3-24.2
		S2758.6,368,2681.5,311.6z"/>
</g>
<g>
	<path class="st1" d="M1839.3,52.4c163.6-64,379.3-88.4,578.2-88.4c198.9,0,1183.2,97.4,984.5,100.9
		c-167.1,2.9-451.4-24.2-650.3-24.2S1695.5,108.7,1839.3,52.4z"/>
</g>
<g>
	<path class="st1" d="M2843.2,286.6c81.2-36.9,190.2-55.7,291.4-61.9c101.2-6.2,605.4,11.6,504.4,19.5c-84.9,6.6-230.6,2-331.8,8.2
		S2771.9,319.1,2843.2,286.6z"/>
</g>
<g>
	<path class="st1" d="M2680.6,164.8c81.2-36.9,190.2-55.7,291.4-61.9c101.2-6.2,605.4,11.6,504.4,19.5c-84.9,6.6-230.6,2-331.8,8.2
		S2609.2,197.3,2680.6,164.8z"/>
</g>
<g>
	<path class="st1" d="M2660.1,91.9c-128.7,37.3-299.7,56.6-457.9,63.2c-158.2,6.6-943.2-9.1-785.3-17.4c132.8-7,359.6-3,517.8-9.6
		S2773.3,59.1,2660.1,91.9z"/>
</g>
<g>
	<path class="st1" d="M805.5,131.6c-87.6-64-203.1-88.4-309.7-88.4s-633.7,97.4-527.2,100.9c89.5,2.9,241.8-24.2,348.3-24.2
		S882.6,188,805.5,131.6z"/>
</g>
<g>
	<path class="st1" d="M-36.7-127.6c163.6-64,379.3-88.4,578.2-88.4s1183.2,97.4,984.5,100.9c-167.1,2.9-451.4-24.2-650.3-24.2
		S-180.5-71.3-36.7-127.6z"/>
</g>
<g>
	<path class="st1" d="M967.2,106.6c81.2-36.9,190.2-55.7,291.4-61.9s605.4,11.6,504.4,19.5c-84.9,6.6-230.6,2-331.8,8.2
		C1330,78.6,895.9,139.1,967.2,106.6z"/>
</g>
<g>
	<path class="st1" d="M804.6-15.2c81.2-36.9,190.2-55.7,291.4-61.9c101.2-6.2,605.4,11.6,504.4,19.5c-84.9,6.6-230.6,2-331.8,8.2
		S733.2,17.3,804.6-15.2z"/>
</g>
<g>
	<path class="st1" d="M784.2-88.1C655.5-50.7,484.4-31.4,326.3-24.8S-617-33.9-459-42.2c132.8-7,359.6-3,517.8-9.6
		S897.3-120.9,784.2-88.1z"/>
</g>
</svg>
