<?xml version="1.0" encoding="utf-8"?>
<!-- Generator: Adobe Illustrator 26.0.3, SVG Export Plug-In . SVG Version: 6.00 Build 0)  -->
<svg version="1.1" id="Слой_1" xmlns="http://www.w3.org/2000/svg" xmlns:xlink="http://www.w3.org/1999/xlink" x="0px" y="0px"
	 viewBox="0 0 3000 2000" style="enable-background:new 0 0 3000 2000;" xml:space="preserve">
<style type="text/css">
	.st0{fill:#DCD4D1;}
	.st1{fill:#D5D0CF;}
	.st2{fill:#C6C6C6;}
</style>
<g>
	<rect x="0" y="-23" class="st0" width="3578.3" height="2012.8"/>
</g>
<g>
	<path class="st1" d="M900.3,300.7H738.7H480.3H318.6c-98.3,0-178,79.7-178,178v396.2c0,98.3,79.7,178,178,178h581.7
		c98.3,0,178-79.7,178-178V478.7C1078.3,380.4,998.6,300.7,900.3,300.7z M314.6,1009.8c-14.6,0-26.5-11.9-26.5-26.5
		s11.9-26.5,26.5-26.5c14.6,0,26.5,11.9,26.5,26.5S329.2,1009.8,314.6,1009.8z M423.9,1009.8c-14.6,0-26.5-11.9-26.5-26.5
		s11.9-26.5,26.5-26.5c14.6,0,26.5,11.9,26.5,26.5S438.6,1009.8,423.9,1009.8z M858,999.8c-9.1,0-16.6-7.4-16.6-16.6
		s7.4-16.6,16.6-16.6c9.1,0,16.6,7.4,16.6,16.6S867.1,999.8,858,999.8z M948.2,745.7c0,98.3-79.7,178-178,178H448.8
		c-98.3,0-178-79.7-178-178V558.2c0-98.3,79.7-178,178-178h321.5c98.3,0,178,79.7,178,178V745.7z"/>
	<path class="st2" d="M770.2,380.3H448.8c-98.3,0-178,79.7-178,178v187.4c0,98.3,79.7,178,178,178h321.5c98.3,0,178-79.7,178-178
		V558.2C948.2,459.9,868.5,380.3,770.2,380.3z"/>
	<path class="st2" d="M770.2,269.3c0-17.4-14.1-31.5-31.5-31.5H480.3c-17.4,0-31.5,14.1-31.5,31.5c0,17.4,14.1,31.5,31.5,31.5h258.4
		C756.1,300.7,770.2,286.6,770.2,269.3z"/>
	<path class="st2" d="M587.3,235.6c2.1,1.7,8.2,2.6,13.7,1.9s8.3-2.5,6.2-4.3l-88.1-72.9c-2.1-1.7-8.2-2.6-13.7-1.9
		c-5.5,0.6-8.3,2.5-6.2,4.3L587.3,235.6z"/>
	<path class="st2" d="M616.2,237.3L616.2,237.3c5.5,0.7,11.6-0.2,13.8-1.9l91.4-72.5c2.1-1.7-0.6-3.6-6-4.3h0
		c-5.5-0.7-11.6,0.2-13.8,1.9L610.2,233C608.1,234.7,610.8,236.6,616.2,237.3z"/>
	<circle class="st2" cx="314.6" cy="983.3" r="26.5"/>
	<circle class="st2" cx="423.9" cy="983.3" r="26.5"/>
	<circle class="st2" cx="858" cy="983.3" r="16.6"/>
</g>
<g>
	<path class="st1" d="M1224.4,1506.7h-102.7H957.5H854.8c-62.5,0-113.1,50.6-113.1,113.1v251.7c0,62.5,50.6,113.1,113.1,113.1h369.6
		c62.5,0,113.1-50.6,113.1-113.1v-251.7C1337.5,1557.3,1286.8,1506.7,1224.4,1506.7z M852.2,1957.2c-9.3,0-16.8-7.5-16.8-16.8
		s7.5-16.8,16.8-16.8s16.8,7.5,16.8,16.8S861.5,1957.2,852.2,1957.2z M921.7,1957.2c-9.3,0-16.8-7.5-16.8-16.8s7.5-16.8,16.8-16.8
		s16.8,7.5,16.8,16.8S931,1957.2,921.7,1957.2z M1197.5,1950.9c-5.8,0-10.5-4.7-10.5-10.5c0-5.8,4.7-10.5,10.5-10.5
		c5.8,0,10.5,4.7,10.5,10.5C1208,1946.2,1203.3,1950.9,1197.5,1950.9z M1254.8,1789.4c0,62.5-50.6,113.1-113.1,113.1H937.5
		c-62.5,0-113.1-50.6-113.1-113.1v-119.1c0-62.5,50.6-113.1,113.1-113.1h204.3c62.5,0,113.1,50.6,113.1,113.1V1789.4z"/>
	<path class="st2" d="M1141.7,1557.2H937.5c-62.5,0-113.1,50.6-113.1,113.1v119.1c0,62.5,50.6,113.1,113.1,113.1h204.3
		c62.5,0,113.1-50.6,113.1-113.1v-119.1C1254.8,1607.9,1204.2,1557.2,1141.7,1557.2z"/>
	<path class="st2" d="M1141.7,1486.7c0-11-9-20-20-20H957.5c-11,0-20,9-20,20s9,20,20,20h164.2
		C1132.7,1506.7,1141.7,1497.7,1141.7,1486.7z"/>
	<path class="st2" d="M1025.5,1465.3c1.3,1.1,5.2,1.6,8.7,1.2c3.5-0.4,5.3-1.6,3.9-2.7l-56-46.3c-1.3-1.1-5.2-1.6-8.7-1.2
		c-3.5,0.4-5.3,1.6-3.9,2.7L1025.5,1465.3z"/>
	<path class="st2" d="M1043.9,1466.4L1043.9,1466.4c3.5,0.4,7.4-0.1,8.8-1.2l58.1-46c1.4-1.1-0.4-2.3-3.8-2.7h0
		c-3.5-0.4-7.4,0.1-8.8,1.2l-58.1,46C1038.7,1464.7,1040.4,1466,1043.9,1466.4z"/>
	<circle class="st2" cx="852.2" cy="1940.4" r="16.8"/>
	<circle class="st2" cx="921.7" cy="1940.4" r="16.8"/>
	<circle class="st2" cx="1197.5" cy="1940.4" r="10.5"/>
</g>
<g>
	<path class="st1" d="M3412.7,707.2h-221.8h-354.7h-221.8c-134.9,0-244.3,109.4-244.3,244.3v543.7c0,134.9,109.4,244.3,244.3,244.3
		h798.4c134.9,0,244.3-109.4,244.3-244.3V951.5C3657,816.5,3547.6,707.2,3412.7,707.2z M2608.8,1680.4c-20.1,0-36.4-16.3-36.4-36.4
		s16.3-36.4,36.4-36.4s36.4,16.3,36.4,36.4S2628.8,1680.4,2608.8,1680.4z M2758.8,1680.4c-20.1,0-36.4-16.3-36.4-36.4
		s16.3-36.4,36.4-36.4s36.4,16.3,36.4,36.4S2778.9,1680.4,2758.8,1680.4z M3354.6,1666.7c-12.6,0-22.7-10.2-22.7-22.7
		s10.2-22.7,22.7-22.7s22.7,10.2,22.7,22.7S3367.1,1666.7,3354.6,1666.7z M3478.4,1317.8c0,134.9-109.4,244.3-244.3,244.3h-441.2
		c-134.9,0-244.3-109.4-244.3-244.3v-257.2c0-134.9,109.4-244.3,244.3-244.3h441.2c134.9,0,244.3,109.4,244.3,244.3V1317.8z"/>
	<path class="st2" d="M3234.1,816.3h-441.2c-134.9,0-244.3,109.4-244.3,244.3v257.2c0,134.9,109.4,244.3,244.3,244.3h441.2
		c134.9,0,244.3-109.4,244.3-244.3v-257.2C3478.4,925.7,3369,816.3,3234.1,816.3z"/>
	<path class="st2" d="M3234.1,664c0-23.9-19.3-43.2-43.2-43.2h-354.7c-23.9,0-43.2,19.3-43.2,43.2s19.3,43.2,43.2,43.2h354.7
		C3214.7,707.2,3234.1,687.8,3234.1,664z"/>
	<path class="st2" d="M2983,617.7c2.8,2.3,11.2,3.5,18.8,2.6c7.5-0.9,11.4-3.5,8.5-5.8l-120.9-100c-2.8-2.3-11.2-3.5-18.8-2.6
		c-7.5,0.9-11.4,3.5-8.5,5.8L2983,617.7z"/>
	<path class="st2" d="M3022.8,620.1L3022.8,620.1c7.5,0.9,16-0.2,18.9-2.6l125.4-99.5c2.9-2.3-0.8-5-8.3-5.9h0
		c-7.5-0.9-16,0.2-18.9,2.6l-125.4,99.5C3011.6,616.6,3015.3,619.2,3022.8,620.1z"/>
	<circle class="st2" cx="2608.8" cy="1644" r="36.4"/>
	<circle class="st2" cx="2758.8" cy="1644" r="36.4"/>
	<circle class="st2" cx="3354.6" cy="1644" r="22.7"/>
</g>
<path class="st1" d="M1340.9,982.9l-56.3,0l0,7.1h0v72c-3.4-1.1-7.7-1.8-12.4-1.8c-10.8,0-19.5,3.6-19.5,7.9s8.7,7.9,19.5,7.9
	c10.2,0,18.6-3.2,19.4-7.3h0.1V990l42.1,0v72c-3.4-1.1-7.7-1.8-12.4-1.8c-10.8,0-19.5,3.6-19.5,7.9s8.7,7.9,19.5,7.9
	c10.6,0,19.3-3.5,19.5-7.8h0v-79.6h0L1340.9,982.9z"/>
<path class="st1" d="M388.1,1385.9l-56.3,0l0,7.1h0v72c-3.4-1.1-7.7-1.8-12.4-1.8c-10.8,0-19.5,3.6-19.5,7.9s8.7,7.9,19.5,7.9
	c10.2,0,18.6-3.2,19.4-7.3h0.1V1393l42.1,0v72c-3.4-1.1-7.7-1.8-12.4-1.8c-10.8,0-19.5,3.6-19.5,7.9s8.7,7.9,19.5,7.9
	c10.6,0,19.3-3.5,19.5-7.8h0v-79.6h0L388.1,1385.9z"/>
<path class="st1" d="M2047.6,1126l-48.2,0l0,6.1h0v61.7c-2.9-1-6.6-1.6-10.6-1.6c-9.2,0-16.7,3-16.7,6.8c0,3.8,7.5,6.8,16.7,6.8
	c8.8,0,15.9-2.7,16.7-6.2h0.1v-67.6l36.1,0v61.7c-2.9-1-6.6-1.6-10.6-1.6c-9.2,0-16.7,3-16.7,6.8c0,3.8,7.5,6.8,16.7,6.8
	c9.1,0,16.5-3,16.7-6.7h0V1131h0L2047.6,1126z"/>
<path class="st1" d="M1705.5,358.6l-95.6,0l0,12.1h0V493c-5.7-1.9-13.1-3.1-21.1-3.1c-18.3,0-33.2,6-33.2,13.5
	c0,7.5,14.9,13.5,33.2,13.5c17.4,0,31.6-5.4,33-12.3h0.1v-134l71.5,0V493c-5.7-1.9-13.1-3.1-21.1-3.1c-18.3,0-33.2,6-33.2,13.5
	c0,7.5,14.9,13.5,33.2,13.5c18.1,0,32.8-5.9,33.2-13.2h0V368.5h0L1705.5,358.6z"/>
</svg>
