<?xml version="1.0" encoding="utf-8"?>
<!-- Generator: Adobe Illustrator 25.4.1, SVG Export Plug-In . SVG Version: 6.00 Build 0)  -->
<svg version="1.1" id="Слой_1" xmlns="http://www.w3.org/2000/svg" xmlns:xlink="http://www.w3.org/1999/xlink" x="0px" y="0px"
	 viewBox="0 0 400 8" style="enable-background:new 0 0 400 8;" xml:space="preserve">
<style type="text/css">
	.st0{opacity:0.2;enable-background:new    ;}
	.st1{opacity:0.2;}
</style>
<path class="st0" d="M2,3.2l24.9-0.1c8.3,0,16.6-0.2,24.9-0.3s16.6-0.3,24.8-0.5l24.9-0.8c16.6-0.4,33.2-0.6,49.8-0.4
	c8.3,0.1,16.6,0.4,24.9,0.6s16.6,0.4,24.8,0.5c8.3,0.1,16.6,0.2,24.8,0.2c8.3,0,16.6-0.1,24.9-0.2c0,0,37.4-0.1,49.9-0.1
	C317.2,2,334.4,3,350.7,1.6c8.3-0.7,16.1,0.4,24.4,0.6s16.6,0.4,24.9,0.7V3c-33.2,0-66.3,0.1-99.5,0.7l-49.7,0.7
	c-8.3,0.1-16.6,0.3-24.9,0.3c-8.4,0.3-16.6,2-24.9,2c-8.3-0.1-16.7-1.9-25-2.2c-8.3-0.2-16.2,0.9-24.4,0.8
	c-16.6-0.2-30.1-0.8-46.6,0c-8,0.4-14.1,3.4-28.3-0.4C72.5,5,68.4,5.1,64.2,5.1s-8.3,0.1-12.4,0.1c-8.3,0-16.6-0.1-24.9-0.3
	c-4.1-0.1-8.3-0.2-12.4-0.3L8.2,4.3L2,4.1V3.2z"/>
<path class="st0" d="M256,6.6h6.4c2.1,0,4.3-0.1,6.4-0.1s4.3-0.1,6.4-0.1l6.4-0.2c4.3-0.1,8.6-0.2,12.9-0.1c2.1,0,4.3,0.1,6.4,0.2
	s4.3,0.1,6.4,0.1s4.3,0.1,6.4,0.1s4.3,0,6.4-0.1c0,0,9.7,0,12.9,0c4.3,0,8.8,0.2,13-0.1c2.1-0.2,4.2,0.1,6.3,0.2s4.3,0.1,6.4,0.2
	l0,0c-8.6,0-17.2,0-25.7,0.2l-12.9,0.2c-2.1,0-4.3,0.1-6.4,0.1c-2.2,0.1-4.3,0.5-6.4,0.5s-4.3-0.5-6.5-0.6c-2.1-0.1-4.2,0.2-6.3,0.2
	c-4.3-0.1-7.8-0.2-12.1,0c-2.1,0.1-3.6,0.9-7.3-0.1c-1.1,0-2.1,0.1-3.2,0.1s-2.1,0-3.2,0c-2.1,0-4.3,0-6.4-0.1
	c-1.1,0-2.1-0.1-3.2-0.1L257.5,7L256,6.9V6.6z"/>
<circle class="st1" cx="367.4" cy="5.8" r="1.8"/>
<circle class="st1" cx="381.3" cy="4.9" r="0.9"/>
<circle class="st1" cx="393.7" cy="5.5" r="0.6"/>
<circle class="st1" cx="386.1" cy="5.4" r="0.5"/>
<circle class="st1" cx="375.4" cy="7.3" r="0.4"/>
<circle class="st1" cx="362.3" cy="6.3" r="0.9"/>
<ellipse class="st1" cx="239.3" cy="6.6" rx="1.4" ry="1.1"/>
<circle class="st1" cx="243.7" cy="5.7" r="0.3"/>
<circle class="st1" cx="248.3" cy="6.3" r="0.6"/>
<ellipse class="st1" cx="168.9" cy="6.4" rx="1.1" ry="0.7"/>
<ellipse class="st1" cx="171.9" cy="7.1" rx="1.1" ry="0.7"/>
<ellipse class="st1" cx="182.3" cy="6" rx="1.1" ry="0.7"/>
<circle class="st1" cx="173.7" cy="6" r="0.3"/>
<circle class="st1" cx="178.2" cy="6.5" r="0.6"/>
<ellipse class="st1" cx="115.9" cy="6" rx="1.1" ry="0.7"/>
<circle class="st1" cx="120.7" cy="5.6" r="0.3"/>
<circle class="st1" cx="125.3" cy="6.2" r="0.6"/>
<circle class="st1" cx="1.3" cy="1.9" r="0.4"/>
<ellipse class="st1" cx="3.1" cy="5.3" rx="0.9" ry="0.6"/>
<ellipse class="st1" cx="7.1" cy="6.2" rx="0.9" ry="0.6"/>
<ellipse class="st1" cx="10.8" cy="5.9" rx="0.9" ry="0.6"/>
<circle class="st1" cx="8" cy="1.2" r="0.2"/>
<circle class="st1" cx="2.2" cy="0.5" r="0.5"/>
</svg>
