<?xml version="1.0" encoding="utf-8"?>
<!-- Generator: Adobe Illustrator 26.0.3, SVG Export Plug-In . SVG Version: 6.00 Build 0)  -->
<svg version="1.1" id="Слой_1" xmlns="http://www.w3.org/2000/svg" xmlns:xlink="http://www.w3.org/1999/xlink" x="0px" y="0px"
	 viewBox="0 0 1000 500" style="enable-background:new 0 0 1000 500;" xml:space="preserve">
<style type="text/css">
	.st0{fill:#DCD4D1;}
</style>
<g>
	<g>
		<path class="st0" d="M211,382h-18.6v-49.4l-13.6,31.9H166l-13.6-31.9V382h-17.6v-74.5h21.6l16.5,36.8l16.5-36.8H211V382z"/>
		<path class="st0" d="M243.4,317.9h-18.5v-13.7h18.5V317.9z M242.9,382h-17.5v-56.2h17.5V382z"/>
		<path class="st0" d="M308.9,382h-17.6v-27.9c0-2.3-0.1-4.5-0.3-6.8s-0.5-3.9-1-5c-0.6-1.3-1.5-2.2-2.6-2.7
			c-1.1-0.6-2.7-0.8-4.6-0.8c-1.4,0-2.9,0.3-4.4,0.8c-1.5,0.5-3,1.4-4.7,2.6V382h-17.5v-56.2h17.5v6.2c2.9-2.4,5.7-4.3,8.4-5.7
			c2.7-1.4,5.7-2.1,9-2.1c5.7,0,10.1,1.8,13.2,5.4s4.6,8.9,4.6,15.7V382z"/>
		<path class="st0" d="M339.8,317.9h-18.5v-13.7h18.5V317.9z M339.3,382h-17.5v-56.2h17.5V382z"/>
		<path class="st0" d="M419.8,382V354c0-2.8-0.1-5.1-0.2-7c-0.1-1.9-0.4-3.5-0.9-4.7c-0.5-1.2-1.3-2.1-2.3-2.6
			c-1.1-0.6-2.5-0.8-4.4-0.8c-1.3,0-2.7,0.3-4,0.9s-2.7,1.4-4.3,2.5V382h-17.6V354c0-2.7-0.1-5.1-0.2-7c-0.1-1.9-0.4-3.5-0.9-4.7
			c-0.5-1.2-1.3-2.1-2.3-2.6c-1.1-0.6-2.5-0.8-4.4-0.8c-1.4,0-2.8,0.3-4.2,1s-2.7,1.5-4,2.4V382h-17.5v-56.2h17.5v6.2
			c2.9-2.4,5.6-4.3,8.1-5.7c2.5-1.4,5.4-2.1,8.6-2.1c3.4,0,6.5,0.8,9.1,2.5c2.6,1.6,4.6,4.1,6,7.3c3.4-3.1,6.5-5.5,9.5-7.2
			c3-1.7,6-2.5,9.1-2.5c2.6,0,4.9,0.4,7,1.3c2.1,0.8,3.8,2.1,5.3,3.8c1.6,1.8,2.7,3.9,3.5,6.4c0.8,2.5,1.2,5.7,1.2,9.7V382H419.8z"
			/>
		<path class="st0" d="M481.3,376.1c-1.2,1-2.3,1.9-3.2,2.7c-1,0.8-2.2,1.6-3.8,2.4c-1.6,0.8-3.1,1.4-4.6,1.8
			c-1.5,0.4-3.6,0.6-6.2,0.6c-5,0-9.1-1.7-12.4-5c-3.3-3.3-4.9-7.5-4.9-12.6c0-4.2,0.8-7.5,2.5-10.1s4.1-4.6,7.2-6.1
			c3.2-1.5,7-2.6,11.4-3.2c4.4-0.6,9.1-1.1,14.2-1.4v-0.3c0-3.1-1.1-5.2-3.4-6.4c-2.3-1.2-5.7-1.8-10.3-1.8c-2.1,0-4.5,0.4-7.3,1.1
			c-2.8,0.8-5.5,1.7-8.1,2.9h-1.5v-13.6c1.7-0.5,4.5-1.1,8.4-1.8s7.8-1,11.7-1c9.7,0,16.7,1.6,21.1,4.8c4.4,3.2,6.6,8.1,6.6,14.7
			V382h-17.4V376.1z M481.3,367.4v-11.7c-3,0.3-5.4,0.6-7.2,0.8c-1.8,0.2-3.6,0.6-5.4,1.3c-1.5,0.5-2.7,1.3-3.6,2.4
			c-0.9,1.1-1.3,2.5-1.3,4.3c0,2.6,0.7,4.4,2.1,5.4s3.5,1.5,6.3,1.5c1.5,0,3.1-0.4,4.7-1.1C478.6,369.6,480,368.6,481.3,367.4z"/>
		<path class="st0" d="M529.2,382h-17.5v-77.8h17.5V382z"/>
		<path class="st0" d="M639.7,382V354c0-2.8-0.1-5.1-0.2-7c-0.1-1.9-0.4-3.5-0.9-4.7s-1.3-2.1-2.3-2.6c-1.1-0.6-2.5-0.8-4.4-0.8
			c-1.3,0-2.7,0.3-4,0.9s-2.7,1.4-4.3,2.5V382h-17.6V354c0-2.7-0.1-5.1-0.2-7c-0.1-1.9-0.4-3.5-0.9-4.7s-1.3-2.1-2.3-2.6
			c-1.1-0.6-2.5-0.8-4.4-0.8c-1.4,0-2.8,0.3-4.2,1s-2.7,1.5-4,2.4V382h-17.5v-56.2h17.5v6.2c2.9-2.4,5.6-4.3,8.1-5.7
			c2.5-1.4,5.4-2.1,8.6-2.1c3.4,0,6.5,0.8,9.1,2.5c2.6,1.6,4.6,4.1,6,7.3c3.4-3.1,6.5-5.5,9.5-7.2c3-1.7,6-2.5,9.1-2.5
			c2.6,0,4.9,0.4,7,1.3s3.8,2.1,5.3,3.8c1.6,1.8,2.7,3.9,3.5,6.4c0.8,2.5,1.2,5.7,1.2,9.7V382H639.7z"/>
		<path class="st0" d="M722.4,382h-17.5v-6.2c-3,2.5-5.8,4.5-8.4,5.8c-2.5,1.3-5.6,2-9.1,2c-5.6,0-9.9-1.8-13-5.3
			c-3.1-3.5-4.7-8.8-4.7-15.9v-36.6h17.6v27.9c0,2.9,0.1,5.3,0.2,7.1c0.1,1.8,0.5,3.4,1.1,4.7c0.5,1.2,1.4,2.1,2.5,2.7
			c1.1,0.6,2.7,0.9,4.7,0.9c1.2,0,2.7-0.3,4.4-0.9c1.7-0.6,3.2-1.4,4.7-2.5v-39.8h17.5V382z"/>
		<path class="st0" d="M752.9,383.6c-4.1,0-8-0.5-11.7-1.4c-3.7-0.9-6.7-2-9.1-3.2v-14.8h1.5c0.8,0.6,1.8,1.3,2.9,2.1
			s2.6,1.6,4.5,2.4c1.6,0.8,3.5,1.4,5.5,2s4.3,0.8,6.7,0.8c2.5,0,4.6-0.4,6.5-1.2c1.9-0.8,2.8-2,2.8-3.7c0-1.3-0.4-2.3-1.3-3
			c-0.9-0.7-2.6-1.3-5.1-1.9c-1.3-0.3-3-0.7-5.1-1.1s-3.8-0.8-5.4-1.3c-4.4-1.4-7.7-3.4-9.9-6.1c-2.2-2.7-3.3-6.2-3.3-10.6
			c0-2.5,0.6-4.9,1.7-7.1c1.2-2.2,2.8-4.2,5.1-5.9c2.2-1.7,5-3.1,8.3-4.1c3.3-1,7-1.5,11.1-1.5c3.9,0,7.6,0.4,10.9,1.2
			c3.3,0.8,6.1,1.7,8.4,2.8v14.2h-1.4c-0.6-0.5-1.6-1.1-2.9-1.9c-1.3-0.8-2.6-1.5-3.8-2c-1.5-0.7-3.1-1.2-4.9-1.7
			c-1.8-0.4-3.7-0.7-5.6-0.7c-2.5,0-4.7,0.4-6.4,1.3c-1.8,0.9-2.6,2-2.6,3.5c0,1.3,0.4,2.3,1.3,3c0.9,0.7,2.8,1.5,5.7,2.2
			c1.5,0.4,3.2,0.7,5.2,1.1c2,0.4,3.8,0.8,5.6,1.4c4,1.3,7.1,3.2,9.2,5.7c2.1,2.5,3.1,5.9,3.1,10c0,2.6-0.6,5.1-1.9,7.5
			c-1.2,2.4-3,4.4-5.3,6c-2.4,1.8-5.2,3.1-8.5,4.1C761.3,383.1,757.4,383.6,752.9,383.6z"/>
		<path class="st0" d="M806.5,317.9H788v-13.7h18.5V317.9z M806,382h-17.5v-56.2H806V382z"/>
		<path class="st0" d="M847,383.5c-4.6,0-8.9-0.6-12.7-1.8c-3.9-1.2-7.2-3-10-5.4c-2.8-2.4-5-5.5-6.6-9.2s-2.4-8-2.4-13
			c0-5.4,0.9-9.9,2.6-13.7c1.7-3.8,4-6.9,6.9-9.3c2.8-2.3,6.1-4.1,9.9-5.2c3.8-1.1,7.7-1.7,11.8-1.7c3.1,0,6.2,0.4,9.3,1.1
			c3.1,0.7,6.2,1.9,9.4,3.4v15h-2.3c-0.7-0.7-1.6-1.4-2.6-2.2c-1-0.8-2.1-1.5-3.3-2.2c-1.3-0.7-2.7-1.3-4.3-1.8
			c-1.6-0.5-3.4-0.7-5.4-0.7c-4.5,0-7.9,1.6-10.4,4.7c-2.5,3.1-3.7,7.3-3.7,12.6c0,5.6,1.3,9.8,3.9,12.6s6.1,4.2,10.4,4.2
			c2.2,0,4.1-0.3,5.8-0.8s3.1-1.1,4.3-1.8c1.2-0.7,2.2-1.4,3-2.2c0.8-0.8,1.6-1.4,2.2-2h2.3v15c-1,0.4-2.2,0.9-3.5,1.5s-2.7,1-4,1.4
			c-1.7,0.5-3.3,0.8-4.8,1.1C851.3,383.4,849.4,383.5,847,383.5z"/>
	</g>
	<g>
		<path class="st0" d="M63.8,194.2l25.2-74.5h20.4l25.2,74.5h-19.3l-4.7-15.2H87.2l-4.7,15.2H63.8z M106.5,165.5L98.9,141l-7.6,24.6
			H106.5z"/>
		<path class="st0" d="M193.4,138.1l-20.2,56.2h-19.1l-20-56.2h18.4l11.5,37.2l11.4-37.2H193.4z"/>
		<path class="st0" d="M231.1,188.3c-1.2,1-2.3,1.9-3.2,2.7c-1,0.8-2.2,1.6-3.8,2.4c-1.6,0.8-3.1,1.4-4.6,1.8
			c-1.5,0.4-3.6,0.6-6.2,0.6c-5,0-9.1-1.7-12.4-5c-3.3-3.3-4.9-7.5-4.9-12.6c0-4.2,0.8-7.5,2.5-10.1c1.7-2.6,4.1-4.6,7.2-6.1
			c3.2-1.5,7-2.6,11.4-3.2c4.4-0.6,9.1-1.1,14.2-1.4V157c0-3.1-1.1-5.2-3.4-6.4c-2.3-1.2-5.7-1.8-10.3-1.8c-2.1,0-4.5,0.4-7.3,1.1
			c-2.8,0.8-5.5,1.7-8.1,2.9h-1.5v-13.6c1.7-0.5,4.5-1.1,8.4-1.8c3.9-0.7,7.8-1,11.7-1c9.7,0,16.7,1.6,21.1,4.8
			c4.4,3.2,6.6,8.1,6.6,14.7v38.2h-17.4V188.3z M231.1,179.6v-11.7c-3,0.3-5.4,0.6-7.2,0.8c-1.8,0.2-3.6,0.6-5.4,1.3
			c-1.5,0.5-2.7,1.3-3.6,2.4c-0.9,1.1-1.3,2.5-1.3,4.3c0,2.6,0.7,4.4,2.1,5.4c1.4,1,3.5,1.5,6.3,1.5c1.5,0,3.1-0.4,4.7-1.1
			C228.3,181.8,229.8,180.8,231.1,179.6z"/>
		<path class="st0" d="M314,194.2h-17.6v-27.9c0-2.3-0.1-4.5-0.3-6.8c-0.2-2.3-0.5-3.9-1-5c-0.6-1.3-1.5-2.2-2.6-2.7
			c-1.1-0.6-2.7-0.8-4.6-0.8c-1.4,0-2.9,0.3-4.4,0.8c-1.5,0.5-3,1.4-4.7,2.6v39.8h-17.5v-56.2h17.5v6.2c2.9-2.4,5.7-4.3,8.4-5.7
			c2.7-1.4,5.7-2.1,9-2.1c5.7,0,10.1,1.8,13.2,5.4c3,3.6,4.6,8.9,4.6,15.7V194.2z"/>
		<path class="st0" d="M348.5,195.3c-7.1,0-12.3-1.5-15.6-4.4s-4.9-7.7-4.9-14.4v-26.3h-6.7v-12.2h6.7V122h17.5v16.1h16.9v12.2
			h-16.9v19.9c0,2,0,3.7,0,5.2s0.3,2.8,0.8,4c0.5,1.2,1.3,2.1,2.5,2.8c1.2,0.7,2.9,1,5.2,1c0.9,0,2.2-0.2,3.7-0.6
			c1.5-0.4,2.6-0.8,3.2-1.1h1.5v12.4c-1.9,0.5-3.9,0.9-6.1,1.2C354.2,195.2,351.6,195.3,348.5,195.3z"/>
		<path class="st0" d="M401.5,168.3h-33.2v-13.9h33.2V168.3z"/>
		<path class="st0" d="M464.7,187.8c0,5.2-0.8,9.6-2.3,13.3s-3.6,6.5-6.2,8.5c-2.6,2.1-5.7,3.6-9.4,4.5c-3.6,0.9-7.7,1.4-12.1,1.4
			c-3.7,0-7.3-0.2-10.6-0.7c-3.4-0.5-6.3-1-8.7-1.7v-14.1h2.1c0.9,0.3,1.9,0.7,3.1,1.1c1.2,0.4,2.4,0.8,3.6,1.1
			c1.4,0.4,2.8,0.7,4.2,0.9c1.4,0.2,2.8,0.4,4.2,0.4c3,0,5.4-0.3,7.4-0.9s3.5-1.5,4.5-2.6c1-1.2,1.7-2.5,2.1-4.1
			c0.4-1.6,0.6-3.6,0.6-6v-1.1c-2,1.7-4.2,3.1-6.8,4.2c-2.6,1.1-5.2,1.6-8,1.6c-7.3,0-12.9-2.4-16.8-7.1s-5.9-11.9-5.9-21.6
			c0-4.4,0.6-8.4,1.8-11.9s2.9-6.5,5.1-9c2.1-2.4,4.6-4.2,7.5-5.5s6-1.9,9.2-1.9c2.9,0,5.4,0.4,7.7,1.1c2.3,0.7,4.3,1.7,6.2,3
			l0.7-2.5h17V187.8z M447.2,176.5v-25.5c-0.9-0.4-1.9-0.7-3.2-1c-1.3-0.3-2.5-0.4-3.8-0.4c-4.2,0-7.4,1.4-9.5,4.1
			c-2.1,2.7-3.2,6.5-3.2,11.4c0,2.4,0.2,4.5,0.5,6.2s0.9,3.2,1.8,4.5c0.8,1.3,1.9,2.2,3.3,2.9c1.4,0.7,3.1,1,5.2,1
			c1.6,0,3.1-0.3,4.6-0.8C444.4,178.3,445.9,177.5,447.2,176.5z"/>
		<path class="st0" d="M509.1,188.3c-1.2,1-2.3,1.9-3.2,2.7s-2.2,1.6-3.8,2.4c-1.6,0.8-3.1,1.4-4.6,1.8c-1.5,0.4-3.6,0.6-6.2,0.6
			c-5,0-9.1-1.7-12.4-5c-3.3-3.3-4.9-7.5-4.9-12.6c0-4.2,0.8-7.5,2.5-10.1c1.7-2.6,4.1-4.6,7.2-6.1c3.2-1.5,7-2.6,11.4-3.2
			c4.4-0.6,9.1-1.1,14.2-1.4V157c0-3.1-1.1-5.2-3.4-6.4s-5.7-1.8-10.3-1.8c-2.1,0-4.5,0.4-7.3,1.1c-2.8,0.8-5.5,1.7-8.1,2.9h-1.5
			v-13.6c1.7-0.5,4.5-1.1,8.4-1.8c3.9-0.7,7.8-1,11.7-1c9.7,0,16.7,1.6,21.1,4.8c4.4,3.2,6.6,8.1,6.6,14.7v38.2h-17.4V188.3z
			 M509.1,179.6v-11.7c-3,0.3-5.4,0.6-7.2,0.8c-1.8,0.2-3.6,0.6-5.4,1.3c-1.5,0.5-2.7,1.3-3.6,2.4s-1.3,2.5-1.3,4.3
			c0,2.6,0.7,4.4,2.1,5.4c1.4,1,3.5,1.5,6.3,1.5c1.5,0,3.1-0.4,4.7-1.1C506.4,181.8,507.8,180.8,509.1,179.6z"/>
		<path class="st0" d="M577.2,154.6h-1.5c-0.7-0.2-1.6-0.4-2.9-0.5c-1.3-0.1-2.7-0.2-4.2-0.2c-1.8,0-3.8,0.3-5.8,0.8s-4,1.2-5.9,1.9
			v37.6h-17.5v-56.2H557v8.1c0.8-0.7,1.9-1.7,3.3-2.8c1.4-1.1,2.7-2,3.9-2.7c1.3-0.8,2.7-1.4,4.4-2s3.3-0.8,4.8-0.8
			c0.6,0,1.2,0,1.9,0.1c0.7,0,1.3,0.1,1.9,0.2V154.6z"/>
		<path class="st0" d="M634.9,194.2h-17.5v-5.9c-1.1,0.9-2.4,1.9-3.9,3c-1.5,1.1-2.7,1.9-3.8,2.4c-1.4,0.7-2.8,1.2-4.2,1.5
			c-1.4,0.3-3,0.5-4.9,0.5c-6.4,0-11.5-2.7-15.2-8s-5.6-12.4-5.6-21.3c0-4.9,0.6-9.2,1.9-12.8c1.3-3.6,3-6.7,5.3-9.4
			c2-2.4,4.5-4.4,7.4-5.8c2.9-1.4,6-2.1,9.2-2.1c2.9,0,5.3,0.3,7.2,0.9s4.1,1.6,6.6,2.9v-23.9h17.5V194.2z M617.4,178.7v-27.6
			c-0.9-0.4-2-0.8-3.4-1.1c-1.4-0.3-2.6-0.4-3.6-0.4c-4.2,0-7.4,1.5-9.5,4.4c-2.1,2.9-3.2,7-3.2,12.3c0,5.5,0.8,9.5,2.5,12
			s4.4,3.7,8.2,3.7c1.5,0,3.1-0.3,4.7-0.9C614.7,180.6,616.1,179.8,617.4,178.7z"/>
		<path class="st0" d="M677.1,195.7c-10.6,0-18.7-2.5-24.4-7.6s-8.5-12.3-8.5-21.7c0-9.2,2.6-16.5,7.9-22c5.3-5.5,12.6-8.2,22.1-8.2
			c8.6,0,15.1,2.3,19.4,7s6.5,11.3,6.5,19.9v6.3h-38.4c0.2,2.6,0.7,4.8,1.7,6.5c0.9,1.8,2.2,3.1,3.7,4.2c1.5,1,3.3,1.8,5.3,2.2
			c2,0.5,4.2,0.7,6.6,0.7c2,0,4-0.2,6-0.7c2-0.5,3.8-1,5.4-1.8c1.4-0.6,2.8-1.3,4-2.1c1.2-0.7,2.2-1.4,3-2h1.9v14.5
			c-1.4,0.6-2.7,1.1-3.9,1.6s-2.8,1-4.9,1.5c-1.9,0.5-3.9,0.9-5.9,1.2C682.4,195.6,680,195.7,677.1,195.7z M682.9,158.9
			c-0.1-3.7-1-6.5-2.6-8.5c-1.6-1.9-4.1-2.9-7.4-2.9c-3.4,0-6.1,1-8,3.1s-3,4.8-3.2,8.3H682.9z"/>
		<path class="st0" d="M762.9,195.2c0,6.3-1.9,11.3-5.7,14.8s-8.6,5.3-14.6,5.3c-3.2,0-6.1-0.1-8.7-0.4c-2.6-0.3-4.5-0.6-5.7-0.9
			v-12.9h1.4c1.1,0.4,2.4,0.7,3.8,0.9c1.4,0.2,2.5,0.3,3.3,0.3c3.4,0,5.7-1,6.9-3.1s1.8-5.5,1.8-10.2v-38.8h-10.1v-12.2h27.6V195.2z
			 M762.9,130.1h-18.7v-13.7h18.7V130.1z"/>
		<path class="st0" d="M807.2,188.3c-1.2,1-2.3,1.9-3.2,2.7s-2.2,1.6-3.8,2.4c-1.6,0.8-3.1,1.4-4.6,1.8c-1.5,0.4-3.6,0.6-6.2,0.6
			c-5,0-9.1-1.7-12.4-5c-3.3-3.3-4.9-7.5-4.9-12.6c0-4.2,0.8-7.5,2.5-10.1c1.7-2.6,4.1-4.6,7.2-6.1c3.2-1.5,7-2.6,11.4-3.2
			s9.1-1.1,14.2-1.4V157c0-3.1-1.1-5.2-3.4-6.4s-5.7-1.8-10.3-1.8c-2.1,0-4.5,0.4-7.3,1.1s-5.5,1.7-8.1,2.9h-1.5v-13.6
			c1.7-0.5,4.5-1.1,8.4-1.8c3.9-0.7,7.8-1,11.7-1c9.7,0,16.7,1.6,21.1,4.8s6.6,8.1,6.6,14.7v38.2h-17.4V188.3z M807.2,179.6v-11.7
			c-3,0.3-5.4,0.6-7.2,0.8c-1.8,0.2-3.6,0.6-5.4,1.3c-1.5,0.5-2.7,1.3-3.6,2.4c-0.9,1.1-1.3,2.5-1.3,4.3c0,2.6,0.7,4.4,2.1,5.4
			c1.4,1,3.5,1.5,6.3,1.5c1.5,0,3.1-0.4,4.7-1.1C804.5,181.8,805.9,180.8,807.2,179.6z"/>
		<path class="st0" d="M882.4,194.2h-49.1v-11.6l26.8-31.5h-25.6v-13.2h47.4v11.4L855,180.8h27.4V194.2z"/>
		<path class="st0" d="M936.2,194.2h-49.1v-11.6l26.8-31.5h-25.6v-13.2h47.4v11.4l-26.9,31.4h27.4V194.2z"/>
	</g>
</g>
</svg>
