<?xml version="1.0" encoding="utf-8"?>
<!-- Generator: Adobe Illustrator 26.0.3, SVG Export Plug-In . SVG Version: 6.00 Build 0)  -->
<svg version="1.1" id="Слой_1" xmlns="http://www.w3.org/2000/svg" xmlns:xlink="http://www.w3.org/1999/xlink" x="0px" y="0px"
	 viewBox="0 0 1564 800" style="enable-background:new 0 0 1564 800;" xml:space="preserve">
<style type="text/css">
	.st0{opacity:0.51;}
	.st1{fill:#6668AC;}
	.st2{fill:none;stroke:#6668AC;}
</style>
<g class="st0">
	<path class="st1" d="M186.4,365.1c2.8,1.1,5,2.7,6.7,4.8s2.8,4.3,3.2,6.6c0.4,1.9,0.4,3.9-0.1,5.8c-0.4,1.9-1.1,3.9-1.9,6l-3.7,9.3
		L161,385.7l3.7-9.2c0.8-2.1,1.7-4,2.7-5.7c1-1.7,2.3-3.2,4-4.4c2-1.5,4.3-2.3,6.9-2.6C180.8,363.5,183.5,363.9,186.4,365.1z
		 M183.3,372.7c-2-0.8-3.8-1.1-5.4-1c-1.7,0.1-3.2,0.7-4.5,1.8c-1,0.8-1.7,1.7-2.2,2.8c-0.5,1.1-1,2.4-1.7,3.9l-0.1,0.1l18.6,7.4
		l0.1-0.1c0.7-1.7,1.2-3.1,1.6-4.3c0.4-1.2,0.5-2.4,0.2-3.7c-0.3-1.5-1-2.9-2.1-4.1C186.7,374.4,185.2,373.5,183.3,372.7z"/>
	<path class="st1" d="M204,342.1c3.4,2,5.6,4.5,6.5,7.5c0.9,3,0.3,6.2-1.6,9.7c-2,3.4-4.5,5.5-7.5,6.2c-3.1,0.7-6.3,0.1-9.7-1.9
		c-3.5-2-5.6-4.5-6.5-7.5c-0.9-3-0.3-6.2,1.6-9.6c2-3.4,4.5-5.5,7.6-6.2C197.3,339.5,200.6,340.1,204,342.1z M200.2,348.8
		c-1.2-0.7-2.3-1.2-3.3-1.5c-0.9-0.3-1.8-0.4-2.5-0.3c-0.7,0.1-1.4,0.3-1.8,0.7c-0.5,0.4-0.9,0.9-1.3,1.5c-0.3,0.6-0.5,1.2-0.6,1.7
		c-0.1,0.6,0,1.2,0.3,1.9c0.3,0.7,0.8,1.3,1.5,2c0.7,0.7,1.7,1.4,3,2.2c1.3,0.7,2.4,1.2,3.3,1.5c0.9,0.2,1.7,0.3,2.4,0.3
		c0.7-0.1,1.3-0.3,1.8-0.7c0.5-0.4,1-0.9,1.3-1.5c0.3-0.5,0.5-1.1,0.6-1.8c0.1-0.7,0-1.3-0.3-1.9c-0.3-0.7-0.8-1.4-1.4-2
		C202.5,350.3,201.5,349.6,200.2,348.8z"/>
	<path class="st1" d="M229.9,328l-4.6,5.9l-2.1-1.6c0.1,1.7,0,3.1-0.2,4.3s-0.8,2.4-1.7,3.6c-1.5,1.9-3.2,2.9-5.2,3
		c-2,0.1-4.2-0.7-6.6-2.6l-12.4-9.6l4.6-6l9.4,7.3c1,0.8,1.8,1.4,2.5,1.8c0.7,0.4,1.3,0.7,1.9,0.9c0.5,0.1,1.1,0.1,1.5-0.1
		c0.5-0.2,1-0.7,1.5-1.4c0.3-0.4,0.6-1,0.8-1.7s0.4-1.5,0.4-2.2l-13.5-10.4l4.6-5.9L229.9,328z"/>
	<path class="st1" d="M241.3,299.1c2.7,2.7,4.2,5.6,4.4,8.7c0.3,3.1-0.6,5.6-2.7,7.6c-0.9,0.8-1.7,1.5-2.5,1.9
		c-0.8,0.4-1.8,0.8-2.9,1.1l0.6,1.1l-5.1,5l-23.4-23.8l5.4-5.3l8.3,8.4c0.1-1.4,0.4-2.8,0.8-4c0.4-1.2,1.1-2.4,2.2-3.4
		c2-2,4.3-2.7,6.9-2.2S238.5,296.3,241.3,299.1z M235.9,304.6c-1.7-1.7-3.1-2.7-4.4-2.9c-1.2-0.2-2.4,0.2-3.5,1.3
		c-0.5,0.5-0.9,1-1.2,1.6c-0.3,0.6-0.6,1.3-0.7,2.1l8.5,8.6c0.5-0.2,1-0.5,1.4-0.8c0.4-0.3,0.8-0.6,1.2-1c1.3-1.3,1.8-2.6,1.6-4.1
		S237.6,306.3,235.9,304.6z"/>
	<path class="st1" d="M258.6,301.3l-5.9,4.7L231.9,280l5.9-4.7L258.6,301.3z"/>
	<path class="st1" d="M273.2,291.9c-3.8,2.5-7.3,3.5-10.5,3c-3.2-0.5-5.9-2.4-8.1-5.8c-2.2-3.3-2.9-6.5-2.3-9.7
		c0.6-3.2,2.6-5.9,6-8.1c3.1-2,6-2.7,8.6-2.1c2.6,0.6,5,2.5,7,5.6l1.5,2.3l-13.8,9c0.7,0.9,1.4,1.5,2.1,2c0.7,0.4,1.5,0.6,2.3,0.6
		c0.8,0,1.6-0.1,2.4-0.4c0.8-0.3,1.7-0.7,2.5-1.3c0.7-0.5,1.4-1,2-1.7c0.6-0.6,1.1-1.3,1.5-1.9c0.4-0.6,0.7-1.1,0.9-1.7
		c0.3-0.5,0.5-1,0.6-1.4l0.7-0.4l3.4,5.2c-0.4,0.5-0.7,1-1,1.5c-0.3,0.5-0.8,1-1.4,1.7c-0.6,0.6-1.2,1.2-1.8,1.8
		C275.1,290.6,274.2,291.2,273.2,291.9z M266.6,277.3c-0.9-1.3-1.9-2.1-2.9-2.4c-1-0.3-2.2-0.1-3.3,0.7c-1.2,0.8-1.9,1.8-2.1,3
		c-0.2,1.2,0.1,2.4,0.8,3.7L266.6,277.3z"/>
	<path class="st1" d="M304.5,275.6c-2.3,0.9-4.3,1.5-6.2,1.8c-1.9,0.3-3.7,0.4-5.4,0.3l-2.9-7l0.7-0.3c2,0.7,4,1,6.1,0.9
		c2.1-0.1,3.9-0.4,5.6-1.1c0.4-0.2,1-0.4,1.6-0.8c0.7-0.4,1.2-0.7,1.5-1.1c0.4-0.4,0.7-0.9,0.9-1.5c0.2-0.5,0.2-1.2-0.1-1.8
		c-0.3-0.7-0.8-1.2-1.6-1.5c-0.8-0.2-1.6-0.3-2.5-0.2c-1.1,0.1-2.3,0.3-3.5,0.6s-2.4,0.4-3.6,0.4c-2.6,0.1-4.7-0.3-6.3-1.2
		c-1.5-1-2.7-2.5-3.6-4.5c-1.1-2.8-0.9-5.5,0.8-8.2c1.6-2.7,4.2-4.7,7.7-6.1c1.8-0.7,3.6-1.3,5.5-1.6c1.9-0.4,3.6-0.5,5.3-0.5
		l2.8,6.8l-0.7,0.3c-1.5-0.5-3.1-0.7-5-0.7c-1.8,0-3.6,0.3-5.3,1c-0.6,0.3-1.2,0.5-1.7,0.9c-0.5,0.3-0.9,0.7-1.4,1.2
		c-0.4,0.4-0.6,0.9-0.8,1.4s-0.1,1.1,0.1,1.6c0.3,0.8,0.8,1.2,1.5,1.5c0.7,0.2,1.9,0.2,3.6-0.1c1.1-0.2,2.1-0.4,3.1-0.5
		c1-0.2,2.1-0.3,3.3-0.3c2.4-0.1,4.3,0.3,5.8,1.1c1.5,0.8,2.7,2.3,3.5,4.3c1.2,2.9,1,5.8-0.6,8.5C311.2,271.8,308.4,274,304.5,275.6
		z"/>
	<path class="st1" d="M331.8,266.7c-4.4,1.2-8,1-10.9-0.5c-2.9-1.5-4.9-4.2-5.9-8.1c-1-3.8-0.7-7.1,0.9-10s4.3-4.8,8.3-5.8
		c3.6-0.9,6.5-0.7,8.8,0.8s3.9,4,4.9,7.5l0.7,2.6l-15.9,4.2c0.4,1.1,0.8,1.9,1.4,2.5c0.6,0.6,1.2,1.1,2,1.3c0.7,0.3,1.5,0.4,2.4,0.4
		c0.9,0,1.8-0.2,2.8-0.4c0.8-0.2,1.6-0.5,2.4-0.9c0.8-0.4,1.4-0.8,2-1.3c0.5-0.4,1-0.8,1.4-1.3s0.8-0.8,1-1.1l0.8-0.2l1.6,6
		c-0.5,0.4-1,0.8-1.5,1.1c-0.4,0.3-1.1,0.7-1.9,1.1c-0.7,0.4-1.5,0.8-2.3,1.1C334,266,333,266.3,331.8,266.7z M330.2,250.8
		c-0.4-1.5-1.1-2.6-2-3.2c-0.9-0.6-2-0.8-3.4-0.4c-1.4,0.4-2.4,1.1-3,2.1s-0.7,2.3-0.4,3.8L330.2,250.8z"/>
	<path class="st1" d="M367.6,260l-8.7,1.1l-5.4-6.3l-3.8,7.5l-8.6,1.1l7.3-13.1l-10.2-10.8l8.7-1.1l5.3,6.2l3.6-7.3l8.6-1.1
		l-7.1,12.9L367.6,260z"/>
	<path class="st1" d="M378.9,260.6c-3.1,0.1-5.3-0.5-6.7-1.8c-1.4-1.2-2.1-3.3-2.2-6.1l-0.2-11.3l-2.9,0.1l-0.1-5.2l2.9-0.1
		l-0.1-6.9l7.5-0.1l0.1,6.9l7.2-0.1l0.1,5.2l-7.2,0.1l0.2,8.5c0,0.8,0,1.6,0.1,2.2c0,0.6,0.2,1.2,0.4,1.7c0.2,0.5,0.6,0.9,1.1,1.2
		c0.5,0.3,1.3,0.4,2.2,0.4c0.4,0,0.9-0.1,1.6-0.3s1.1-0.3,1.4-0.5l0.6,0l0.1,5.3c-0.8,0.2-1.7,0.4-2.6,0.5
		C381.3,260.5,380.2,260.6,378.9,260.6z"/>
	<path class="st1" d="M399.3,261.8c-4.5-0.4-7.9-1.8-10.1-4.2c-2.2-2.4-3.1-5.6-2.8-9.6c0.4-3.9,1.8-6.9,4.2-9.1
		c2.5-2.1,5.7-3,9.8-2.6c3.7,0.3,6.3,1.6,8,3.7c1.7,2.1,2.3,5.1,2,8.8l-0.2,2.7l-16.4-1.5c0,1.1,0.1,2.1,0.5,2.9
		c0.3,0.8,0.8,1.4,1.4,1.9c0.6,0.5,1.3,0.9,2.2,1.2c0.8,0.3,1.8,0.5,2.8,0.5c0.9,0.1,1.7,0.1,2.6-0.1c0.9-0.1,1.7-0.3,2.4-0.5
		c0.6-0.2,1.2-0.5,1.8-0.7c0.5-0.3,1-0.5,1.3-0.7l0.8,0.1l-0.6,6.2c-0.6,0.2-1.2,0.4-1.7,0.5c-0.5,0.2-1.2,0.3-2.1,0.4
		c-0.8,0.1-1.7,0.2-2.6,0.3C401.6,261.9,400.5,261.9,399.3,261.8z M403.2,246.3c0.1-1.6-0.2-2.8-0.8-3.7s-1.6-1.4-3.1-1.5
		c-1.5-0.1-2.6,0.2-3.5,1c-0.9,0.8-1.5,1.9-1.7,3.4L403.2,246.3z"/>
	<path class="st1" d="M421.1,265.1c-3-0.6-5.1-1.7-6.2-3.2c-1.1-1.5-1.4-3.7-0.8-6.5l2.2-11l-2.8-0.6l1-5.1l2.8,0.6l1.4-6.8l7.4,1.5
		l-1.4,6.8l7.1,1.4l-1,5.1l-7.1-1.4l-1.7,8.4c-0.2,0.8-0.3,1.5-0.4,2.2c-0.1,0.6-0.1,1.2,0,1.7c0.1,0.5,0.4,1,0.8,1.4
		c0.4,0.4,1.1,0.7,2.1,0.9c0.4,0.1,0.9,0.1,1.6,0.1c0.7,0,1.1-0.1,1.4-0.2l0.6,0.1l-1,5.2c-0.8,0-1.7,0-2.6,0
		S422.4,265.3,421.1,265.1z"/>
</g>
<circle class="st2" cx="1192.7" cy="297.7" r="192.4"/>
<circle class="st2" cx="1054.1" cy="197.7" r="100"/>
<circle class="st2" cx="590.9" cy="277" r="133"/>
<circle class="st2" cx="381.1" cy="457.3" r="192.7"/>
<g class="st0">
	<path class="st1" d="M731.3,306.8c-1.3-0.2-2.5-0.5-3.4-0.9c-1-0.4-1.7-0.9-2.3-1.4c-0.6-0.6-1-1.3-1.2-2.1c-0.2-0.8-0.2-1.8,0-2.8
		c0.2-1.1,0.5-2,1-2.7c0.5-0.7,1.1-1.2,1.8-1.6c0.8-0.4,1.6-0.6,2.7-0.6c1,0,2.2,0,3.5,0.3c1.4,0.2,2.5,0.5,3.4,0.9
		c0.9,0.4,1.7,0.9,2.3,1.5c0.6,0.6,1,1.3,1.2,2.1c0.2,0.8,0.2,1.7,0,2.8c-0.2,1.1-0.5,2-1,2.7c-0.5,0.7-1.1,1.2-1.9,1.6
		c-0.8,0.4-1.6,0.6-2.7,0.6C733.8,307.1,732.6,307,731.3,306.8z M732,302.9c1.9,0.3,3.3,0.4,4.1,0.2c0.8-0.2,1.3-0.6,1.4-1.4
		c0.1-0.7-0.2-1.3-0.9-1.8c-0.7-0.4-2-0.8-3.9-1.2c-1.9-0.3-3.2-0.4-4.1-0.2c-0.8,0.2-1.3,0.6-1.4,1.4c-0.1,0.7,0.2,1.3,0.9,1.8
		C728.8,302.2,730.1,302.6,732,302.9z"/>
	<path class="st1" d="M720.3,317.8l2.7-9.9l2.6,0.7l-0.9,3.2l7.9,2.2l0.9-3.2l2.5,0.7c-0.1,0.5-0.2,0.9-0.3,1.4
		c-0.1,0.5-0.1,0.9,0,1.2c0.1,0.4,0.2,0.7,0.4,0.9c0.2,0.3,0.5,0.4,0.9,0.6l-0.9,3.3l-12.4-3.4l-0.8,3.1L720.3,317.8z"/>
	<path class="st1" d="M715.5,330.9l4.1-10.7l2.4,0.9c0.4,1.2,0.7,2.2,1.1,3.2c0.4,1,0.7,1.8,1.1,2.6c0.5,1,0.9,1.8,1.4,2.3
		c0.4,0.5,1,0.9,1.6,1.1c0.7,0.3,1.3,0.3,1.8,0c0.5-0.3,0.9-0.8,1.2-1.5c0.1-0.4,0.2-0.7,0.3-1.1c0-0.4,0-0.7,0-1.1
		c0-0.4-0.1-0.7-0.1-1c-0.1-0.3-0.1-0.5-0.2-0.7l0.1-0.3l3.2,1.2c0,0.5,0,1.2-0.1,2.2c-0.1,1-0.3,1.8-0.7,2.6
		c-0.7,1.7-1.5,2.9-2.6,3.5c-1.1,0.6-2.4,0.6-3.8,0.1c-0.9-0.3-1.6-0.8-2.3-1.6c-0.7-0.7-1.3-1.7-1.9-3c-0.4-0.8-0.7-1.6-0.9-2.3
		c-0.2-0.7-0.4-1.2-0.5-1.6l-2.3,6.2L715.5,330.9z"/>
	<path class="st1" d="M714,344.6c-0.7-0.3-1.2-0.8-1.7-1.3c-0.4-0.5-0.7-1.1-0.9-1.8c-0.1-0.7-0.2-1.4,0-2.2
		c0.1-0.8,0.4-1.6,0.9-2.6c0.5-1.1,1.1-2,1.7-2.7c0.6-0.7,1.1-1.2,1.6-1.6l3,1.5l-0.2,0.3c-0.6,0.4-1.2,0.8-1.7,1.4
		c-0.6,0.6-1,1.1-1.3,1.7c-0.2,0.3-0.3,0.7-0.5,1.1c-0.1,0.4-0.2,0.8-0.1,1.2c0.1,0.3,0.2,0.6,0.3,0.8c0.2,0.2,0.5,0.5,0.9,0.7
		c0.4,0.2,0.8,0.3,1.1,0.2c0.3-0.1,0.6-0.2,0.8-0.5c0.3-0.2,0.5-0.6,0.7-1c0.2-0.4,0.4-0.8,0.6-1.1l0.3-0.6l2.5,1.2l-0.3,0.6
		c-0.2,0.4-0.4,0.8-0.5,1.2c-0.1,0.4-0.2,0.7-0.2,1c0,0.3,0.1,0.6,0.2,0.8c0.1,0.2,0.4,0.5,0.8,0.6c0.3,0.1,0.5,0.2,0.8,0.1
		c0.2,0,0.5-0.1,0.7-0.3c0.2-0.2,0.4-0.4,0.6-0.7c0.2-0.3,0.3-0.5,0.4-0.7c0.2-0.3,0.3-0.7,0.4-1.1c0.1-0.4,0.2-0.8,0.2-1.2
		c0-0.3,0-0.7,0-1c0-0.4,0-0.6,0-0.8l0.1-0.3l3,1.5c0,0.6-0.2,1.3-0.4,2.2c-0.2,0.9-0.5,1.8-1,2.6c-0.4,0.8-0.8,1.5-1.3,2.1
		c-0.4,0.5-0.9,1-1.4,1.2c-0.5,0.3-1.1,0.5-1.6,0.5c-0.6,0-1.1-0.1-1.7-0.4c-0.8-0.4-1.4-1-1.7-1.7c-0.4-0.8-0.5-1.6-0.3-2.4
		l-0.1-0.1c-0.2,0.3-0.5,0.6-0.7,0.8c-0.3,0.3-0.6,0.5-1,0.6c-0.4,0.2-0.8,0.2-1.3,0.2C715,345,714.5,344.9,714,344.6z"/>
	<path class="st1" d="M705.6,356.2l1.1-1.8l-3.1-1.9l2-3.2l3.1,1.9l3.6-5.8l2.5,1.5l4.1,10.5l-2.1,3.3l-7.7-4.8l-1.1,1.8
		L705.6,356.2z M711.1,352.7l4.5,2.8l-2.4-6.2L711.1,352.7z"/>
	<path class="st1" d="M698.9,367.6c-0.6-0.5-1.2-1.1-1.5-1.7c-0.4-0.6-0.6-1.3-0.7-2.1c-0.1-0.7,0-1.5,0.3-2.2
		c0.2-0.8,0.7-1.6,1.4-2.4c0.7-0.9,1.4-1.6,2.1-2.2c0.7-0.5,1.2-1,1.8-1.2l2.7,2.1l-0.2,0.3c-0.2,0.1-0.4,0.2-0.7,0.3
		c-0.3,0.1-0.6,0.3-0.9,0.5c-0.3,0.2-0.7,0.4-1,0.7c-0.3,0.2-0.6,0.6-0.9,0.9c-0.2,0.3-0.5,0.7-0.7,1.1c-0.2,0.4-0.3,0.8-0.3,1.2
		c0,0.3,0.1,0.6,0.3,0.8c0.1,0.3,0.4,0.5,0.7,0.8c0.3,0.2,0.6,0.4,0.9,0.4c0.3,0,0.6,0,0.9-0.1c0.4-0.1,0.8-0.4,1.1-0.7
		c0.4-0.4,0.6-0.7,0.9-1c0.3-0.5,0.7-0.9,0.9-1.4c0.3-0.5,0.5-0.9,0.6-1.3l0.2-0.3l6.9,5.3l-6.3,8.2l-2.3-1.8l4-5.2L707,365
		c-0.1,0.2-0.3,0.4-0.4,0.6c-0.2,0.2-0.3,0.4-0.4,0.5c-0.5,0.6-0.9,1.1-1.4,1.5c-0.5,0.4-1,0.7-1.6,0.9c-0.7,0.2-1.4,0.3-2.1,0.2
		C700.4,368.6,699.7,368.2,698.9,367.6z"/>
	<path class="st1" d="M689.4,378c-1.2-1.1-1.8-2.4-1.9-3.9c-0.1-1.5,0.5-2.9,1.8-4.2c0.6-0.7,1.3-1.2,1.9-1.5
		c0.7-0.3,1.4-0.5,2.1-0.5c0.8,0,1.7,0.2,2.6,0.6c0.9,0.4,1.8,1.1,2.8,2c1,0.9,1.8,1.9,2.4,2.8c0.6,0.9,0.9,1.9,1.1,3
		c0.1,1,0,2-0.4,3.1c-0.4,1-1.1,2.1-2,3.1c-0.3,0.4-0.7,0.7-1.1,1c-0.4,0.3-0.7,0.5-0.8,0.7l-2.2-2.1l0.2-0.2
		c0.2-0.1,0.5-0.2,0.8-0.4c0.4-0.2,0.7-0.5,1.1-0.9c0.8-0.9,1.2-1.8,1.2-2.7s-0.4-1.8-1.2-2.8c-0.1,0.6-0.3,1.2-0.5,1.7
		c-0.2,0.5-0.6,1-1,1.5c-0.4,0.4-0.8,0.7-1.2,1c-0.4,0.3-0.9,0.4-1.4,0.5c-0.7,0.1-1.4,0.1-2.1-0.2S690.2,378.7,689.4,378z
		 M690.8,373.1c0,0.3,0.1,0.6,0.3,0.9c0.1,0.3,0.4,0.6,0.9,1c0.4,0.3,0.7,0.6,1,0.7s0.6,0.2,0.9,0.1c0.3,0,0.6-0.1,0.8-0.3
		c0.3-0.2,0.5-0.4,0.7-0.6c0.2-0.2,0.4-0.4,0.5-0.7c0.1-0.3,0.3-0.5,0.4-0.8c-0.1,0-0.1-0.1-0.2-0.2c-0.1-0.1-0.3-0.3-0.4-0.4
		c-0.7-0.6-1.2-1-1.7-1.3s-0.9-0.4-1.3-0.4c-0.3,0-0.5,0-0.8,0.1c-0.2,0.1-0.4,0.2-0.6,0.4c-0.1,0.2-0.3,0.4-0.4,0.6
		C690.8,372.6,690.7,372.8,690.8,373.1z"/>
	<path class="st1" d="M684,392.4l-3.2-13.8l3.3-2.9l3.1,14.1l5.6-4.9l1.9,2.2l-8.6,7.5L684,392.4z"/>
	<path class="st1" d="M667.3,394.5c-0.4-0.5-0.6-1.1-0.7-1.8c-0.1-0.6-0.1-1.3,0.1-1.9c0.2-0.6,0.5-1.3,1-1.9
		c0.5-0.6,1.1-1.2,1.9-1.8c0.9-0.6,1.7-1,2.4-1.3c0.8-0.3,1.5-0.4,2.1-0.3c0.6,0,1.2,0.2,1.7,0.5c0.5,0.3,1,0.7,1.3,1.2
		c0.5,0.7,0.7,1.5,0.7,2.2c-0.1,0.8-0.3,1.6-0.9,2.5l0,0.1c1-0.2,1.8-0.1,2.5,0.2c0.7,0.3,1.2,0.8,1.7,1.4c0.3,0.5,0.5,1,0.6,1.5
		c0.1,0.6,0,1.1-0.1,1.8c-0.2,0.6-0.5,1.2-0.9,1.8c-0.5,0.6-1.1,1.2-1.8,1.7c-0.8,0.6-1.5,1-2.2,1.2c-0.7,0.2-1.3,0.4-1.9,0.4
		c-0.6,0-1.1-0.1-1.6-0.4c-0.5-0.2-0.9-0.6-1.2-1.1c-0.4-0.6-0.6-1.3-0.6-2c0-0.7,0.2-1.5,0.7-2.4l0-0.1c-1.1,0.3-2,0.3-2.8,0
		C668.5,395.8,667.8,395.2,667.3,394.5z M670.3,392.1c0.3,0.4,0.6,0.7,0.9,0.8c0.3,0.1,0.9,0.1,1.7-0.1c0.2,0,0.5-0.1,0.9-0.2
		c0.4-0.1,0.7-0.2,1.1-0.3c0.1-0.4,0.1-0.8,0-1.2c-0.1-0.4-0.2-0.9-0.5-1.3c-0.4-0.6-0.9-0.9-1.6-1s-1.2,0.1-1.9,0.5
		c-0.2,0.1-0.3,0.3-0.5,0.5c-0.2,0.2-0.3,0.4-0.4,0.7c-0.1,0.3-0.1,0.5-0.1,0.8C670,391.5,670.1,391.8,670.3,392.1z M674.8,397.9
		c0.3,0.4,0.7,0.7,1.2,0.7c0.5,0.1,0.9-0.1,1.4-0.4c0.5-0.3,0.8-0.7,0.9-1.2s0.1-0.8-0.2-1.2c-0.2-0.3-0.5-0.6-0.8-0.6
		c-0.3-0.1-0.7-0.1-1.2,0c-0.2,0-0.5,0.1-0.7,0.2c-0.3,0.1-0.6,0.2-1.1,0.3c0,0.4,0,0.8,0.1,1.2
		C674.4,397.2,674.6,397.6,674.8,397.9z"/>
	<path class="st1" d="M657.9,404.9c-0.7-1.1-1.1-2.3-1.4-3.4c-0.3-1.1-0.3-2.2-0.2-3.2c0.2-1,0.6-2,1.2-2.8c0.6-0.9,1.6-1.7,2.8-2.4
		c0.4-0.2,0.9-0.5,1.4-0.7c0.5-0.2,0.8-0.3,1-0.4l1.5,2.7l-0.3,0.2c-0.2,0-0.5,0.1-0.9,0.1c-0.4,0.1-0.8,0.3-1.4,0.6
		c-0.4,0.3-0.8,0.6-1.2,0.9c-0.3,0.4-0.6,0.7-0.7,1.2c-0.2,0.4-0.2,0.9-0.2,1.4c0,0.5,0.2,1.1,0.4,1.7c0.3-0.6,0.6-1.1,0.9-1.5
		c0.3-0.4,0.8-0.8,1.4-1.1c0.5-0.3,0.9-0.5,1.4-0.6c0.5-0.1,1-0.2,1.5-0.1c0.7,0.1,1.3,0.4,1.9,0.8c0.6,0.4,1.2,1.1,1.7,2
		c0.4,0.7,0.7,1.4,0.8,2.2c0.1,0.7,0.1,1.4-0.1,2.1c-0.2,0.7-0.5,1.3-1,1.9c-0.5,0.6-1.1,1.1-1.9,1.6c-0.8,0.5-1.5,0.7-2.3,0.9
		c-0.7,0.1-1.5,0.1-2.1-0.1c-0.8-0.2-1.6-0.7-2.3-1.3C659.2,407,658.5,406.1,657.9,404.9z M661.5,403.5c0.4,0.7,0.8,1.3,1.2,1.7
		c0.4,0.4,0.8,0.7,1.2,0.8c0.3,0.1,0.5,0.1,0.8,0.1c0.2,0,0.5-0.1,0.7-0.2c0.2-0.1,0.4-0.3,0.5-0.5c0.1-0.2,0.2-0.4,0.3-0.7
		c0.1-0.3,0-0.6,0-1c-0.1-0.4-0.2-0.8-0.5-1.2c-0.3-0.4-0.5-0.8-0.8-1c-0.3-0.2-0.6-0.4-0.8-0.4c-0.3-0.1-0.6,0-0.9,0
		c-0.3,0.1-0.6,0.2-0.9,0.4c-0.3,0.1-0.5,0.3-0.7,0.6s-0.4,0.4-0.5,0.6c0,0.1,0.1,0.2,0.2,0.3C661.3,403.1,661.4,403.3,661.5,403.5z
		"/>
</g>
</svg>
