<?xml version="1.0" encoding="iso-8859-1"?>

<svg version="1.1" id="&#x421;&#x43B;&#x43E;&#x439;_1"
	 xmlns="http://www.w3.org/2000/svg" xmlns:xlink="http://www.w3.org/1999/xlink" x="0px" y="0px" viewBox="0 0 1564 800"
	 style="enable-background:new 0 0 1564 800;" xml:space="preserve">
<g>
	<path style="fill:none;stroke:#29ABE2;stroke-width:8;stroke-miterlimit:10;" d="M282.693,355.133
		c0,8.719-1.383,17.017-4.149,24.895c-2.766,7.88-6.749,14.459-11.945,19.74c-3.187,3.27-6.685,6.287-10.499,9.053
		c-3.815,2.767-8.027,5.114-12.636,7.041c-4.611,1.93-9.618,3.438-15.025,4.526c-5.406,1.091-11.463,1.635-18.168,1.635h-24.644
		v61.231h-47.024V296.039h72.673c10.812,0,20.137,0.986,27.975,2.955c7.837,1.97,14.94,5.092,21.312,9.367
		c7.041,4.695,12.489,10.96,16.345,18.797C280.764,334.996,282.693,344.32,282.693,355.133z M234.412,356.265
		c0-5.281-1.257-9.827-3.772-13.642c-2.515-3.813-5.532-6.432-9.053-7.858c-4.443-1.927-8.697-3.037-12.762-3.332
		c-4.066-0.293-9.577-0.44-16.534-0.44h-6.664v56.077h3.269c4.442,0,8.632-0.042,12.573-0.126c3.939-0.083,7.375-0.377,10.31-0.88
		c2.515-0.418,5.174-1.236,7.984-2.452c2.807-1.214,4.966-2.578,6.475-4.086c3.185-3.1,5.344-6.328,6.475-9.681
		C233.846,366.492,234.412,361.966,234.412,356.265z"/>
	<path style="fill:none;stroke:#29ABE2;stroke-width:8;stroke-miterlimit:10;" d="M287.722,483.254l63.243-187.215h51.299
		l63.243,187.215h-48.407l-11.693-38.223h-58.842l-11.693,38.223H287.722z M395.097,411.084l-19.111-61.735l-19.111,61.735H395.097z
		"/>
	<path style="fill:none;stroke:#29ABE2;stroke-width:8;stroke-miterlimit:10;" d="M657.249,483.254h-57.334l-52.179-68.649h-16.848
		v68.649h-46.772V296.039h75.313c10.393,0,19.445,0.65,27.158,1.949c7.711,1.3,14.836,4.003,21.375,8.109
		c6.705,4.275,12.027,9.703,15.968,16.283c3.939,6.581,5.91,14.942,5.91,25.083c0,14.333-3.228,25.963-9.682,34.891
		c-6.456,8.927-15.088,16.031-25.901,21.311L657.249,483.254z M581.558,353.373c0-4.693-0.902-8.738-2.703-12.133
		c-1.804-3.395-4.8-6.013-8.99-7.858c-2.935-1.257-6.204-2.053-9.807-2.389c-3.605-0.334-8.09-0.503-13.454-0.503h-15.716v50.419
		h13.453c6.538,0,12.09-0.397,16.66-1.195c4.567-0.795,8.443-2.493,11.63-5.092c3.018-2.346,5.259-5.155,6.727-8.424
		C580.823,362.928,581.558,358.653,581.558,353.373z"/>
	<path style="fill:none;stroke:#29ABE2;stroke-width:8;stroke-miterlimit:10;" d="M650.962,483.254l63.244-187.215h51.298
		l63.244,187.215h-48.407l-11.693-38.223h-58.843l-11.693,38.223H650.962z M758.338,411.084l-19.111-61.735l-19.111,61.735H758.338z
		"/>
	<path style="fill:none;stroke:#29ABE2;stroke-width:8;stroke-miterlimit:10;" d="M1014.58,389.835
		c0,17.436-3.815,33.048-11.442,46.835c-7.628,13.789-17.269,24.373-28.918,31.748c-9.725,6.286-20.306,10.331-31.747,12.133
		c-11.442,1.804-23.618,2.703-36.525,2.703h-58.592V296.039h58.089c13.158,0,25.48,0.839,36.965,2.515
		c11.483,1.678,22.255,5.743,32.313,12.196c12.321,7.88,22.044,18.504,29.17,31.873
		C1011.016,355.993,1014.58,371.729,1014.58,389.835z M966.299,389.458c0-12.321-2.118-22.861-6.35-31.622
		c-4.233-8.758-10.75-15.61-19.552-20.557c-6.371-3.521-13.057-5.448-20.054-5.784c-7-0.334-15.361-0.503-25.084-0.503h-0.88
		v117.183h0.88c10.562,0,19.467-0.188,26.718-0.566c7.25-0.377,14.146-2.618,20.684-6.727c7.711-4.86,13.579-11.567,17.603-20.117
		S966.299,401.779,966.299,389.458z"/>
	<path style="fill:none;stroke:#29ABE2;stroke-width:8;stroke-miterlimit:10;" d="M1212.859,389.709
		c0,30.261-8.09,54.065-24.267,71.416c-16.178,17.352-38.348,26.026-66.512,26.026c-28.249,0-50.419-8.779-66.513-26.341
		c-16.094-17.56-24.141-41.26-24.141-71.102c0-30.091,8.047-53.876,24.141-71.353c16.094-17.477,38.264-26.215,66.513-26.215
		c28.164,0,50.334,8.697,66.512,26.089C1204.77,335.625,1212.859,359.451,1212.859,389.709z M1164.327,389.583
		c0-11.147-1.153-20.64-3.458-28.479c-2.307-7.836-5.387-14.271-9.241-19.3c-4.023-5.112-8.571-8.78-13.642-11.001
		c-5.073-2.22-10.332-3.332-15.779-3.332c-5.784,0-11.023,1.027-15.717,3.081c-4.695,2.055-9.222,5.721-13.579,11.001
		c-3.856,4.862-6.979,11.316-9.367,19.363s-3.583,17.646-3.583,28.792c0,11.484,1.131,21.02,3.395,28.604
		c2.263,7.587,5.363,13.937,9.304,19.048c4.023,5.198,8.592,8.907,13.705,11.128c5.112,2.222,10.393,3.332,15.843,3.332
		c5.531,0,10.895-1.195,16.093-3.584c5.196-2.389,9.682-6.098,13.454-11.127c4.023-5.448,7.123-11.797,9.304-19.049
		C1163.236,410.812,1164.327,401.319,1164.327,389.583z"/>
	<path style="fill:none;stroke:#29ABE2;stroke-width:8;stroke-miterlimit:10;" d="M1399.068,483.254h-54.567l-35.96-59.723
		l-36.714,59.723h-52.053l60.729-94.299l-58.34-92.916h54.442l33.696,56.454l34.576-56.454h52.179l-58.717,91.03L1399.068,483.254z"
		/>
</g>
</svg>
